<svg width="130" height="32" viewBox="0 0 130 32" fill="none" xmlns="http://www.w3.org/2000/svg">
<path d="M14.1708 30.1714L15.9995 32L32 15.9995L17.8281 1.82758L5.942 13.7137L10.0564 17.8281L17.8281 10.0564L26.0569 18.2853L14.1708 30.1714Z" fill="#FF5A19"/>
<path d="M17.8298 1.82809L16.0011 -0.000546128L0.000597993 16L14.1725 30.1719L26.0586 18.2858L21.9442 14.1713L14.1725 21.943L5.94365 13.7142L17.8298 1.82809Z" fill="white"/>
<path d="M107.812 21.7337C107.39 21.7337 107.006 21.6226 106.662 21.4004C106.317 21.167 106.04 20.867 105.828 20.5003C105.617 20.1337 105.512 19.7448 105.512 19.3336V12.0835C105.512 11.6501 105.617 11.2612 105.828 10.9168C106.04 10.5612 106.317 10.2779 106.662 10.0667C107.006 9.84451 107.39 9.7334 107.812 9.7334H115.095C115.518 9.7334 115.901 9.84451 116.245 10.0667C116.59 10.2779 116.868 10.5612 117.079 10.9168C117.29 11.2612 117.395 11.6501 117.395 12.0835V19.3336C117.395 19.7448 117.29 20.1337 117.079 20.5003C116.868 20.867 116.59 21.167 116.245 21.4004C115.901 21.6226 115.518 21.7337 115.095 21.7337H107.812ZM108.695 19.4337H115.012C115.068 19.4337 115.112 19.417 115.145 19.3837C115.19 19.3392 115.212 19.2892 115.212 19.2336V14.0002L108.695 19.4337ZM107.695 17.4003L114.212 11.9668H107.895C107.84 11.9668 107.79 11.989 107.745 12.0335C107.712 12.0668 107.695 12.1112 107.695 12.1668V17.4003Z" fill="#FF5A19"/>
<path d="M119.228 21.7337V21.1504L122.779 16.8169L119.228 12.6501V12.0668H121.595L124.195 15.1335L126.795 12.0668H129.162V12.6501L125.612 16.8169L129.162 21.1504V21.7337H126.812L124.195 18.5336L121.595 21.7337H119.228Z" fill="#FF5A19"/>
<path d="M36.9658 21.7337V9.7334H46.6327C47.055 9.7334 47.4439 9.83896 47.7994 10.0501C48.155 10.2612 48.4383 10.5445 48.6495 10.9001C48.8606 11.2445 48.9661 11.6279 48.9661 12.0501V19.417C48.9661 19.8392 48.8606 20.2281 48.6495 20.5837C48.4383 20.9281 48.155 21.2059 47.7994 21.417C47.4439 21.6282 47.055 21.7337 46.6327 21.7337H36.9658ZM39.3492 19.517H46.5327C46.5883 19.517 46.6383 19.5003 46.6827 19.467C46.7272 19.4225 46.7494 19.3725 46.7494 19.317V12.1501C46.7494 12.0946 46.7272 12.0501 46.6827 12.0168C46.6383 11.9723 46.5883 11.9501 46.5327 11.9501H39.3492C39.2937 11.9501 39.2437 11.9723 39.1992 12.0168C39.1659 12.0501 39.1492 12.0946 39.1492 12.1501V19.317C39.1492 19.3725 39.1659 19.4225 39.1992 19.467C39.2437 19.5003 39.2937 19.517 39.3492 19.517Z" fill="white"/>
<path d="M53.116 21.7337C52.6937 21.7337 52.3048 21.6282 51.9493 21.417C51.6048 21.2059 51.327 20.9281 51.1159 20.5837C50.9048 20.2281 50.7993 19.8392 50.7993 19.417V9.7334H52.9993V19.317C52.9993 19.3725 53.016 19.4225 53.0493 19.467C53.0938 19.5003 53.1438 19.517 53.1993 19.517H60.3662C60.4217 19.517 60.4717 19.5003 60.5162 19.467C60.5606 19.4225 60.5828 19.3725 60.5828 19.317V9.7334H62.7996V19.417C62.7996 19.8392 62.694 20.2281 62.4829 20.5837C62.2718 20.9281 61.9884 21.2059 61.6329 21.417C61.2884 21.6282 60.9051 21.7337 60.4828 21.7337H53.116Z" fill="white"/>
<path d="M68.9351 21.7337V11.9501H64.035V9.7334H76.0353V11.9501H71.1519V21.7337H68.9351Z" fill="white"/>
<path d="M79.5986 21.7337C79.1763 21.7337 78.7874 21.6282 78.4319 21.417C78.0874 21.2059 77.8096 20.9281 77.5985 20.5837C77.3874 20.2281 77.2818 19.8392 77.2818 19.417V12.0501C77.2818 11.6279 77.3874 11.2445 77.5985 10.9001C77.8096 10.5445 78.0874 10.2612 78.4319 10.0501C78.7874 9.83896 79.1763 9.7334 79.5986 9.7334H89.2488V11.9501H80.0653C79.8875 11.9501 79.743 12.0001 79.6319 12.1001C79.5319 12.2001 79.4819 12.3446 79.4819 12.5335V18.9336C79.4819 19.1114 79.5319 19.2559 79.6319 19.367C79.743 19.467 79.8875 19.517 80.0653 19.517H89.2488V21.7337H79.5986Z" fill="white"/>
<path d="M91.0033 21.7337V9.7334H93.2034V14.6169H101.07V9.7334H103.27V21.7337H101.07V16.8503H93.2034V21.7337H91.0033Z" fill="white"/>
</svg>
