<svg width="32" height="32" viewBox="0 0 32 32" fill="none" xmlns="http://www.w3.org/2000/svg">
<g clip-path="url(#clip0_4646_29037)">
<path d="M16 32C24.8366 32 32 24.8366 32 16C32 7.16344 24.8366 0 16 0C7.16344 0 0 7.16344 0 16C0 24.8366 7.16344 32 16 32Z" fill="#0D1E30"/>
<g filter="url(#filter0_d_4646_29037)">
<path d="M15.7246 6.05995C16.2036 5.81295 16.7886 6.38395 16.5346 6.85495C16.3856 7.23895 15.8246 7.34095 15.5386 7.04795C15.2356 6.76795 15.3346 6.21195 15.7246 6.05895V6.05995ZM10.5696 6.60595C10.8606 6.48795 11.2296 6.74995 11.1996 7.06295C11.2296 7.40095 10.8096 7.65095 10.5126 7.48995C10.1196 7.33995 10.1646 6.71195 10.5696 6.60595ZM21.1276 7.49895C20.6726 7.44495 20.6006 6.74095 21.0376 6.59895C21.3776 6.43695 21.6896 6.74195 21.7396 7.05895C21.6676 7.32895 21.4376 7.57695 21.1276 7.49895ZM11.7426 8.76395C12.2296 8.46095 12.9236 8.91195 12.8486 9.46895C12.8236 10.0299 12.0656 10.3559 11.6376 9.97595C11.2236 9.67795 11.2866 8.99395 11.7426 8.76395ZM19.1726 9.08595C19.3896 8.53595 20.2696 8.51795 20.5166 9.05395C20.7616 9.47095 20.4606 9.98795 20.0256 10.1299C19.4486 10.2359 18.9016 9.62195 19.1726 9.08595ZM15.1036 10.0989C15.0986 9.62495 15.5366 9.27295 15.9936 9.23995C16.2976 9.29995 16.6276 9.42695 16.7576 9.72795C17.0006 10.1439 16.7846 10.7149 16.3476 10.9059C16.1476 11.0159 15.9096 10.9749 15.6916 10.9619C15.3586 10.8019 15.0776 10.4849 15.1036 10.0989ZM7.43756 10.7889C7.88256 10.5189 8.48256 11.0089 8.31356 11.4849C8.22156 11.8959 7.65956 12.0629 7.33856 11.8009C6.99556 11.5549 7.04956 10.9639 7.43856 10.7879L7.43756 10.7889ZM23.8996 10.7869C24.2766 10.4989 24.8996 10.8299 24.8536 11.2979C24.8796 11.7249 24.3406 12.0479 23.9666 11.8279C23.5546 11.6449 23.5116 11.0209 23.8996 10.7879V10.7869ZM17.2596 11.6379C17.8816 11.4179 18.6216 11.6809 18.9756 12.2279C19.4436 12.8949 19.1956 13.9109 18.4686 14.2939C17.7166 14.7469 16.6176 14.3639 16.3386 13.5359C16.0236 12.7959 16.4836 11.8699 17.2586 11.6379H17.2596ZM13.6066 11.7109C14.2966 11.3909 15.2256 11.6589 15.5586 12.3529C15.9506 13.0289 15.6476 13.9699 14.9466 14.3189C14.2446 14.7119 13.2536 14.4139 12.9146 13.6889C12.5336 12.9869 12.8716 12.0339 13.6066 11.7109ZM9.94956 12.9399C10.0026 12.5029 10.4216 12.2179 10.8446 12.1879C11.0652 12.2112 11.2713 12.3087 11.4294 12.4644C11.5874 12.62 11.6879 12.8247 11.7146 13.0449C11.6846 13.4949 11.3316 13.9329 10.8476 13.9309C10.3146 13.9759 9.84756 13.4539 9.94956 12.9399ZM20.7516 12.2839C21.2986 11.9709 22.0576 12.4259 22.0336 13.0439C22.0706 13.6989 21.2306 14.1599 20.6866 13.7759C20.1206 13.4559 20.1646 12.5559 20.7516 12.2839ZM12.1216 14.5909C12.7596 14.4179 13.4916 14.7139 13.8046 15.2919C14.1476 15.8739 14.0076 16.6819 13.4746 17.11C12.7896 17.736 11.5286 17.4839 11.1646 16.6299C10.7456 15.8469 11.2546 14.7969 12.1206 14.5899L12.1216 14.5909ZM19.0486 14.5879C19.6696 14.4129 20.3996 14.6479 20.7336 15.2049C21.1756 15.8419 20.9646 16.7929 20.3076 17.2029C19.6176 17.6799 18.5516 17.4299 18.1716 16.6839C17.7116 15.9129 18.1746 14.8229 19.0486 14.5879ZM8.00856 15.3139C8.56056 15.1089 9.17256 15.7079 8.94856 16.2469C8.81256 16.7369 8.10956 16.9189 7.74656 16.5569C7.32156 16.2169 7.47856 15.4619 8.00856 15.3139ZM22.9776 16.096C22.9672 15.8758 23.0442 15.6605 23.1917 15.4968C23.3393 15.3331 23.5455 15.2344 23.7656 15.2219C24.1436 15.2819 24.5116 15.582 24.4816 15.9869C24.5166 16.5219 23.8616 16.885 23.3976 16.634C23.1806 16.525 23.0696 16.306 22.9776 16.096ZM5.29356 15.5799C5.62556 15.4369 6.03656 15.7199 5.96056 16.0829C5.94256 16.4939 5.32556 16.6529 5.09956 16.3089C4.89956 16.0699 5.01956 15.7029 5.29356 15.5789V15.5799ZM26.2426 15.5709C26.4766 15.4079 26.8526 15.5249 26.9446 15.7939C27.1016 16.0879 26.8136 16.4899 26.4776 16.4409C26.0056 16.4829 25.8536 15.7759 26.2426 15.5709ZM13.9256 17.544C14.7996 17.321 15.7396 18.0379 15.7456 18.9239C15.8016 19.8189 14.8756 20.6119 13.9816 20.4059C13.2896 20.2959 12.7466 19.6399 12.7696 18.9529C12.7676 18.2949 13.2716 17.683 13.9256 17.544ZM17.3876 17.5429C18.2746 17.2989 19.2426 18.0289 19.2286 18.9349C19.2756 19.8129 18.3786 20.58 17.5026 20.405C16.6776 20.301 16.0696 19.4099 16.2996 18.6219C16.4156 18.0979 16.8616 17.6719 17.3876 17.5419V17.5429ZM10.7116 18.0879C11.3256 17.9849 11.9016 18.6579 11.6526 19.2319C11.4706 19.844 10.5666 20.0089 10.1666 19.5099C9.69856 19.03 10.0486 18.1539 10.7116 18.0879ZM20.8656 18.1149C21.4136 17.8889 22.0856 18.3549 22.0436 18.9399C22.0656 19.5829 21.2356 20.0269 20.7006 19.6509C20.0936 19.3139 20.2046 18.3209 20.8656 18.1149ZM23.7036 20.915C23.4896 20.522 23.8786 20.0009 24.3236 20.0739C24.5436 20.0699 24.6986 20.2409 24.8396 20.3849C24.8686 20.6179 24.9176 20.896 24.7206 21.075C24.4536 21.408 23.8486 21.313 23.7036 20.915ZM7.43556 20.183C7.85056 19.912 8.44756 20.3169 8.35356 20.7929C8.30356 21.2159 7.76356 21.4569 7.40856 21.2169C7.02656 20.9999 7.04056 20.3809 7.43556 20.183ZM15.6286 21.0659C16.1716 20.8309 16.8636 21.2959 16.8116 21.884C16.8516 22.534 15.9966 22.9839 15.4656 22.594C14.8756 22.259 14.9746 21.2729 15.6286 21.0659ZM11.8346 21.9369C12.2966 21.6979 12.9166 22.111 12.8746 22.621C12.8886 23.0389 12.4746 23.395 12.0546 23.333C11.7076 23.326 11.4816 23.019 11.3696 22.728C11.3756 22.411 11.5086 22.0579 11.8346 21.9379V21.9369ZM19.5206 21.9449C19.9966 21.6549 20.6726 22.0709 20.6276 22.615C20.6396 23.1849 19.8756 23.549 19.4326 23.1749C19.0046 22.882 19.0566 22.1779 19.5206 21.9449ZM20.8576 25.195C20.6456 24.881 20.8946 24.502 21.2376 24.43C21.5146 24.485 21.8076 24.69 21.7486 25.004C21.7086 25.431 21.0746 25.5609 20.8576 25.1959V25.195ZM10.2466 24.922C10.3306 24.672 10.5346 24.4249 10.8336 24.49C11.2686 24.52 11.3976 25.166 11.0166 25.365C10.6746 25.5919 10.2766 25.281 10.2466 24.922ZM15.3666 25.209C15.4496 24.8389 15.9346 24.66 16.2546 24.856C16.4666 24.946 16.5286 25.1779 16.5826 25.3759C16.554 25.4788 16.5273 25.5821 16.5026 25.686C16.3716 25.838 16.2026 25.9909 15.9846 25.986C15.5796 26.033 15.2136 25.5819 15.3656 25.209H15.3666Z" fill="black"/>
</g>
<path d="M15.7246 6.05995C16.2036 5.81295 16.7886 6.38395 16.5346 6.85495C16.3856 7.23895 15.8246 7.34095 15.5386 7.04795C15.2356 6.76795 15.3346 6.21195 15.7246 6.05895V6.05995ZM10.5696 6.60595C10.8606 6.48795 11.2296 6.74995 11.1996 7.06295C11.2296 7.40095 10.8096 7.65095 10.5126 7.48995C10.1196 7.33995 10.1646 6.71195 10.5696 6.60595ZM21.1276 7.49895C20.6726 7.44495 20.6006 6.74095 21.0376 6.59895C21.3776 6.43695 21.6896 6.74195 21.7396 7.05895C21.6676 7.32895 21.4376 7.57695 21.1276 7.49895ZM11.7426 8.76395C12.2296 8.46095 12.9236 8.91195 12.8486 9.46895C12.8236 10.0299 12.0656 10.3559 11.6376 9.97595C11.2236 9.67795 11.2866 8.99395 11.7426 8.76395ZM19.1726 9.08595C19.3896 8.53595 20.2696 8.51795 20.5166 9.05395C20.7616 9.47095 20.4606 9.98795 20.0256 10.1299C19.4486 10.2359 18.9016 9.62195 19.1726 9.08595ZM15.1036 10.0989C15.0986 9.62495 15.5366 9.27295 15.9936 9.23995C16.2976 9.29995 16.6276 9.42695 16.7576 9.72795C17.0006 10.1439 16.7846 10.7149 16.3476 10.9059C16.1476 11.0159 15.9096 10.9749 15.6916 10.9619C15.3586 10.8019 15.0776 10.4849 15.1036 10.0989ZM7.43756 10.7889C7.88256 10.5189 8.48256 11.0089 8.31356 11.4849C8.22156 11.8959 7.65956 12.0629 7.33856 11.8009C6.99556 11.5549 7.04956 10.9639 7.43856 10.7879L7.43756 10.7889ZM23.8996 10.7869C24.2766 10.4989 24.8996 10.8299 24.8536 11.2979C24.8796 11.7249 24.3406 12.0479 23.9666 11.8279C23.5546 11.6449 23.5116 11.0209 23.8996 10.7879V10.7869ZM17.2596 11.6379C17.8816 11.4179 18.6216 11.6809 18.9756 12.2279C19.4436 12.8949 19.1956 13.9109 18.4686 14.2939C17.7166 14.7469 16.6176 14.3639 16.3386 13.5359C16.0236 12.7959 16.4836 11.8699 17.2586 11.6379H17.2596ZM13.6066 11.7109C14.2966 11.3909 15.2256 11.6589 15.5586 12.3529C15.9506 13.0289 15.6476 13.9699 14.9466 14.3189C14.2446 14.7119 13.2536 14.4139 12.9146 13.6889C12.5336 12.9869 12.8716 12.0339 13.6066 11.7109ZM9.94956 12.9399C10.0026 12.5029 10.4216 12.2179 10.8446 12.1879C11.0652 12.2112 11.2713 12.3087 11.4294 12.4644C11.5874 12.62 11.6879 12.8247 11.7146 13.0449C11.6846 13.4949 11.3316 13.9329 10.8476 13.9309C10.3146 13.9759 9.84756 13.4539 9.94956 12.9399ZM20.7516 12.2839C21.2986 11.9709 22.0576 12.4259 22.0336 13.0439C22.0706 13.6989 21.2306 14.1599 20.6866 13.7759C20.1206 13.4559 20.1646 12.5559 20.7516 12.2839ZM12.1216 14.5909C12.7596 14.4179 13.4916 14.7139 13.8046 15.2919C14.1476 15.8739 14.0076 16.6819 13.4746 17.11C12.7896 17.736 11.5286 17.4839 11.1646 16.6299C10.7456 15.8469 11.2546 14.7969 12.1206 14.5899L12.1216 14.5909ZM19.0486 14.5879C19.6696 14.4129 20.3996 14.6479 20.7336 15.2049C21.1756 15.8419 20.9646 16.7929 20.3076 17.2029C19.6176 17.6799 18.5516 17.4299 18.1716 16.6839C17.7116 15.9129 18.1746 14.8229 19.0486 14.5879ZM8.00856 15.3139C8.56056 15.1089 9.17256 15.7079 8.94856 16.2469C8.81256 16.7369 8.10956 16.9189 7.74656 16.5569C7.32156 16.2169 7.47856 15.4619 8.00856 15.3139ZM22.9776 16.096C22.9672 15.8758 23.0442 15.6605 23.1917 15.4968C23.3393 15.3331 23.5455 15.2344 23.7656 15.2219C24.1436 15.2819 24.5116 15.582 24.4816 15.9869C24.5166 16.5219 23.8616 16.885 23.3976 16.634C23.1806 16.525 23.0696 16.306 22.9776 16.096ZM5.29356 15.5799C5.62556 15.4369 6.03656 15.7199 5.96056 16.0829C5.94256 16.4939 5.32556 16.6529 5.09956 16.3089C4.89956 16.0699 5.01956 15.7029 5.29356 15.5789V15.5799ZM26.2426 15.5709C26.4766 15.4079 26.8526 15.5249 26.9446 15.7939C27.1016 16.0879 26.8136 16.4899 26.4776 16.4409C26.0056 16.4829 25.8536 15.7759 26.2426 15.5709ZM13.9256 17.544C14.7996 17.321 15.7396 18.0379 15.7456 18.9239C15.8016 19.8189 14.8756 20.6119 13.9816 20.4059C13.2896 20.2959 12.7466 19.6399 12.7696 18.9529C12.7676 18.2949 13.2716 17.683 13.9256 17.544ZM17.3876 17.5429C18.2746 17.2989 19.2426 18.0289 19.2286 18.9349C19.2756 19.8129 18.3786 20.58 17.5026 20.405C16.6776 20.301 16.0696 19.4099 16.2996 18.6219C16.4156 18.0979 16.8616 17.6719 17.3876 17.5419V17.5429ZM10.7116 18.0879C11.3256 17.9849 11.9016 18.6579 11.6526 19.2319C11.4706 19.844 10.5666 20.0089 10.1666 19.5099C9.69856 19.03 10.0486 18.1539 10.7116 18.0879ZM20.8656 18.1149C21.4136 17.8889 22.0856 18.3549 22.0436 18.9399C22.0656 19.5829 21.2356 20.0269 20.7006 19.6509C20.0936 19.3139 20.2046 18.3209 20.8656 18.1149ZM23.7036 20.915C23.4896 20.522 23.8786 20.0009 24.3236 20.0739C24.5436 20.0699 24.6986 20.2409 24.8396 20.3849C24.8686 20.6179 24.9176 20.896 24.7206 21.075C24.4536 21.408 23.8486 21.313 23.7036 20.915ZM7.43556 20.183C7.85056 19.912 8.44756 20.3169 8.35356 20.7929C8.30356 21.2159 7.76356 21.4569 7.40856 21.2169C7.02656 20.9999 7.04056 20.3809 7.43556 20.183ZM15.6286 21.0659C16.1716 20.8309 16.8636 21.2959 16.8116 21.884C16.8516 22.534 15.9966 22.9839 15.4656 22.594C14.8756 22.259 14.9746 21.2729 15.6286 21.0659ZM11.8346 21.9369C12.2966 21.6979 12.9166 22.111 12.8746 22.621C12.8886 23.0389 12.4746 23.395 12.0546 23.333C11.7076 23.326 11.4816 23.019 11.3696 22.728C11.3756 22.411 11.5086 22.0579 11.8346 21.9379V21.9369ZM19.5206 21.9449C19.9966 21.6549 20.6726 22.0709 20.6276 22.615C20.6396 23.1849 19.8756 23.549 19.4326 23.1749C19.0046 22.882 19.0566 22.1779 19.5206 21.9449ZM20.8576 25.195C20.6456 24.881 20.8946 24.502 21.2376 24.43C21.5146 24.485 21.8076 24.69 21.7486 25.004C21.7086 25.431 21.0746 25.5609 20.8576 25.1959V25.195ZM10.2466 24.922C10.3306 24.672 10.5346 24.4249 10.8336 24.49C11.2686 24.52 11.3976 25.166 11.0166 25.365C10.6746 25.5919 10.2766 25.281 10.2466 24.922ZM15.3666 25.209C15.4496 24.8389 15.9346 24.66 16.2546 24.856C16.4666 24.946 16.5286 25.1779 16.5826 25.3759C16.554 25.4788 16.5273 25.5821 16.5026 25.686C16.3716 25.838 16.2026 25.9909 15.9846 25.986C15.5796 26.033 15.2136 25.5819 15.3656 25.209H15.3666Z" fill="white"/>
</g>
<defs>
<filter id="filter0_d_4646_29037" x="4" y="5.50037" width="23.9883" height="21.989" filterUnits="userSpaceOnUse" color-interpolation-filters="sRGB">
<feFlood flood-opacity="0" result="BackgroundImageFix"/>
<feColorMatrix in="SourceAlpha" type="matrix" values="0 0 0 0 0 0 0 0 0 0 0 0 0 0 0 0 0 0 127 0" result="hardAlpha"/>
<feOffset dy="0.5"/>
<feGaussianBlur stdDeviation="0.5"/>
<feColorMatrix type="matrix" values="0 0 0 0 0 0 0 0 0 0 0 0 0 0 0 0 0 0 0.204257 0"/>
<feBlend mode="normal" in2="BackgroundImageFix" result="effect1_dropShadow_4646_29037"/>
<feBlend mode="normal" in="SourceGraphic" in2="effect1_dropShadow_4646_29037" result="shape"/>
</filter>
<clipPath id="clip0_4646_29037">
<rect width="32" height="32" fill="white"/>
</clipPath>
</defs>
</svg>
