<svg width="32" height="32" viewBox="0 0 32 32" fill="none" xmlns="http://www.w3.org/2000/svg">
<g clip-path="url(#clip0_4646_28802)">
<path d="M16 32C24.8366 32 32 24.8366 32 16C32 7.16344 24.8366 0 16 0C7.16344 0 0 7.16344 0 16C0 24.8366 7.16344 32 16 32Z" fill="#FD7A3D"/>
<path d="M25.1951 19.4C25.9651 19.82 26.2221 20.786 25.7081 21.542C25.2811 22.298 24.2981 22.55 23.5281 22.13C23.2962 21.9963 23.1008 21.8076 22.959 21.5805C22.8172 21.3535 22.7335 21.0951 22.7151 20.828H18.7801L16.8981 24.019C16.8981 24.061 16.8551 24.103 16.8131 24.145C17.2401 24.397 17.5401 24.901 17.5401 25.447C17.5401 26.287 16.8131 27 15.9571 27C15.1021 27 14.3751 26.328 14.3751 25.447C14.3751 24.901 14.6751 24.439 15.1021 24.145C15.1021 24.103 15.0591 24.061 15.0161 24.019L13.1351 20.829H9.20015C9.15715 21.374 8.85815 21.836 8.38715 22.129C7.61715 22.549 6.63415 22.298 6.20615 21.542C5.77815 20.786 6.03515 19.821 6.80515 19.401C7.31815 19.107 7.87415 19.107 8.34515 19.359C8.38715 19.317 8.38715 19.233 8.43015 19.191L10.3551 16L8.47315 12.81C8.42785 12.7638 8.39784 12.7048 8.38715 12.641C7.91715 12.851 7.31815 12.893 6.84715 12.599C6.66594 12.499 6.50647 12.364 6.37804 12.2017C6.24961 12.0395 6.15479 11.8532 6.09912 11.6539C6.04345 11.4546 6.02804 11.2462 6.0538 11.0409C6.07956 10.8355 6.14597 10.6374 6.24915 10.458C6.67615 9.702 7.66015 9.45 8.43015 9.87C8.94315 10.164 9.20015 10.668 9.24315 11.172H13.2201L15.1021 7.981C15.1021 7.939 15.1451 7.897 15.1871 7.855C14.965 7.71801 14.7815 7.52646 14.6543 7.29857C14.527 7.07067 14.4602 6.81401 14.4601 6.553C14.4601 5.713 15.1871 5 16.0431 5C16.8981 5 17.6251 5.672 17.6251 6.553C17.6251 7.099 17.3251 7.561 16.8981 7.855C16.8981 7.897 16.9411 7.939 16.9841 7.981L18.8651 11.171H22.8001C22.8431 10.626 23.1421 10.164 23.6131 9.871C24.3831 9.451 25.3661 9.702 25.7941 10.458C25.8973 10.6374 25.9636 10.8356 25.9893 11.041C26.015 11.2464 25.9995 11.4548 25.9438 11.6541C25.888 11.8535 25.7931 12.0397 25.6645 12.2019C25.536 12.3641 25.3764 12.4991 25.1951 12.599C24.6821 12.893 24.1261 12.893 23.6551 12.641C23.6131 12.683 23.6131 12.767 23.5701 12.809L21.6881 16L23.5701 19.19C23.6154 19.2362 23.6455 19.2952 23.6561 19.359C24.1261 19.149 24.7251 19.107 25.1961 19.401L25.1951 19.4ZM18.0531 14.95C18.0531 14.069 17.3261 13.355 16.4281 13.355H14.3751C14.325 13.3543 14.2752 13.3636 14.2287 13.3823C14.1821 13.401 14.1397 13.4287 14.1039 13.4638C14.0681 13.499 14.0396 13.5408 14.0201 13.587C14.0006 13.6332 13.9904 13.6828 13.9901 13.733V18.267C13.9901 18.477 14.1611 18.645 14.3751 18.645H16.4281C17.3261 18.645 18.0531 17.931 18.0531 17.05C18.0531 16.672 17.9251 16.294 17.6681 16.042C17.8821 15.706 18.0531 15.37 18.0531 14.95Z" fill="white"/>
</g>
<defs>
<clipPath id="clip0_4646_28802">
<rect width="32" height="32" fill="white"/>
</clipPath>
</defs>
</svg>
