<svg width="32" height="32" viewBox="0 0 32 32" fill="none" xmlns="http://www.w3.org/2000/svg">
<g clip-path="url(#clip0_4646_28707)">
<path d="M16 32C24.8366 32 32 24.8366 32 16C32 7.16344 24.8366 0 16 0C7.16344 0 0 7.16344 0 16C0 24.8366 7.16344 32 16 32Z" fill="#FBB413"/>
<path d="M16.2276 21.8566C16.8914 21.8869 17.5537 21.7723 18.1686 21.5206C18.4126 21.4336 18.6456 21.3186 18.8636 21.1786C18.8829 21.1615 18.9056 21.1487 18.9302 21.1411C18.9548 21.1335 18.9808 21.1312 19.0063 21.1344C19.0319 21.1376 19.0565 21.1463 19.0784 21.1598C19.1004 21.1732 19.1192 21.1912 19.1336 21.2126L20.7126 22.8376C20.8256 22.9556 20.8216 22.9936 20.6866 23.0866C20.1382 23.4626 19.5424 23.7642 18.9146 23.9836C18.1378 24.2492 17.3261 24.3995 16.5056 24.4296C15.461 24.4834 14.4156 24.3406 13.4236 24.0086C12.5696 23.7126 11.7755 23.2662 11.0786 22.6906C10.4494 22.1701 9.89658 21.5634 9.43664 20.8886C9.17687 20.5206 8.95254 20.1289 8.76664 19.7186C8.62626 19.3941 8.49981 19.0638 8.38765 18.7286C8.20136 18.1133 8.08299 17.4796 8.03464 16.8386C7.98252 16.3679 7.98924 15.8926 8.05464 15.4236C8.10464 14.9596 8.18664 14.4996 8.29964 14.0466C8.48852 13.3542 8.76297 12.6881 9.11665 12.0636C9.87649 10.7486 10.9914 9.6742 12.3336 8.96358C12.843 8.68748 13.3808 8.46752 13.9376 8.30758C14.3893 8.17234 14.8532 8.0819 15.3226 8.03758C15.6842 7.99219 16.0494 7.98381 16.4126 8.01258C16.4776 8.01658 16.5426 8.01658 16.6066 8.01258C17.2016 8.0278 17.792 8.12127 18.3626 8.29058C18.8496 8.42058 19.3206 8.60458 19.7646 8.84258C20.2336 9.07458 20.6746 9.35658 21.0826 9.68458C21.1626 9.75558 21.2256 9.72258 21.2886 9.65458L22.2616 8.62758L23.6636 7.13758C23.8276 6.96058 23.8696 6.95558 24.0466 7.11558C24.5866 7.60258 25.0866 8.13358 25.5366 8.70358C26.1086 9.4138 26.5962 10.188 26.9896 11.0106C27.3046 11.6906 27.5636 12.3946 27.7646 13.1156C27.9336 13.7096 27.9876 14.3156 28.1186 14.9096C28.12 14.9209 28.12 14.9323 28.1186 14.9436C28.1186 15.4946 28.2406 16.0466 28.1816 16.5976C28.1146 17.2256 28.0806 17.8616 27.9496 18.4806C27.8386 19.0006 27.6976 19.5126 27.5296 20.0166C27.1164 21.2671 26.4972 22.4399 25.6976 23.4866C25.5756 23.6466 25.5376 23.6506 25.3976 23.4866C24.9356 23.0186 24.4726 22.5436 24.0046 22.0806C23.9076 21.9836 23.9206 21.9076 24.0046 21.8026C24.4976 21.1115 24.8971 20.3583 25.1926 19.5626C25.4576 18.8156 25.6396 18.0416 25.7356 17.2546C25.7936 16.6516 25.8056 16.0446 25.7736 15.4406C25.7595 15.0966 25.7184 14.7542 25.6506 14.4166C25.3955 13.0305 24.8346 11.7186 24.0086 10.5766C23.9206 10.4506 23.8106 10.3366 23.7306 10.2026C23.6506 10.0676 23.6426 10.1056 23.5666 10.1816C23.1206 10.6316 22.6616 11.0696 22.2276 11.5286C22.0766 11.6886 21.9036 11.8146 21.7606 11.9786C21.6176 12.1436 21.4446 12.2986 21.2846 12.4586L20.7966 12.9476C20.7206 13.0236 20.6616 12.9936 20.6106 12.9226C20.1974 12.3172 19.6661 11.8015 19.0486 11.4066C18.452 11.0223 17.7829 10.7643 17.0826 10.6486C16.5363 10.5646 15.9809 10.5575 15.4326 10.6276C14.7587 10.6996 14.1059 10.9057 13.5126 11.2336C12.8758 11.5833 12.3168 12.059 11.8696 12.6316C11.4804 13.1246 11.1799 13.6816 10.9816 14.2776C10.7584 14.9839 10.6573 15.7232 10.6826 16.4636C10.6737 17.7919 11.167 19.0746 12.0636 20.0546C12.6023 20.6503 13.2629 21.123 14.0006 21.4406C14.7006 21.7486 15.4636 21.8916 16.2276 21.8566Z" fill="white"/>
<path d="M25.0372 23.711L20.7772 19.374C20.6842 19.277 20.6072 19.274 20.5322 19.374C20.2312 19.8129 19.8665 20.2045 19.4502 20.536C19.3492 20.616 19.3492 20.679 19.4502 20.772C19.8332 21.155 20.2122 21.547 20.5912 21.93C21.0842 22.431 21.5762 22.932 22.0732 23.433C22.1612 23.521 22.1572 23.563 22.0732 23.639C21.8752 23.787 21.6812 23.939 21.4752 24.06C20.3953 24.8054 19.1697 25.3136 17.8792 25.551C17.3777 25.6647 16.8654 25.724 16.3512 25.728H16.1452C15.7812 25.753 15.4152 25.742 15.0552 25.694C14.6332 25.631 14.2372 25.58 13.8372 25.492C13.3303 25.3765 12.8344 25.2172 12.3552 25.016C11.541 24.6769 10.7772 24.2277 10.0852 23.681C9.40173 23.143 8.79185 22.5177 8.27116 21.821C7.72225 21.0911 7.28512 20.2836 6.97416 19.425C6.63345 18.5843 6.43964 17.6913 6.40116 16.785C6.39398 16.6894 6.39398 16.5935 6.40116 16.498V15.505C6.37819 15.3979 6.37819 15.2871 6.40116 15.18C6.40116 15.1 6.43516 15.025 6.44816 14.945C6.49016 14.572 6.55616 14.202 6.64616 13.837C6.76116 13.347 6.91416 12.867 7.10516 12.401C7.95279 10.3252 9.49448 8.60782 11.4672 7.54197C12.634 6.89424 13.9266 6.50543 15.2572 6.40197H15.5002C16.8854 6.31406 18.273 6.53258 19.5642 7.04197L19.9262 7.19297C20.4781 7.4377 21.0067 7.73226 21.5052 8.07297C21.5231 8.08934 21.5442 8.10176 21.5672 8.10943C21.5902 8.1171 21.6146 8.11985 21.6387 8.11749C21.6629 8.11513 21.6862 8.10773 21.7073 8.09575C21.7284 8.08377 21.7468 8.06749 21.7612 8.04797C22.2082 7.53797 22.6792 7.05397 23.1472 6.56597C23.2352 6.47297 23.2392 6.38897 23.1472 6.31297C21.6038 5.1907 19.8155 4.45169 17.9302 4.15697C17.3893 4.07102 16.8435 4.01891 16.2962 4.00097C15.4481 3.98755 14.6011 4.06669 13.7702 4.23697C13.2394 4.34245 12.7163 4.48309 12.2042 4.65797C11.2922 4.96297 10.4222 5.38097 9.61416 5.89997C8.64416 6.51997 7.76716 7.27197 7.00816 8.13597C5.9944 9.28645 5.21241 10.6219 4.70516 12.069C4.49316 12.681 4.32516 13.307 4.20416 13.943C4.11116 14.5 4.04816 15.063 4.01416 15.627C3.97983 16.2329 4.00797 16.8408 4.09816 17.441C4.16416 18.038 4.27816 18.628 4.43916 19.206C4.55316 19.597 4.66716 19.989 4.81416 20.368C5.10816 21.128 5.47716 21.858 5.91716 22.545C6.4645 23.3901 7.11037 24.1673 7.84116 24.86C8.31416 25.296 8.82116 25.693 9.35716 26.048C10.0752 26.539 10.8472 26.948 11.6572 27.265C12.4632 27.585 13.3042 27.813 14.1612 27.947C14.8042 28.043 15.4532 28.099 16.1032 28.115C16.5232 28.115 16.9452 28.048 17.3402 28.039C17.6402 28.017 17.9372 27.972 18.2292 27.905C18.5532 27.85 18.8732 27.765 19.1932 27.681C20.3899 27.3679 21.5275 26.8616 22.5612 26.182C23.4982 25.582 24.3482 24.857 25.0882 24.027C25.2102 23.887 25.2062 23.863 25.0382 23.711H25.0372Z" fill="white"/>
</g>
<defs>
<clipPath id="clip0_4646_28707">
<rect width="32" height="32" fill="white"/>
</clipPath>
</defs>
</svg>
