<svg width="32" height="32" viewBox="0 0 32 32" fill="none" xmlns="http://www.w3.org/2000/svg">
<g clip-path="url(#clip0_4646_28689)">
<path d="M16 32C24.8366 32 32 24.8366 32 16C32 7.16344 24.8366 0 16 0C7.16344 0 0 7.16344 0 16C0 24.8366 7.16344 32 16 32Z" fill="#3089F2"/>
<path d="M21.6273 17.878C21.2053 18.241 20.8272 18.564 20.4532 18.891C20.4112 18.928 20.3692 18.994 20.3692 19.047C20.3632 19.685 20.3652 20.322 20.3652 20.982C21.3263 20.576 21.8283 19.342 21.6273 17.878ZM20.4692 13.981C21.5402 13.343 21.6672 13.122 21.6712 11.856C21.6712 11.756 21.6742 11.657 21.6702 11.558C21.6243 10.395 20.8282 9.36797 19.7262 9.12197C18.7362 8.90197 17.7383 8.71897 16.7383 8.54997C16.2293 8.46297 15.7082 8.38897 15.1952 8.40597C14.5742 8.42597 14.0673 8.75197 13.6003 9.28397C14.7323 9.49497 15.7832 9.71197 16.8412 9.88397C18.2942 10.12 19.4033 10.849 20.0093 12.238C20.2443 12.777 20.3193 13.388 20.4692 13.981ZM11.6462 10.973C10.7862 11.507 10.3622 12.231 10.3492 13.131C10.3199 15.5609 10.3176 17.991 10.3422 20.421C10.3522 21.598 11.1293 22.607 12.2513 22.881C13.2113 23.115 14.1932 23.259 15.1652 23.447C15.7812 23.567 16.3913 23.749 17.0273 23.591C17.5473 23.461 18.0113 23.242 18.3773 22.728C17.2113 22.509 16.1163 22.268 15.0103 22.104C13.1172 21.823 11.6493 20.146 11.6473 18.194C11.6443 15.962 11.6462 13.731 11.6462 11.499V10.973ZM12.9843 10.622C12.9722 10.869 12.9543 11.053 12.9543 11.237C12.9513 13.483 12.9513 15.729 12.9543 17.975C12.9573 19.451 13.8492 20.511 15.2662 20.759C16.2902 20.939 17.3103 21.139 18.3323 21.329C18.4033 21.342 18.4753 21.349 18.5473 21.357C19.0323 21.411 19.0492 21.402 19.0522 20.916C19.0573 20.171 19.0322 19.426 19.0672 18.683C19.0772 18.463 19.1882 18.186 19.3472 18.045C20.1582 17.322 21.0002 16.635 21.8312 15.935C22.0572 15.745 22.2893 15.615 22.5933 15.762C22.9143 15.917 22.9983 16.185 22.9932 16.522C22.9812 17.366 22.9992 18.211 22.9732 19.053C22.9242 20.575 21.8202 22.073 20.4032 22.553C20.2832 22.5898 20.1718 22.6504 20.0756 22.7312C19.9794 22.8119 19.9004 22.9111 19.8433 23.023C18.9703 24.573 17.4742 25.171 15.8713 24.959C14.5573 24.784 13.2532 24.507 11.9552 24.229C10.2832 23.871 9.04825 22.315 9.02125 20.453C8.98525 17.947 8.99725 15.44 9.04025 12.935C9.06625 11.369 10.2303 9.91497 11.7063 9.43497C11.8705 9.3742 12.0094 9.25966 12.1003 9.10997C13.0903 7.39197 14.6982 6.69497 16.6092 7.12297C17.6692 7.35997 18.7482 7.51597 19.8142 7.73297C21.7062 8.11897 22.9703 9.68097 22.9953 11.647C23.0023 12.206 23.0063 12.765 22.9753 13.322C22.9663 13.499 22.8882 13.725 22.7622 13.836C21.8552 14.636 20.9373 15.424 19.9963 16.182C19.8512 16.299 19.5262 16.326 19.3643 16.239C19.2052 16.153 19.0712 15.874 19.0602 15.672C19.0212 15.005 19.0953 14.328 19.0303 13.665C18.9003 12.336 17.9953 11.458 16.6313 11.231C15.5473 11.051 14.4653 10.856 13.3822 10.67C13.2662 10.65 13.1483 10.641 12.9843 10.622Z" fill="white"/>
</g>
<defs>
<clipPath id="clip0_4646_28689">
<rect width="32" height="32" fill="white"/>
</clipPath>
</defs>
</svg>
