<svg width="32" height="32" viewBox="0 0 32 32" fill="none" xmlns="http://www.w3.org/2000/svg">
<g clip-path="url(#clip0_4646_28675)">
<path d="M16 32C24.8366 32 32 24.8366 32 16C32 7.16344 24.8366 0 16 0C7.16344 0 0 7.16344 0 16C0 24.8366 7.16344 32 16 32Z" fill="#598182"/>
<path fill-rule="evenodd" clip-rule="evenodd" d="M13.5486 25.4081C14.394 24.3157 15.2393 23.2234 16.0846 22.1311C17.0336 22.2791 17.9686 22.1951 18.8626 21.8071C19.1856 21.6671 19.4746 21.4491 19.7786 21.2651C19.8216 21.2391 19.8616 21.2051 19.8946 21.1801L22.9666 24.2181C22.7116 24.3881 22.4586 24.5721 22.1896 24.7301C21.1489 25.3334 20.0016 25.7306 18.8106 25.9001C18.1078 25.9986 17.3968 26.0254 16.6886 25.9801C15.621 25.931 14.5649 25.7386 13.5486 25.4081ZM12.5826 25.0321C12.2413 24.8795 11.9087 24.7079 11.5866 24.5181C9.9404 23.5641 8.6409 22.1105 7.87662 20.3681C7.47321 19.4593 7.20795 18.4953 7.08962 17.5081C6.99676 16.7424 6.97601 15.9696 7.02762 15.2001C7.15062 13.2251 7.75162 11.4101 8.96262 9.81305C10.0806 8.33905 11.5486 7.33005 13.2856 6.68305C14.1097 6.3703 14.9727 6.17179 15.8506 6.09305C16.5136 6.03605 17.1836 5.97905 17.8466 6.00805C18.2566 6.02505 18.6596 6.06505 19.0566 6.12805C18.1993 7.37273 17.342 8.61739 16.4846 9.86205C15.6269 9.93393 14.7996 10.214 14.0746 10.6781C12.7446 11.5221 11.9486 12.7381 11.5746 14.2381C11.4159 14.8701 11.3433 15.5206 11.3586 16.1721C11.3676 16.5141 11.3966 16.8491 11.4476 17.1761L11.1396 17.6231C10.8916 17.9831 11.1966 18.4591 11.6376 18.4011L11.7496 18.3871C12.0076 19.1161 12.3986 19.7971 12.9396 20.4221C13.2756 20.8081 13.6506 21.1321 14.0636 21.3921L12.6186 24.8831C12.5988 24.9308 12.5866 24.9815 12.5826 25.0331V25.0321ZM20.0256 6.33405C20.9159 6.57125 21.7597 6.957 22.5216 7.47505C22.6596 7.56905 22.7856 7.68005 22.9176 7.78305C22.9426 7.80205 22.9686 7.81905 23.0006 7.84105C22.9586 7.88905 22.9346 7.92105 22.9056 7.94905C21.9946 8.84705 21.0816 9.74205 20.1736 10.6431C20.0736 10.7431 20.0106 10.7591 19.8896 10.6731C19.5231 10.4125 19.1178 10.2114 18.6886 10.0771L19.9716 6.70205L20.0056 6.61505C20.0398 6.52539 20.0467 6.42765 20.0256 6.33405ZM16.3216 17.2821L11.5686 17.9031L19.4766 6.42005L19.5206 6.44005L16.4656 14.4711L22.0406 13.5911L13.1416 25.1011L13.0986 25.0711L16.3216 17.2821Z" fill="white"/>
</g>
<defs>
<clipPath id="clip0_4646_28675">
<rect width="32" height="32" fill="white"/>
</clipPath>
</defs>
</svg>
