<svg width="32" height="32" viewBox="0 0 32 32" fill="none" xmlns="http://www.w3.org/2000/svg">
<g clip-path="url(#clip0_4646_27828)">
<path d="M16 32C24.8366 32 32 24.8366 32 16C32 7.16344 24.8366 0 16 0C7.16344 0 0 7.16344 0 16C0 24.8366 7.16344 32 16 32Z" fill="#0576B4"/>
<path d="M24.498 19.219L23.439 18.556L25.749 18.529L25.797 18.503V18.528L26.751 18.518L25.132 21.152L24.987 19.882L17.623 23.945L14.83 20.216L7 24.342V23.402L15.073 19.149L17.865 22.878L24.499 19.219H24.498ZM14.386 18.314L11.326 19.925V9H14.386V18.314ZM23.039 18.795L19.979 20.495V9H23.039V18.795Z" fill="white"/>
<path opacity="0.5" d="M18.714 20.949L18.057 21.313L15.653 18.103V10H18.713V20.949H18.714ZM10.06 20.342L7 21.954V11.418H10.06V20.342Z" fill="white"/>
</g>
<defs>
<clipPath id="clip0_4646_27828">
<rect width="32" height="32" fill="white"/>
</clipPath>
</defs>
</svg>
