<svg width="32" height="32" viewBox="0 0 32 32" fill="none" xmlns="http://www.w3.org/2000/svg">
<g clip-path="url(#clip0_4646_27782)">
<path d="M16 32C24.8366 32 32 24.8366 32 16C32 7.16344 24.8366 0 16 0C7.16344 0 0 7.16344 0 16C0 24.8366 7.16344 32 16 32Z" fill="#71C800"/>
<path fill-rule="evenodd" clip-rule="evenodd" d="M25.8191 14.715C25.0321 14.752 24.2421 14.798 23.4551 14.77C22.7491 14.744 22.0461 14.627 21.3421 14.545C21.2694 14.5327 21.2013 14.5009 21.1451 14.453C19.9801 13.498 18.8351 12.521 17.8311 11.39C17.4651 10.977 17.1691 10.531 17.0031 9.98905C16.7801 9.25805 15.8431 8.97704 15.1491 9.40004C14.4211 9.84404 14.2961 10.877 14.9091 11.469C15.0177 11.5769 15.1519 11.6554 15.2991 11.697C15.8291 11.825 16.2391 12.141 16.6261 12.499C17.3201 13.14 17.9421 13.849 18.5461 14.575C18.7191 14.782 18.6311 15.022 18.3661 15.052C17.9561 15.1 17.5431 15.143 17.1301 15.16C16.3521 15.192 15.5731 15.223 14.7941 15.215C14.3591 15.21 13.9221 15.143 13.4911 15.071C13.2879 15.0314 13.0937 14.9548 12.9181 14.845C12.3391 14.498 11.7391 14.735 11.4051 15.077C11.2033 15.2838 11.0745 15.5507 11.0382 15.8373C11.002 16.1239 11.0602 16.4146 11.2041 16.665C11.4821 17.141 12.0301 17.419 12.5221 17.315C12.6641 17.285 12.8041 17.222 12.9301 17.149C13.2601 16.961 13.6181 16.873 13.9881 16.85C14.5821 16.814 15.1801 16.78 15.7751 16.794C16.5321 16.812 17.2891 16.879 18.0461 16.926C18.1491 16.933 18.2531 16.938 18.3551 16.954C18.6391 17 18.7211 17.227 18.5331 17.45C18.3071 17.718 18.0891 17.995 17.8451 18.245C17.3319 18.7711 16.8101 19.2888 16.2801 19.798C16.0396 20.0281 15.7415 20.1891 15.4171 20.264C14.7611 20.421 14.4371 21.054 14.5291 21.694C14.6211 22.33 15.1891 22.808 15.8321 22.809C16.4281 22.809 16.8861 22.491 17.0451 21.921C17.2081 21.335 17.5841 20.893 17.9761 20.462C18.9431 19.401 20.0301 18.468 21.1391 17.562C21.204 17.5094 21.2816 17.4749 21.3641 17.462C21.9251 17.389 22.4861 17.298 23.0491 17.263C23.6839 17.2219 24.3204 17.2132 24.9561 17.237C25.6191 17.264 26.2791 17.351 26.9591 17.414C26.9471 17.644 26.9441 17.84 26.9261 18.034C26.8041 19.294 26.4831 20.501 25.8901 21.622C24.4261 24.387 22.1681 26.118 19.1131 26.793C18.4284 26.9377 17.7299 27.0064 17.0301 26.998C16.2851 26.997 15.5401 27.004 14.7951 26.996C12.7301 26.974 10.8411 26.386 9.16014 25.182C7.13714 23.732 5.83014 21.785 5.26814 19.356C5.14186 18.8136 5.06686 18.2605 5.04414 17.704C4.99692 16.6527 4.98758 15.6 5.01614 14.548C5.07711 12.4389 5.81514 10.4053 7.12112 8.74798C8.4271 7.09065 10.2317 5.89754 12.2681 5.34504C13.082 5.12316 13.9216 5.00951 14.7651 5.00705C15.6291 5.00405 16.4921 4.99105 17.3551 5.01105C19.4211 5.05905 21.2981 5.68904 22.9581 6.92304C24.9431 8.39805 26.2061 10.355 26.7381 12.772C26.8671 13.352 26.9121 13.95 26.9991 14.569C26.5691 14.624 26.1961 14.697 25.8191 14.715Z" fill="white"/>
</g>
<defs>
<clipPath id="clip0_4646_27782">
<rect width="32" height="32" fill="white"/>
</clipPath>
</defs>
</svg>
