<svg width="32" height="32" viewBox="0 0 32 32" fill="none" xmlns="http://www.w3.org/2000/svg">
<g clip-path="url(#clip0_4646_27729)">
<path d="M16 32C24.8366 32 32 24.8366 32 16C32 7.16344 24.8366 0 16 0C7.16344 0 0 7.16344 0 16C0 24.8366 7.16344 32 16 32Z" fill="#E9570F"/>
<path d="M24.14 9.91405L25.747 8.32005C26.127 7.94405 26.048 7.25605 25.573 6.78505C25.098 6.31305 24.403 6.23605 24.024 6.61305L21.008 9.60305L20.905 9.70605L18.277 12.311C17.4035 11.6811 16.3351 11.3807 15.2612 11.4631C14.1874 11.5455 13.1773 12.0053 12.41 12.761C11.649 13.5149 11.1845 14.5172 11.1011 15.5851C11.0178 16.653 11.3212 17.7153 11.956 18.578L9.95004 20.5681C9.42972 19.8747 9.02794 19.0998 8.76104 18.2751C8.08804 16.2371 8.26904 14.005 9.36104 12.1651C11.064 9.29505 14.111 8.04705 16.999 8.41305C17.1445 8.43344 17.2925 8.42367 17.434 8.38435C17.5755 8.34504 17.7074 8.27701 17.8215 8.18452C17.9356 8.09203 18.0294 7.97705 18.0971 7.84673C18.1648 7.71641 18.2049 7.57356 18.215 7.42705C18.234 7.0909 18.1225 6.76041 17.9038 6.50444C17.6851 6.24847 17.376 6.08678 17.041 6.05305C14.14 5.75605 11.141 6.70305 8.92604 8.89905C5.25604 12.5371 5.04104 18.308 8.26604 22.237L6.42604 24.062C6.06304 24.4221 6.15304 25.097 6.62904 25.5681C7.10404 26.0391 7.78404 26.1301 8.14704 25.7701L10.128 23.806H10.129L11.561 22.386L11.564 22.382L13.886 20.0801C14.7117 20.4164 15.6179 20.5032 16.4924 20.3297C17.3669 20.1562 18.1713 19.7301 18.806 19.1041C19.4362 18.4806 19.8664 17.6836 20.0419 16.8146C20.2173 15.9457 20.13 15.0442 19.791 14.2251L22.425 11.6141C24.356 14.5221 23.973 18.548 21.315 21.182C20.5158 21.9783 19.5549 22.5938 18.4974 22.987C17.4399 23.3801 16.3104 23.5418 15.185 23.4611C14.9317 23.4465 14.6826 23.531 14.4904 23.6967C14.2982 23.8624 14.178 24.0963 14.155 24.3491L14.127 24.6691C14.1145 24.809 14.1304 24.9501 14.174 25.0837C14.2176 25.2173 14.2878 25.3407 14.3805 25.4463C14.4731 25.552 14.5863 25.6377 14.7131 25.6984C14.8398 25.759 14.9776 25.7932 15.118 25.799C16.5606 25.8765 18.0033 25.6498 19.3525 25.1336C20.7018 24.6175 21.9275 23.8235 22.95 22.803C26.547 19.236 26.963 13.7421 24.14 9.91305V9.91405ZM17.139 17.449C16.7312 17.8509 16.1816 18.0761 15.609 18.0761C15.0365 18.0761 14.4869 17.8509 14.079 17.449C13.8787 17.2506 13.7197 17.0143 13.6112 16.754C13.5027 16.4938 13.4469 16.2146 13.4469 15.9326C13.4469 15.6505 13.5027 15.3713 13.6112 15.1111C13.7197 14.8508 13.8787 14.6145 14.079 14.4161C14.4868 14.014 15.0364 13.7885 15.609 13.7885C16.1817 13.7885 16.7313 14.014 17.139 14.4161C17.3393 14.6145 17.4983 14.8508 17.6068 15.1111C17.7154 15.3713 17.7712 15.6505 17.7712 15.9326C17.7712 16.2146 17.7154 16.4938 17.6068 16.754C17.4983 17.0143 17.3393 17.2506 17.139 17.449Z" fill="white"/>
</g>
<defs>
<clipPath id="clip0_4646_27729">
<rect width="32" height="32" fill="white"/>
</clipPath>
</defs>
</svg>
