<svg width="32" height="32" viewBox="0 0 32 32" fill="none" xmlns="http://www.w3.org/2000/svg">
<g clip-path="url(#clip0_4646_27631)">
<path d="M16 32C24.8366 32 32 24.8366 32 16C32 7.16344 24.8366 0 16 0C7.16344 0 0 7.16344 0 16C0 24.8366 7.16344 32 16 32Z" fill="#242424"/>
<path d="M13.0601 23.874L15.7431 21.177L18.4371 23.874L16.7181 25.596C16.5902 25.7243 16.4382 25.826 16.2709 25.8955C16.1036 25.9649 15.9242 26.0006 15.7431 26.0006C15.562 26.0006 15.3826 25.9649 15.2153 25.8955C15.048 25.826 14.896 25.7243 14.7681 25.596L13.0601 23.874ZM20.0101 14.632L17.3181 11.935L20.0111 9.23802L22.7031 11.935L20.0101 14.632ZM19.3411 22.995L16.6481 20.298L23.8781 13.056L25.5961 14.777C26.1351 15.317 26.1351 16.19 25.5961 16.73L19.3411 22.995ZM11.9381 22.717L9.2461 20.02L16.4641 12.79L19.1561 15.487L11.9381 22.717ZM8.1161 18.917L6.3971 17.195C6.14039 16.9342 5.99759 16.5823 6.00003 16.2163C6.00247 15.8504 6.14994 15.5004 6.4101 15.243L8.1281 13.521L10.8211 16.219L8.1161 18.917ZM18.8831 8.12902L11.6531 15.367L8.9601 12.67L15.2151 6.40402C15.343 6.27576 15.495 6.174 15.6623 6.10456C15.8296 6.03513 16.009 5.99939 16.1901 5.99939C16.3712 5.99939 16.5506 6.03513 16.7179 6.10456C16.8852 6.174 17.0372 6.27576 17.1651 6.40402L18.8831 8.12902Z" fill="white"/>
</g>
<defs>
<clipPath id="clip0_4646_27631">
<rect width="32" height="32" fill="white"/>
</clipPath>
</defs>
</svg>
