<svg width="32" height="32" viewBox="0 0 32 32" fill="none" xmlns="http://www.w3.org/2000/svg">
<g clip-path="url(#clip0_4646_27549)">
<path d="M16 32C24.8366 32 32 24.8366 32 16C32 7.16344 24.8366 0 16 0C7.16344 0 0 7.16344 0 16C0 24.8366 7.16344 32 16 32Z" fill="#F68922"/>
<path d="M16.7201 10.078C16.7201 10.078 12.5931 10.684 11.9921 15.271C11.9921 15.271 11.3541 20.405 16.6001 21.791C16.9634 21.8865 17.3375 21.9345 17.7131 21.934H17.9711C18.5051 21.934 19.0171 22.148 19.3951 22.528C19.7731 22.908 19.9851 23.424 19.9851 23.962C19.9887 24.4713 19.7993 24.963 19.4549 25.3382C19.1105 25.7133 18.6368 25.9441 18.1291 25.984C15.5501 26.158 12.0891 24.892 9.84313 21.848C9.84313 21.848 5.44413 15.523 10.2381 9.71104C11.3694 8.32937 12.8445 7.26987 14.5151 6.63904C16.4851 5.90204 19.3711 5.42804 21.8761 7.39504C21.8761 7.39504 25.2291 9.99204 23.5101 14.232C23.5101 14.232 22.3061 17.607 18.1801 17.867L17.6071 17.835C17.3357 17.8279 17.069 17.7625 16.825 17.6433C16.581 17.5241 16.3656 17.3538 16.1931 17.144C16.0199 16.9334 15.8935 16.6883 15.8222 16.425C15.751 16.1617 15.7367 15.8863 15.7801 15.617C15.8494 15.1799 16.0688 14.7806 16.4005 14.4877C16.7323 14.1948 17.1558 14.0266 17.5981 14.012L18.1801 13.972C18.1801 13.972 20.1571 13.886 19.9851 11.549C19.9851 11.549 19.8131 9.47204 16.7191 10.079" fill="white"/>
</g>
<defs>
<clipPath id="clip0_4646_27549">
<rect width="32" height="32" fill="white"/>
</clipPath>
</defs>
</svg>
