<svg width="32" height="32" viewBox="0 0 32 32" fill="none" xmlns="http://www.w3.org/2000/svg">
<g clip-path="url(#clip0_4646_27454)">
<path d="M16 32C24.8366 32 32 24.8366 32 16C32 7.16344 24.8366 0 16 0C7.16344 0 0 7.16344 0 16C0 24.8366 7.16344 32 16 32Z" fill="#2D475B"/>
<path d="M12.8693 12.6851H23.9543V15.1731H12.8693V12.6851ZM23.9543 16.8291H24.0003V23.3721C24.0003 23.3721 15.3533 29.6371 8.63733 22.8201C8.63733 22.8201 4.95733 19.0881 6.29133 13.6521C6.29133 13.6521 7.34933 6.88105 15.3993 6.05205C15.3993 6.05205 20.3663 5.36005 23.5863 9.04605L21.6543 10.9341C21.6543 10.9341 17.5603 6.69605 12.0873 10.0141C12.0873 10.0141 7.62533 12.5011 9.46533 18.7661C9.46533 18.7661 11.4893 24.2021 17.8363 23.0961C17.8363 23.0961 19.9983 22.6041 21.1023 21.6521V19.3171H12.8703V16.8291H23.9543Z" fill="white"/>
</g>
<defs>
<clipPath id="clip0_4646_27454">
<rect width="32" height="32" fill="white"/>
</clipPath>
</defs>
</svg>
