<svg width="32" height="32" viewBox="0 0 32 32" fill="none" xmlns="http://www.w3.org/2000/svg">
<g clip-path="url(#clip0_4646_28671)">
<path d="M16 32C24.8366 32 32 24.8366 32 16C32 7.16344 24.8366 0 16 0C7.16344 0 0 7.16344 0 16C0 24.8366 7.16344 32 16 32Z" fill="#35A5F3"/>
<path d="M7.01921 7.02701C8.28921 5.70001 10.6092 5.64701 11.9202 6.93701C13.2902 8.27701 14.6462 9.62901 15.9882 10.994C17.4162 9.63701 18.7522 8.18901 20.1862 6.83801C21.5502 5.60601 23.8702 5.75501 25.0812 7.13501C26.3232 8.43701 26.3032 10.708 25.0142 11.972C23.6872 13.323 22.3432 14.654 21.0042 15.994C22.3722 17.403 23.7972 18.757 25.1542 20.184C26.3702 21.517 26.2542 23.789 24.9352 25.014C23.6382 26.324 21.3122 26.328 20.0172 25.012C18.6702 23.69 17.3522 22.336 16.0142 21.008C14.5862 22.382 13.2242 23.824 11.7812 25.184C10.3992 26.41 8.06921 26.227 6.87921 24.82C5.67921 23.521 5.70921 21.308 6.95921 20.05C8.13404 18.8472 9.32278 17.6582 10.5252 16.483L12.0322 17.988C10.8562 19.202 9.61921 20.364 8.46121 21.596C7.68021 22.396 8.36821 23.888 9.46521 23.87C10.1302 23.929 10.5892 23.378 11.0212 22.962C12.1682 21.794 13.3322 20.647 14.4792 19.479C11.9792 16.957 9.43921 14.47 6.95121 11.937C5.65321 10.629 5.69421 8.29701 7.02121 7.02701H7.01921ZM8.47221 10.417C9.79521 11.797 11.1692 13.128 12.5162 14.485C13.1662 13.827 13.8202 13.173 14.4782 12.522C13.1752 11.209 11.8772 9.88701 10.5562 8.59201C10.1352 8.13701 9.41521 7.96801 8.86621 8.29401C8.10221 8.66401 7.86121 9.80001 8.47121 10.417H8.47221ZM21.4122 8.62701C18.9262 11.067 16.4902 13.559 14.0172 16.011C14.6842 16.658 15.3492 17.307 16.0002 17.971C16.4992 17.479 16.9952 16.981 17.4922 16.483C17.9942 16.984 18.4932 17.488 18.9992 17.986C18.5082 18.486 18.0142 18.982 17.5152 19.476C18.8562 20.825 20.1712 22.199 21.5562 23.504C22.2592 24.244 23.6232 23.795 23.8262 22.82C24.0442 22.13 23.5482 21.533 23.0802 21.099C20.8768 18.9061 18.6781 16.7084 16.4842 14.506C16.9866 14.005 17.4869 13.502 17.9852 12.997C18.4852 13.495 18.9842 13.993 19.4952 14.483C20.8102 13.12 22.2042 11.833 23.4992 10.449C24.1522 9.81501 23.8912 8.60001 23.0572 8.25701C22.4972 7.96801 21.8142 8.17201 21.4112 8.62701H21.4122Z" fill="white"/>
</g>
<defs>
<clipPath id="clip0_4646_28671">
<rect width="32" height="32" fill="white"/>
</clipPath>
</defs>
</svg>
