<svg width="32" height="32" viewBox="0 0 32 32" fill="none" xmlns="http://www.w3.org/2000/svg">
<g clip-path="url(#clip0_4646_28310)">
<path d="M16 32C24.8366 32 32 24.8366 32 16C32 7.16344 24.8366 0 16 0C7.16344 0 0 7.16344 0 16C0 24.8366 7.16344 32 16 32Z" fill="#B2A3F6"/>
<path d="M13.447 12.287C12.687 12.287 12.072 11.686 12.072 10.945C12.072 10.204 12.687 9.60197 13.447 9.60197C14.206 9.60197 14.822 10.203 14.822 10.945C14.822 11.687 14.206 12.287 13.447 12.287ZM17.374 10.753C16.615 10.753 15.999 10.152 15.999 9.41097C15.999 8.66897 16.615 8.06797 17.374 8.06797C18.134 8.06797 18.749 8.66897 18.749 9.41097C18.749 10.152 18.134 10.753 17.374 10.753ZM18.947 19.958C18.187 19.958 17.572 19.358 17.572 18.616C17.572 17.874 18.187 17.273 18.947 17.273C19.706 17.273 20.322 17.874 20.322 18.616C20.322 19.358 19.706 19.958 18.947 19.958ZM5.787 18.04C5.68501 18.0413 5.58376 18.0225 5.48904 17.9846C5.39432 17.9468 5.30799 17.8907 5.23499 17.8194C5.16199 17.7482 5.10374 17.6632 5.06359 17.5695C5.02344 17.4757 5.00217 17.375 5.001 17.273C5.001 16.85 5.353 16.506 5.786 16.506C6.219 16.506 6.572 16.85 6.572 17.273C6.57083 17.375 6.54955 17.4757 6.50941 17.5695C6.46926 17.6632 6.41101 17.7482 6.33801 17.8194C6.26501 17.8907 6.17868 17.9468 6.08396 17.9846C5.98924 18.0225 5.88799 18.0413 5.786 18.04H5.787ZM7.947 23.028C7.87044 23.0289 7.79444 23.0147 7.72336 22.9863C7.65227 22.9578 7.58748 22.9157 7.53269 22.8622C7.47791 22.8087 7.43419 22.7449 7.40405 22.6745C7.3739 22.6042 7.35791 22.5285 7.357 22.452C7.357 22.134 7.621 21.877 7.947 21.877C8.273 21.877 8.537 22.134 8.537 22.452C8.53609 22.5285 8.5201 22.6042 8.48995 22.6745C8.45981 22.7449 8.41609 22.8087 8.36131 22.8622C8.30652 22.9157 8.24173 22.9578 8.17064 22.9863C8.09956 23.0147 8.02356 23.0289 7.947 23.028ZM14.232 26.863C13.906 26.863 13.642 26.605 13.642 26.287C13.642 25.969 13.906 25.712 14.232 25.712C14.558 25.712 14.822 25.969 14.822 26.287C14.822 26.605 14.558 26.863 14.232 26.863ZM24.447 23.411C24.121 23.411 23.857 23.153 23.857 22.835C23.857 22.517 24.121 22.259 24.447 22.259C24.772 22.259 25.037 22.517 25.037 22.835C25.037 23.153 24.772 23.411 24.447 23.411ZM18.161 22.261C18.0844 22.2619 18.0084 22.2477 17.9374 22.2193C17.8663 22.1908 17.8015 22.1487 17.7467 22.0952C17.6919 22.0417 17.6482 21.9779 17.618 21.9075C17.5879 21.8372 17.5719 21.7615 17.571 21.685C17.571 21.367 17.836 21.11 18.161 21.11C18.486 21.11 18.751 21.367 18.751 21.685C18.7501 21.7615 18.7341 21.8372 18.704 21.9075C18.6738 21.9779 18.6301 22.0417 18.5753 22.0952C18.5205 22.1487 18.4557 22.1908 18.3846 22.2193C18.3136 22.2477 18.2376 22.2619 18.161 22.261ZM21.697 19.576C21.371 19.576 21.107 19.318 21.107 19C21.107 18.682 21.371 18.425 21.697 18.425C22.022 18.425 22.287 18.682 22.287 19C22.287 19.318 22.022 19.576 21.697 19.576ZM17.572 26.863C17.138 26.863 16.786 26.519 16.786 26.096C16.786 25.673 17.138 25.329 17.572 25.329C18.005 25.329 18.357 25.672 18.357 26.096C18.357 26.52 18.005 26.863 17.572 26.863ZM21.107 17.273C21.0051 17.2742 20.9039 17.2553 20.8093 17.2174C20.7147 17.1795 20.6285 17.1233 20.5556 17.0521C20.4827 16.9808 20.4246 16.896 20.3845 16.8023C20.3444 16.7086 20.3232 16.6079 20.322 16.506C20.322 16.083 20.673 15.739 21.107 15.739C21.541 15.739 21.892 16.083 21.892 16.506C21.8908 16.6079 21.8696 16.7086 21.8295 16.8023C21.7894 16.896 21.7313 16.9808 21.6584 17.0521C21.5855 17.1233 21.4993 17.1795 21.4047 17.2174C21.3101 17.2553 21.2089 17.2742 21.107 17.273ZM22.287 24.945C22.185 24.9463 22.0838 24.9275 21.989 24.8896C21.8943 24.8518 21.808 24.7957 21.735 24.7244C21.662 24.6532 21.6037 24.5683 21.5636 24.4745C21.5234 24.3807 21.5022 24.28 21.501 24.178C21.501 23.754 21.853 23.411 22.286 23.411C22.72 23.411 23.072 23.754 23.072 24.178C23.0708 24.28 23.0496 24.3807 23.0094 24.4745C22.9693 24.5683 22.911 24.6532 22.838 24.7244C22.765 24.7957 22.6787 24.8518 22.584 24.8896C22.4892 24.9275 22.388 24.9463 22.286 24.945H22.287ZM6.766 21.11C6.224 21.11 5.784 20.68 5.784 20.151C5.784 19.622 6.224 19.193 6.766 19.193C7.308 19.193 7.748 19.623 7.748 20.151C7.748 20.679 7.308 21.11 6.766 21.11ZM16.196 24.945C15.436 24.945 14.821 24.344 14.821 23.602C14.821 22.86 15.436 22.259 16.196 22.259C16.955 22.259 17.571 22.861 17.571 23.602C17.571 24.343 16.955 24.945 16.196 24.945ZM8.731 18.425C7.971 18.425 7.356 17.823 7.356 17.082C7.356 16.341 7.971 15.739 8.731 15.739C9.491 15.739 10.106 16.34 10.106 17.082C10.106 17.824 9.49 18.425 8.731 18.425ZM16.196 21.492C15.653 21.492 15.213 21.063 15.213 20.534C15.213 20.005 15.653 19.576 16.196 19.576C16.738 19.576 17.178 20.005 17.178 20.534C17.178 21.063 16.738 21.492 16.196 21.492ZM11.481 13.056C11.155 13.056 10.891 12.798 10.891 12.48C10.891 12.162 11.155 11.904 11.481 11.904C11.807 11.904 12.071 12.162 12.071 12.48C12.071 12.798 11.807 13.056 11.481 13.056ZM15.213 15.356C14.563 15.356 14.035 14.841 14.035 14.206C14.035 13.57 14.563 13.054 15.213 13.054C15.863 13.054 16.391 13.57 16.391 14.205C16.391 14.841 15.864 15.357 15.213 15.357V15.356ZM17.963 16.506C17.8611 16.5072 17.7599 16.4883 17.6653 16.4504C17.5707 16.4125 17.4845 16.3563 17.4116 16.2851C17.3387 16.2138 17.2806 16.129 17.2405 16.0353C17.2004 15.9416 17.1792 15.8409 17.178 15.739C17.178 15.316 17.529 14.972 17.963 14.972C18.397 14.972 18.748 15.316 18.748 15.739C18.7468 15.8409 18.7256 15.9416 18.6855 16.0353C18.6454 16.129 18.5873 16.2138 18.5144 16.2851C18.4415 16.3563 18.3553 16.4125 18.2607 16.4504C18.166 16.4883 18.0649 16.5072 17.963 16.506ZM19.338 6.91797C19.012 6.91797 18.748 6.66097 18.748 6.34297C18.748 6.02497 19.012 5.76697 19.338 5.76697C19.664 5.76697 19.928 6.02497 19.928 6.34297C19.928 6.66097 19.664 6.91797 19.338 6.91797ZM16.588 6.91697C16.4605 6.91855 16.334 6.895 16.2156 6.84765C16.0973 6.8003 15.9894 6.73008 15.8982 6.64101C15.807 6.55195 15.7343 6.44578 15.6841 6.32858C15.634 6.21137 15.6074 6.08544 15.606 5.95797C15.6076 5.83058 15.6342 5.70475 15.6844 5.58766C15.7346 5.47058 15.8074 5.36453 15.8986 5.27557C15.9898 5.1866 16.0976 5.11648 16.2159 5.06919C16.3342 5.0219 16.4606 4.99838 16.588 4.99997C16.7155 4.99825 16.842 5.02167 16.9604 5.0689C17.0788 5.11613 17.1868 5.18623 17.2781 5.27521C17.3694 5.36418 17.4422 5.47028 17.4925 5.58743C17.5428 5.70458 17.5694 5.8305 17.571 5.95797C17.5696 6.08552 17.543 6.21154 17.4928 6.32881C17.4426 6.44608 17.3697 6.55229 17.2784 6.64137C17.1871 6.73045 17.0791 6.80064 16.9607 6.84794C16.8422 6.89523 16.7156 6.91868 16.588 6.91697ZM17.178 13.054C16.744 13.054 16.393 12.711 16.393 12.287C16.393 11.863 16.744 11.52 17.178 11.52C17.612 11.52 17.963 11.864 17.963 12.287C17.963 12.71 17.612 13.054 17.178 13.054ZM9.713 21.494C9.063 21.494 8.535 20.979 8.535 20.343C8.535 19.707 9.063 19.192 9.713 19.192C10.363 19.192 10.891 19.707 10.891 20.342C10.891 20.979 10.364 21.494 9.713 21.494ZM21.106 22.644C20.456 22.644 19.928 22.128 19.928 21.492C19.928 20.857 20.455 20.342 21.106 20.342C21.757 20.342 22.284 20.857 22.284 21.492C22.284 22.128 21.756 22.644 21.106 22.644ZM19.536 25.329C18.885 25.329 18.357 24.813 18.357 24.178C18.357 23.542 18.885 23.026 19.535 23.026C20.185 23.026 20.713 23.542 20.713 24.178C20.713 24.813 20.186 25.328 19.535 25.328L19.536 25.329ZM10.303 25.329C9.543 25.329 8.928 24.728 8.928 23.986C8.928 23.244 9.544 22.644 10.303 22.644C11.062 22.644 11.678 23.244 11.678 23.986C11.678 24.728 11.062 25.329 10.303 25.329ZM6.178 15.357C5.528 15.357 5 14.841 5 14.205C5 13.57 5.527 13.055 6.178 13.055C6.829 13.055 7.356 13.57 7.356 14.205C7.356 14.841 6.828 15.357 6.178 15.357Z" fill="white"/>
<path opacity="0.5" d="M12.499 17.124C11.631 17.124 10.927 16.438 10.927 15.59C10.927 14.743 11.631 14.056 12.5 14.056C13.369 14.056 14.072 14.743 14.072 15.59C14.072 16.438 13.368 17.124 12.5 17.124H12.499ZM20.749 14.824C19.881 14.824 19.177 14.137 19.177 13.289C19.177 12.442 19.881 11.755 20.75 11.755C21.618 11.755 22.322 12.442 22.322 13.289C22.322 14.137 21.618 14.823 20.75 14.823L20.749 14.824ZM25.07 21.345C24.42 21.345 23.892 20.83 23.892 20.194C23.892 19.558 24.42 19.043 25.07 19.043C25.72 19.043 26.248 19.558 26.248 20.193C26.248 20.83 25.721 21.345 25.07 21.345ZM26.25 16.742C26.097 16.7437 25.9452 16.7153 25.8032 16.6583C25.6612 16.6013 25.5318 16.517 25.4224 16.41C25.313 16.303 25.2258 16.1755 25.1656 16.0348C25.1055 15.8942 25.0737 15.743 25.072 15.59C25.072 14.955 25.599 14.44 26.25 14.44C26.9 14.44 27.427 14.955 27.427 15.59C27.427 16.226 26.9 16.742 26.25 16.742ZM21.732 11.372C21.6044 11.3736 21.4778 11.35 21.3594 11.3026C21.241 11.2552 21.1331 11.1849 21.0419 11.0957C20.9507 11.0065 20.8779 10.9002 20.8278 10.7829C20.7778 10.6656 20.7513 10.5396 20.75 10.412C20.7516 10.2846 20.7782 10.1588 20.8284 10.0417C20.8786 9.92461 20.9514 9.81856 21.0426 9.7296C21.1338 9.64064 21.2416 9.57051 21.3599 9.52322C21.4782 9.47594 21.6046 9.45241 21.732 9.454C21.8595 9.45241 21.986 9.47597 22.1044 9.52332C22.2227 9.57067 22.3306 9.64089 22.4218 9.72995C22.513 9.81902 22.5857 9.92519 22.6359 10.0424C22.686 10.1596 22.7126 10.2855 22.714 10.413C22.7124 10.5404 22.6858 10.6662 22.6356 10.7833C22.5854 10.9004 22.5126 11.0064 22.4214 11.0954C22.3302 11.1844 22.2224 11.2545 22.1041 11.3018C21.9858 11.3491 21.8594 11.3726 21.732 11.371V11.372ZM21.927 8.303C21.494 8.303 21.142 7.96 21.142 7.536C21.142 7.112 21.494 6.769 21.927 6.769C22.361 6.769 22.713 7.113 22.713 7.536C22.713 7.959 22.361 8.303 21.927 8.303ZM23.695 9.07C23.369 9.07 23.105 8.812 23.105 8.495C23.105 8.178 23.369 7.919 23.695 7.919C24.021 7.919 24.285 8.177 24.285 8.495C24.285 8.813 24.021 9.07 23.695 9.07ZM26.839 13.674C26.514 13.674 26.249 13.416 26.249 13.098C26.249 12.78 26.514 12.522 26.839 12.522C27.164 12.522 27.429 12.78 27.429 13.098C27.429 13.416 27.165 13.674 26.839 13.674ZM9.945 8.687C9.619 8.687 9.355 8.43 9.355 8.112C9.355 7.794 9.619 7.536 9.945 7.536C10.271 7.536 10.535 7.794 10.535 8.112C10.535 8.43 10.271 8.687 9.945 8.687ZM9.16 13.674C8.834 13.674 8.57 13.416 8.57 13.098C8.57 12.78 8.834 12.522 9.16 12.522C9.486 12.522 9.75 12.78 9.75 13.098C9.75 13.416 9.486 13.674 9.16 13.674ZM10.732 14.441C10.406 14.441 10.142 14.183 10.142 13.865C10.142 13.547 10.406 13.289 10.732 13.289C11.058 13.289 11.322 13.547 11.322 13.865C11.322 14.183 11.058 14.441 10.732 14.441ZM12.695 7.151C12.369 7.151 12.105 6.893 12.105 6.575C12.105 6.257 12.369 6 12.695 6C13.021 6 13.285 6.257 13.285 6.575C13.285 6.893 13.021 7.151 12.695 7.151ZM26.839 18.66C26.514 18.66 26.249 18.402 26.249 18.084C26.249 17.766 26.514 17.509 26.839 17.509C27.164 17.509 27.429 17.766 27.429 18.084C27.429 18.402 27.165 18.66 26.839 18.66ZM24.875 12.522C24.115 12.522 23.5 11.922 23.5 11.18C23.5 10.438 24.115 9.837 24.875 9.837C25.634 9.837 26.25 10.438 26.25 11.18C26.25 11.921 25.634 12.522 24.875 12.522ZM23.695 15.59C23.5676 15.5916 23.4412 15.5681 23.3229 15.5208C23.2046 15.4735 23.0968 15.4034 23.0056 15.3144C22.9144 15.2254 22.8416 15.1194 22.7914 15.0023C22.7412 14.8852 22.7146 14.7594 22.713 14.632C22.713 14.102 23.153 13.674 23.695 13.674C23.8224 13.6724 23.9488 13.6959 24.0671 13.7432C24.1854 13.7905 24.2932 13.8606 24.3844 13.9496C24.4756 14.0386 24.5484 14.1446 24.5986 14.2617C24.6488 14.3788 24.6754 14.5046 24.677 14.632C24.6754 14.7594 24.6488 14.8852 24.5986 15.0023C24.5484 15.1194 24.4756 15.2254 24.3844 15.3144C24.2932 15.4034 24.1854 15.4735 24.0671 15.5208C23.9488 15.5681 23.8224 15.5916 23.695 15.59ZM10.339 11.371C10.2116 11.3726 10.0852 11.3491 9.96687 11.3018C9.84858 11.2545 9.74076 11.1844 9.64957 11.0954C9.55838 11.0064 9.48561 10.9004 9.43541 10.7833C9.38521 10.6662 9.35857 10.5404 9.357 10.413C9.357 9.883 9.797 9.454 10.339 9.454C10.881 9.454 11.322 9.884 11.322 10.413C11.3204 10.5405 11.2938 10.6664 11.2435 10.7835C11.1932 10.9007 11.1204 11.0068 11.0291 11.0958C10.9378 11.1847 10.8298 11.2548 10.7114 11.3021C10.593 11.3493 10.4665 11.3727 10.339 11.371ZM14.659 8.686C14.5316 8.68759 14.4052 8.66406 14.2869 8.61678C14.1686 8.56949 14.0608 8.49936 13.9696 8.4104C13.8784 8.32144 13.8056 8.21539 13.7554 8.0983C13.7052 7.98121 13.6786 7.85538 13.677 7.728C13.677 7.198 14.117 6.769 14.66 6.769C15.203 6.769 15.642 7.199 15.642 7.728C15.6404 7.85538 15.6138 7.98121 15.5636 8.0983C15.5134 8.21539 15.4406 8.32144 15.3494 8.4104C15.2582 8.49936 15.1504 8.56949 15.0321 8.61678C14.9138 8.66406 14.7874 8.68759 14.66 8.686H14.659ZM12.107 9.07C11.673 9.07 11.322 8.727 11.322 8.303C11.322 7.879 11.673 7.536 12.107 7.536C12.541 7.536 12.892 7.88 12.892 8.303C12.892 8.726 12.541 9.07 12.107 9.07ZM7.785 12.138C7.68309 12.1392 7.58195 12.1203 7.48734 12.0824C7.39274 12.0445 7.30653 11.9883 7.23363 11.9171C7.16074 11.8459 7.10259 11.761 7.0625 11.6673C7.02241 11.5736 7.00118 11.4729 7 11.371C7 10.948 7.351 10.604 7.785 10.604C8.219 10.604 8.57 10.948 8.57 11.371C8.56882 11.4729 8.54759 11.5736 8.5075 11.6673C8.46741 11.761 8.40926 11.8459 8.33637 11.9171C8.26347 11.9883 8.17726 12.0445 8.08266 12.0824C7.98805 12.1203 7.88691 12.1392 7.785 12.138ZM24.285 18.276C24.1831 18.2772 24.0819 18.2583 23.9873 18.2204C23.8927 18.1825 23.8065 18.1263 23.7336 18.0551C23.6607 17.9839 23.6026 17.899 23.5625 17.8053C23.5224 17.7116 23.5012 17.6109 23.5 17.509C23.5 17.085 23.851 16.742 24.285 16.742C24.719 16.742 25.07 17.085 25.07 17.509C25.0688 17.6109 25.0476 17.7116 25.0075 17.8053C24.9674 17.899 24.9093 17.9839 24.8364 18.0551C24.7635 18.1263 24.6773 18.1825 24.5827 18.2204C24.4881 18.2583 24.3869 18.2772 24.285 18.276ZM15.839 18.66C15.079 18.66 14.464 18.059 14.464 17.317C14.464 16.575 15.08 15.975 15.839 15.975C16.599 15.975 17.214 16.575 17.214 17.317C17.214 18.059 16.599 18.66 15.839 18.66ZM13.285 19.427C13.1831 19.4282 13.0819 19.4093 12.9873 19.3714C12.8927 19.3335 12.8065 19.2773 12.7336 19.2061C12.6607 19.1349 12.6026 19.05 12.5625 18.9563C12.5224 18.8626 12.5012 18.7619 12.5 18.66C12.5 18.236 12.851 17.893 13.285 17.893C13.719 17.893 14.07 18.236 14.07 18.66C14.0688 18.7619 14.0476 18.8626 14.0075 18.9563C13.9674 19.05 13.9093 19.1349 13.8364 19.2061C13.7635 19.2773 13.6773 19.3335 13.5827 19.3714C13.4881 19.4093 13.3869 19.4282 13.285 19.427ZM13.677 22.495C13.027 22.495 12.5 21.979 12.5 21.343C12.5 20.708 13.027 20.193 13.677 20.193C14.327 20.193 14.855 20.708 14.855 21.343C14.855 21.979 14.328 22.495 13.677 22.495ZM13.677 24.795C13.4714 24.7974 13.2732 24.7181 13.126 24.5744C12.9788 24.4308 12.8946 24.2346 12.892 24.029C12.892 23.605 13.244 23.262 13.677 23.262C14.11 23.262 14.463 23.605 14.463 24.029C14.4618 24.131 14.4406 24.2318 14.4004 24.3255C14.3603 24.4193 14.302 24.5042 14.229 24.5755C14.156 24.6467 14.0697 24.7028 13.975 24.7407C13.8802 24.7785 13.779 24.7973 13.677 24.796V24.795Z" fill="white"/>
</g>
<defs>
<clipPath id="clip0_4646_28310">
<rect width="32" height="32" fill="white"/>
</clipPath>
</defs>
</svg>
