<svg width="32" height="32" viewBox="0 0 32 32" fill="none" xmlns="http://www.w3.org/2000/svg">
<g clip-path="url(#clip0_4646_28631)">
<path d="M16 32C24.8367 32 32 24.8367 32 16C32 7.16333 24.8367 0 16 0C7.16333 0 0 7.16333 0 16C0 24.8367 7.16333 32 16 32Z" fill="#2B6680"/>
<path d="M5.00002 16C4.99441 18.9174 6.14795 21.7175 8.20688 23.7844C10.2658 25.8512 13.0615 27.0155 15.9789 27.0212C18.8962 27.0268 21.6964 25.8732 23.7632 23.8143C25.8301 21.7554 26.9944 18.9597 27 16.0423V15.958C26.9962 15.1113 26.8953 14.2679 26.699 13.4443C26.6657 13.291 26.6021 13.1458 26.512 13.0173C26.4219 12.8888 26.3071 12.7796 26.1742 12.696C26.0414 12.6125 25.8932 12.5562 25.7384 12.5306C25.5836 12.505 25.4252 12.5106 25.2725 12.5469C25.1199 12.5833 24.976 12.6498 24.8493 12.7424C24.7227 12.835 24.6157 12.952 24.5348 13.0865C24.4539 13.221 24.4006 13.3702 24.3781 13.5255C24.3556 13.6808 24.3643 13.8391 24.4037 13.991C24.8421 15.8222 24.6707 17.7465 23.9154 19.4713C23.1602 21.1961 21.8624 22.6272 20.2194 23.547C18.5763 24.4668 16.6779 24.825 14.8127 24.5671C12.9475 24.3092 11.2175 23.4494 9.88568 22.1183C8.55385 20.7873 7.69304 19.0577 7.4341 17.1927C7.17515 15.3276 7.53224 13.429 8.45108 11.7855C9.36991 10.1419 10.8003 8.84332 12.5247 8.08707C14.2491 7.33082 16.1732 7.15827 18.0047 7.59566C18.3065 7.66124 18.6221 7.60584 18.8835 7.44136C19.145 7.27688 19.3315 7.01643 19.4031 6.71594C19.4747 6.41545 19.4255 6.09888 19.2663 5.83421C19.107 5.56953 18.8504 5.37785 18.5514 5.30032C16.9352 4.91469 15.2526 4.90025 13.63 5.25809C12.0074 5.61592 10.487 6.33673 9.18294 7.36639C7.87886 8.39604 6.82502 9.70778 6.10055 11.2031C5.37608 12.6984 4.99982 14.3384 5.00002 16Z" fill="white"/>
<path d="M21.6326 7.50874C21.6166 7.52374 21.6062 7.5414 21.5912 7.5574C21.323 7.84171 21.1584 8.20807 21.1239 8.5974V8.7844C21.1239 8.82774 21.1146 8.8694 21.1099 8.9124C21.0638 9.37805 20.9142 9.82752 20.6722 10.228C20.4301 10.6284 20.1016 10.9697 19.7108 11.227C19.3199 11.4843 18.8765 11.651 18.413 11.7149C17.9495 11.7789 17.4775 11.7385 17.0316 11.5967C16.3803 11.438 15.6998 11.4435 15.0512 11.6128C14.4025 11.7821 13.8062 12.1099 13.3156 12.5667C13.2756 12.6041 13.2316 12.6357 13.1922 12.6751C12.4289 13.4384 12 14.4736 12 15.5531C12 16.6326 12.4288 17.6679 13.1921 18.4312C13.9554 19.1946 14.9906 19.6234 16.0701 19.6235C17.1496 19.6235 18.1849 19.1947 18.9482 18.4314C19.1166 18.2607 19.2692 18.0747 19.4042 17.8764C19.7328 17.4059 19.9582 16.8713 20.0655 16.3075C20.1728 15.7438 20.1597 15.1637 20.0269 14.6054C20.0042 14.5323 19.9842 14.4583 19.9669 14.3837C19.9669 14.3727 19.9602 14.3624 19.9576 14.3511C19.8562 13.9121 19.8505 13.4564 19.9407 13.015C20.031 12.5736 20.215 12.1567 20.4805 11.7927C20.746 11.4287 21.0866 11.126 21.4793 10.9051C21.872 10.6843 22.3076 10.5505 22.7566 10.5127C22.7799 10.5127 22.8026 10.5061 22.8259 10.5054C22.8922 10.5054 22.9586 10.4977 23.0249 10.4977H23.0409C23.4473 10.4603 23.8277 10.2814 24.1156 9.99207C24.1839 9.9214 24.2462 9.84507 24.3022 9.76407C24.5551 9.40562 24.6644 8.96541 24.6086 8.5303C24.5528 8.0952 24.336 7.69681 24.0008 7.41378C23.6657 7.13075 23.2366 6.98362 22.7983 7.00145C22.36 7.01928 21.9443 7.20075 21.6332 7.51007" fill="white"/>
</g>
<defs>
<clipPath id="clip0_4646_28631">
<rect width="32" height="32" fill="white"/>
</clipPath>
</defs>
</svg>
