<svg width="32" height="32" viewBox="0 0 32 32" fill="none" xmlns="http://www.w3.org/2000/svg">
<g clip-path="url(#clip0_4646_28557)">
<path d="M16 32C24.8366 32 32 24.8366 32 16C32 7.16344 24.8366 0 16 0C7.16344 0 0 7.16344 0 16C0 24.8366 7.16344 32 16 32Z" fill="#033B4A"/>
<path d="M15.5325 7.06397C16.0895 6.90097 16.6805 7.06697 17.1615 7.35797C19.3066 8.58659 21.4613 9.7983 23.6255 10.993C24.4585 11.434 25.0125 12.339 25.0005 13.273C24.9985 16.367 24.9905 19.463 24.9955 22.557C25.0295 22.772 24.8835 23.017 24.6395 22.995C23.6785 23.001 22.7175 22.997 21.7565 22.996C21.5465 23.027 21.3445 22.851 21.3665 22.638C21.2745 20.003 21.3095 17.365 21.3365 14.728C21.3365 14.398 21.2725 14.05 21.0595 13.783C20.8435 13.5 20.5025 13.355 20.1975 13.187C19.6975 12.925 19.2265 12.608 18.7085 12.379C18.5125 12.301 18.2575 12.217 18.0725 12.366C17.8675 12.559 17.8695 12.864 17.8485 13.124C17.8107 14.417 17.807 15.7108 17.8375 17.004C17.8365 17.31 17.8465 17.666 17.6125 17.904C17.3735 18.138 17.0125 18.142 16.6985 18.147C16.1305 18.141 15.5625 18.162 14.9965 18.134C14.7565 18.108 14.4685 18.094 14.3125 17.884C14.1725 17.677 14.1785 17.416 14.1665 17.178C14.1635 15.819 14.1805 14.459 14.1665 13.101C14.1525 12.861 14.1565 12.591 13.9865 12.401C13.8235 12.233 13.5635 12.288 13.3675 12.359C12.9425 12.525 12.5615 12.779 12.1585 12.989C11.7555 13.221 11.3225 13.419 10.9765 13.735C10.7515 13.94 10.6915 14.252 10.6845 14.54C10.6795 17.21 10.6875 19.878 10.6645 22.548C10.6875 22.75 10.5675 22.996 10.3315 22.992C9.34151 23.004 8.35151 22.997 7.36151 22.995C7.16351 23.014 6.98151 22.84 7.00151 22.643C7.04151 19.398 7.01651 16.152 7.01951 12.906C7.01021 12.5666 7.09461 12.2311 7.26343 11.9365C7.43225 11.6419 7.67897 11.3996 7.97651 11.236C10.2315 9.97197 12.4905 8.71597 14.7365 7.43697C14.9905 7.29297 15.2465 7.14197 15.5325 7.06397Z" fill="white"/>
</g>
<defs>
<clipPath id="clip0_4646_28557">
<rect width="32" height="32" fill="white"/>
</clipPath>
</defs>
</svg>
