<svg width="32" height="32" viewBox="0 0 32 32" fill="none" xmlns="http://www.w3.org/2000/svg">
<g clip-path="url(#clip0_4646_29453)">
<path d="M16 32C24.8366 32 32 24.8366 32 16C32 7.16344 24.8366 0 16 0C7.16344 0 0 7.16344 0 16C0 24.8366 7.16344 32 16 32Z" fill="#00316D"/>
<path d="M18.1558 19.887C18.1428 19.863 18.1408 19.853 18.1358 19.85C17.5158 19.557 16.8958 19.263 16.2738 18.974C16.2408 18.958 16.1738 18.962 16.1528 18.985C15.8828 19.275 15.6188 19.572 15.3508 19.869C15.5448 20.012 17.9938 20.013 18.1558 19.887ZM12.4818 12.724L12.4198 12.594C12.3678 12.631 12.2998 12.658 12.2658 12.708C11.693 13.5603 11.1236 14.4149 10.5578 15.272C10.5228 15.326 10.5248 15.405 10.5078 15.472C10.5778 15.458 10.6558 15.461 10.7128 15.426C11.1986 15.1338 11.68 14.8344 12.1568 14.528C12.2406 14.4689 12.2983 14.3796 12.3178 14.279C12.3818 13.779 12.4258 13.276 12.4818 12.724ZM24.4788 19.974H25.3048C25.4638 19.974 25.5248 19.914 25.4238 19.761C24.8988 18.959 24.3758 18.156 23.8488 17.357C23.8208 17.313 23.7568 17.294 23.7088 17.264C23.6838 17.314 23.6408 17.364 23.6358 17.417C23.5748 18.199 23.5198 18.981 23.4598 19.763C23.4488 19.912 23.5008 19.979 23.6528 19.976C23.9278 19.97 24.2028 19.974 24.4788 19.974ZM6.74483 19.914C6.87083 19.944 6.93283 19.972 6.99383 19.973C7.88683 19.975 8.77983 19.973 9.67183 19.975C9.84483 19.975 9.88883 19.914 9.81583 19.747C9.53568 19.1116 9.26167 18.4736 8.99383 17.833C8.91583 17.646 8.84383 17.655 8.72083 17.787C8.24483 18.301 7.76483 18.81 7.28683 19.321C7.11983 19.501 6.95683 19.681 6.74483 19.914ZM19.9398 15.301C19.9978 15.414 20.0168 15.463 20.0458 15.505L21.2538 17.259C21.7528 17.984 22.2508 18.709 22.7538 19.431C22.7878 19.481 22.8538 19.508 22.9038 19.545C22.9298 19.485 22.9718 19.428 22.9798 19.366C22.9998 19.196 23.0038 19.026 23.0148 18.856C23.0688 18.081 23.1288 17.307 23.1748 16.533C23.1948 16.203 23.0518 16.033 22.7388 15.955C21.9038 15.746 21.0688 15.536 20.2328 15.329C20.1578 15.311 20.0788 15.314 19.9398 15.301ZM19.7278 10.166L19.6518 10.179C19.6418 10.332 19.6268 10.486 19.6218 10.641L19.5108 14.412C19.5058 14.55 19.5468 14.622 19.6898 14.656C20.5558 14.866 21.4198 15.087 22.2858 15.3C22.3608 15.318 22.4438 15.301 22.5228 15.3C22.5028 15.223 22.4988 15.136 22.4618 15.068C21.5988 13.498 20.7338 11.928 19.8668 10.36C19.8288 10.291 19.7748 10.23 19.7278 10.166ZM15.8428 17.873C15.8668 17.74 15.8898 17.66 15.8928 17.58C15.9058 17.161 15.9068 16.742 15.9258 16.323C15.9438 16.0037 15.8489 15.6883 15.6578 15.432C14.8638 14.3303 14.0722 13.2269 13.2828 12.122C13.2468 12.072 13.2318 12.007 13.2068 11.949L13.1128 12.005C13.0898 12.089 13.0538 12.172 13.0448 12.257C12.9748 12.937 12.9148 13.617 12.8398 14.295C12.8284 14.3663 12.834 14.4393 12.856 14.5081C12.8781 14.5769 12.916 14.6396 12.9668 14.691C13.8618 15.688 14.7508 16.691 15.6438 17.691C15.6918 17.745 15.7498 17.789 15.8428 17.873ZM16.4198 17.664L16.4798 17.704C16.5348 17.661 16.5998 17.627 16.6438 17.574C17.4042 16.6508 18.1618 15.7255 18.9168 14.798C18.9631 14.7392 18.9903 14.6676 18.9948 14.593C19.0308 13.358 19.0618 12.123 19.0898 10.888C19.0918 10.82 19.0528 10.751 19.0318 10.683C18.9768 10.736 18.8998 10.779 18.8688 10.843C18.1688 12.325 17.4998 13.822 16.7658 15.285C16.3778 16.059 16.4398 16.858 16.4198 17.665V17.664ZM12.9168 19.975C13.3978 19.975 13.8798 19.982 14.3608 19.969C14.4706 19.9637 14.5749 19.9194 14.6548 19.844C14.9898 19.493 15.3038 19.121 15.6378 18.769C15.7628 18.639 15.7348 18.559 15.6288 18.443C15.0645 17.8309 14.5051 17.2142 13.9508 16.593C13.8168 16.443 13.7398 16.444 13.6198 16.608C12.8588 17.649 12.0898 18.683 11.3248 19.722C11.2868 19.774 11.2728 19.843 11.2468 19.904C11.3138 19.928 11.3808 19.971 11.4488 19.971C11.9388 19.977 12.4268 19.975 12.9168 19.975ZM13.4148 16.009C13.1488 15.7 12.8878 15.409 12.6408 15.104C12.5368 14.977 12.4568 14.964 12.3168 15.051C11.4808 15.577 10.6358 16.089 9.80183 16.618C9.65083 16.714 9.53183 16.863 9.40383 16.994C9.28483 17.116 9.30083 17.25 9.36583 17.4C9.69083 18.143 10.0078 18.889 10.3288 19.634C10.4508 19.914 10.4968 19.919 10.6838 19.669C11.1788 19.009 11.6718 18.346 12.1648 17.685L13.4148 16.009ZM19.2098 15.221C19.1448 15.326 19.1138 15.39 19.0698 15.442C18.2778 16.408 17.4848 17.374 16.6868 18.336C16.5568 18.493 16.6238 18.555 16.7708 18.622C17.6878 19.042 18.6008 19.469 19.5198 19.887C19.6375 19.94 19.7648 19.9685 19.8938 19.971C20.6498 19.978 21.4068 19.976 22.1638 19.972C22.2338 19.972 22.3048 19.94 22.3758 19.922C22.3508 19.848 22.3398 19.763 22.2958 19.7C21.5982 18.6812 20.8986 17.6639 20.1968 16.648C19.8868 16.198 19.5748 15.748 19.2098 15.221ZM15.9928 20.998C12.5508 20.998 9.10883 20.997 5.66683 21C5.39883 21 5.15683 20.97 5.04083 20.682C4.93083 20.409 5.05883 20.207 5.23783 20.016C6.26583 18.918 7.30783 17.832 8.30783 16.71C8.68983 16.282 8.98483 15.773 9.30783 15.292C10.3428 13.744 11.3698 12.19 12.4098 10.646C12.5118 10.495 12.6678 10.342 12.8318 10.282C13.0578 10.198 13.2508 10.328 13.3948 10.534C14.2318 11.73 15.0748 12.922 15.9158 14.116C16.0888 14.36 16.1508 14.352 16.2788 14.074L18.8728 8.42395C18.9748 8.20195 19.1098 8.01295 19.3728 8.00095C19.6478 7.98795 19.8148 8.15495 19.9438 8.39095C21.2458 10.753 22.5178 13.135 23.8708 15.467C24.6888 16.877 25.6358 18.208 26.5248 19.575C26.6348 19.743 26.7458 19.91 26.8538 20.08C26.9838 20.285 27.0608 20.51 26.9388 20.737C26.8188 20.957 26.5968 20.999 26.3638 20.999C22.9068 20.997 19.4498 20.998 15.9928 20.998Z" fill="white"/>
</g>
<defs>
<clipPath id="clip0_4646_29453">
<rect width="32" height="32" fill="white"/>
</clipPath>
</defs>
</svg>
