<svg width="32" height="32" viewBox="0 0 32 32" fill="none" xmlns="http://www.w3.org/2000/svg">
<g clip-path="url(#clip0_4646_29276)">
<path d="M16 32C24.8366 32 32 24.8366 32 16C32 7.16344 24.8366 0 16 0C7.16344 0 0 7.16344 0 16C0 24.8366 7.16344 32 16 32Z" fill="#25AAE1"/>
<path fill-rule="evenodd" clip-rule="evenodd" d="M16.3469 24.993C14.7069 25.011 13.3299 24.715 12.0319 24.07C11.9519 24.03 11.8919 24.028 11.8119 24.073C11.0235 24.5186 10.158 24.8111 9.26089 24.935C8.87689 24.985 8.48889 25.039 8.10289 24.96C7.8652 24.9134 7.64419 24.8043 7.46251 24.6441C7.28084 24.4839 7.14503 24.2783 7.06901 24.0483C6.99299 23.8183 6.9795 23.5722 7.02991 23.3353C7.08032 23.0984 7.19282 22.8791 7.35589 22.7C7.81413 22.1795 8.15819 21.5687 8.36589 20.907C8.3781 20.874 8.38202 20.8385 8.37731 20.8037C8.3726 20.7688 8.35941 20.7356 8.33889 20.707C7.63098 19.5833 7.19382 18.3105 7.06189 16.989C6.76789 14.067 7.67689 11.564 9.77189 9.51202C11.0904 8.20602 12.7966 7.36254 14.6349 7.10802C17.1719 6.73702 19.4839 7.32302 21.5149 8.89602C23.3269 10.3 24.4549 12.149 24.8479 14.407C25.3459 17.265 24.6249 19.811 22.7079 21.987C21.2909 23.595 19.4909 24.55 17.3729 24.889C16.9709 24.954 16.5629 24.972 16.3469 24.993ZM9.91689 22.605C9.98189 22.587 10.0199 22.577 10.0569 22.565C10.6257 22.3729 11.1628 22.0976 11.6509 21.748C12.0029 21.5 12.3499 21.488 12.7209 21.7C13.5169 22.156 14.3699 22.44 15.2849 22.537C16.7719 22.696 18.1749 22.413 19.4299 21.607C21.5999 20.215 22.6799 18.211 22.5629 15.616C22.4879 13.954 21.8369 12.519 20.6579 11.35C19.2369 9.94202 17.5079 9.30002 15.5049 9.43802C14.1549 9.53202 12.9349 9.99602 11.8959 10.863C9.88289 12.543 9.10589 14.697 9.55189 17.28C9.69789 18.13 10.0369 18.91 10.5149 19.63C10.6061 19.7587 10.6686 19.9055 10.6981 20.0604C10.7276 20.2154 10.7234 20.3748 10.6859 20.528C10.5716 21.0253 10.4109 21.5108 10.2059 21.978C10.1169 22.181 10.0209 22.38 9.91789 22.605H9.91689ZM16.0079 12.193L16.5779 13.35C16.7779 13.76 16.9839 14.17 17.1779 14.584C17.2279 14.692 17.2949 14.73 17.4069 14.745C18.2469 14.862 19.0859 14.985 19.9249 15.106C19.9539 15.111 19.9829 15.119 20.0189 15.126C19.8639 15.286 19.7199 15.442 19.5689 15.589C19.0949 16.052 18.6199 16.513 18.1419 16.971C18.0589 17.051 18.0259 17.126 18.0479 17.249C18.1979 18.092 18.3379 18.937 18.4799 19.782C18.4829 19.803 18.4829 19.825 18.4859 19.866C18.4399 19.848 18.4049 19.837 18.3729 19.82C17.6309 19.429 16.8879 19.039 16.1489 18.642C16.0489 18.588 15.9709 18.583 15.8669 18.639C15.1229 19.036 14.3759 19.427 13.6289 19.819C13.5989 19.836 13.5669 19.849 13.5089 19.877C13.5459 19.65 13.5779 19.447 13.6129 19.245C13.7309 18.563 13.8479 17.88 13.9729 17.199C13.9909 17.099 13.9349 17.052 13.8789 16.997C13.2835 16.4118 12.6868 15.8278 12.0889 15.245C12.0549 15.211 12.0069 15.192 11.9649 15.166L11.9959 15.118L12.9119 14.986C13.4879 14.904 14.0629 14.82 14.6399 14.741C14.7319 14.728 14.7739 14.679 14.8119 14.601C15.1889 13.832 15.5699 13.065 15.9489 12.297C15.9629 12.27 15.9789 12.245 16.0089 12.193H16.0079Z" fill="white"/>
</g>
<defs>
<clipPath id="clip0_4646_29276">
<rect width="32" height="32" fill="white"/>
</clipPath>
</defs>
</svg>
