<svg width="32" height="32" viewBox="0 0 32 32" fill="none" xmlns="http://www.w3.org/2000/svg">
<g clip-path="url(#clip0_4646_29242)">
<path d="M16 32C24.8366 32 32 24.8366 32 16C32 7.16344 24.8366 0 16 0C7.16344 0 0 7.16344 0 16C0 24.8366 7.16344 32 16 32Z" fill="#302C2C"/>
<path d="M26.9109 15.696C26.856 15.585 26.7834 15.4836 26.6959 15.396C24.7939 13.242 20.9229 9 20.9229 9L16.0059 14.378L11.0259 9.051C11.0259 9.051 7.10988 13.33 5.19088 15.507C4.94088 15.753 4.94088 16.197 5.16488 16.459C6.16188 17.595 11.0589 22.995 11.0589 22.995L15.9989 17.581L20.9049 23L26.8219 16.454C26.8219 16.454 26.9469 16.324 26.9739 16.237C27.0319 16.057 26.9899 15.861 26.9109 15.696ZM7.91888 16.295C7.75888 16.106 7.81288 15.809 7.96188 15.63C8.58788 14.917 11.0929 12.23 11.0929 12.23L14.5829 15.935L11.0869 19.759C11.0869 19.759 8.94688 17.475 7.91888 16.295ZM23.9069 16.421C23.8332 16.5473 23.7475 16.6662 23.6509 16.776L20.9409 19.721L17.4409 16L20.8849 12.225C20.8849 12.225 22.8689 14.28 23.7779 15.385C23.8549 15.481 23.9459 15.572 23.9849 15.694C24.0679 15.933 24.0149 16.199 23.9059 16.42" fill="white"/>
</g>
<defs>
<clipPath id="clip0_4646_29242">
<rect width="32" height="32" fill="white"/>
</clipPath>
</defs>
</svg>
