<svg width="32" height="32" viewBox="0 0 32 32" fill="none" xmlns="http://www.w3.org/2000/svg">
<g clip-path="url(#clip0_4646_29151)">
<path d="M16 32C24.8366 32 32 24.8366 32 16C32 7.16344 24.8366 0 16 0C7.16344 0 0 7.16344 0 16C0 24.8366 7.16344 32 16 32Z" fill="#610089"/>
<path fill-rule="evenodd" clip-rule="evenodd" d="M16.4901 5.00296C21.6201 5.27896 25.7721 8.83896 26.7911 13.871C26.9251 14.535 26.9611 15.222 26.9981 15.901C27.0311 16.501 26.6401 16.906 26.0991 16.905C25.5691 16.905 25.2221 16.521 25.2091 15.925C25.1121 11.538 22.1491 7.91996 17.8711 7.00496C17.2311 6.86896 16.5631 6.86696 15.9091 6.79296C15.4111 6.73696 15.0811 6.35396 15.0951 5.86796C15.1091 5.38696 15.4691 5.02896 15.9711 5.00396C16.1441 4.99596 16.3171 5.00296 16.4901 5.00296ZM15.5321 27C10.6091 26.852 6.18111 23.12 5.24711 18.288C5.10511 17.548 5.05111 16.789 5.00211 16.036C4.97211 15.576 5.26511 15.246 5.69211 15.136C6.04611 15.044 6.45811 15.195 6.63811 15.532C6.72811 15.703 6.77111 15.919 6.77511 16.116C6.84811 20.32 9.69111 23.938 13.7711 24.944C14.5071 25.126 15.2831 25.155 16.0431 25.236C16.4771 25.281 16.8251 25.576 16.8831 25.999C16.9381 26.399 16.6861 26.846 16.3031 26.941C16.0561 27.002 15.7891 26.983 15.5321 27ZM15.9841 11.997C18.1611 11.99 19.9891 13.775 20.0041 15.922C20.0091 16.662 19.3311 17.128 18.7041 16.809C18.3641 16.637 18.2181 16.349 18.2041 15.966C18.1936 15.4477 18.0007 14.9497 17.6592 14.5597C17.3176 14.1697 16.8495 13.9127 16.3371 13.834C15.1851 13.638 14.0651 14.42 13.8411 15.577C13.6121 16.759 14.3521 17.91 15.5041 18.159C15.6621 18.193 15.8241 18.212 15.9841 18.221C16.5201 18.249 16.8961 18.618 16.8921 19.121C16.8881 19.631 16.4851 20.009 15.9391 20.014C14.2231 20.029 12.6051 18.777 12.1371 17.073C11.4381 14.528 13.3501 12.005 15.9841 11.997ZM23.5391 15.754C23.5191 15.924 23.5261 16.137 23.4641 16.327C23.3341 16.731 22.9041 16.965 22.4841 16.897C22.0471 16.825 21.7361 16.467 21.7311 15.977C21.7241 15.231 21.6031 14.507 21.2971 13.83C20.2841 11.595 18.5511 10.396 16.0931 10.28C15.4921 10.25 15.0931 9.89796 15.0971 9.35996C15.1021 8.82196 15.5041 8.47096 16.1141 8.47296C19.7841 8.47996 22.9911 11.32 23.4561 14.977C23.4881 15.224 23.5091 15.471 23.5391 15.754ZM8.47811 16.215C8.42711 15.808 8.53111 15.407 8.99611 15.193C9.60811 14.91 10.2491 15.348 10.2611 16.067C10.2731 16.756 10.3911 17.419 10.6391 18.061C11.0426 19.123 11.7536 20.0407 12.6813 20.6966C13.609 21.3524 14.7113 21.7168 15.8471 21.743C16.6231 21.763 17.0741 22.325 16.8271 22.963C16.6891 23.323 16.3851 23.532 15.9691 23.528C13.7671 23.508 11.9101 22.683 10.4251 21.066C9.20192 19.7436 8.50878 18.017 8.47811 16.216V16.215ZM20.0121 19.035C19.9751 19.482 19.8221 19.765 19.4861 19.922C19.1521 20.078 18.8131 20.054 18.5461 19.807C18.0623 19.3585 17.595 18.8925 17.1451 18.41C16.8351 18.078 16.8651 17.555 17.1691 17.228C17.4791 16.895 18.0331 16.826 18.3721 17.137C18.8741 17.595 19.3491 18.085 19.8121 18.584C19.9341 18.716 19.9681 18.929 20.0121 19.034V19.035Z" fill="white"/>
</g>
<defs>
<clipPath id="clip0_4646_29151">
<rect width="32" height="32" fill="white"/>
</clipPath>
</defs>
</svg>
