<svg width="32" height="32" viewBox="0 0 32 32" fill="none" xmlns="http://www.w3.org/2000/svg">
<g clip-path="url(#clip0_4646_28190)">
<path d="M16 32C24.8366 32 32 24.8366 32 16C32 7.16344 24.8366 0 16 0C7.16344 0 0 7.16344 0 16C0 24.8366 7.16344 32 16 32Z" fill="#2B77B3"/>
<path d="M27.0004 16.039C26.9534 22.147 22.0034 27.045 15.9234 26.999C9.83837 26.954 4.95137 21.982 5.00037 15.887C5.05037 9.85 10.0144 4.96 16.0504 5C22.1304 5.041 27.0444 9.996 27.0004 16.04V16.039ZM5.79637 16.004C5.80737 21.624 10.3544 26.161 15.9854 26.174C21.6224 26.184 26.2214 21.616 26.2024 15.99C26.1814 10.13 21.3274 5.71 15.7404 5.806C10.3384 5.898 5.78537 10.49 5.79637 16.004ZM18.6814 11.228L18.2744 12.53C17.5164 12.405 16.8144 12.256 16.1034 12.186C15.6814 12.145 15.2434 12.255 15.0804 12.73C14.9124 13.217 14.8924 13.736 15.2954 14.112C15.7094 14.497 16.1954 14.802 16.6494 15.144C17.0664 15.458 17.5254 15.732 17.8894 16.099C18.8764 17.095 19.0514 18.303 18.6464 19.605C18.4064 20.377 17.8344 20.865 17.1024 21.161C15.9824 21.615 14.0754 21.391 13.0044 20.671L13.4744 19.307C14.1564 19.487 14.7804 19.703 15.4224 19.805C16.0344 19.902 16.6754 19.808 16.9894 19.183C17.3054 18.553 17.2054 17.89 16.7104 17.384C16.3284 16.994 15.8494 16.697 15.4024 16.372C15.1044 16.156 14.7714 15.986 14.4814 15.76C13.9191 15.3301 13.5187 14.7226 13.3453 14.0364C13.172 13.3501 13.2358 12.6254 13.5264 11.98C13.6545 11.6718 13.8549 11.399 14.1108 11.1847C14.3667 10.9704 14.6705 10.821 14.9964 10.749C16.2514 10.451 17.4684 10.586 18.6814 11.229V11.228ZM10.6014 15.818C10.6014 16.1526 10.4694 16.4737 10.234 16.7115C9.99863 16.9493 9.67893 17.0846 9.34437 17.088C8.64437 17.091 8.04637 16.481 8.06237 15.784C8.07554 15.4496 8.21764 15.1333 8.45887 14.9014C8.7001 14.6695 9.02174 14.54 9.35637 14.54C10.0564 14.55 10.6064 15.115 10.6024 15.818H10.6014ZM22.6944 14.575C23.3924 14.574 23.9124 15.089 23.9214 15.791C23.9252 15.9606 23.8951 16.1293 23.8326 16.287C23.7701 16.4448 23.6766 16.5883 23.5576 16.7093C23.4386 16.8302 23.2966 16.9261 23.1399 16.9911C22.9832 17.0562 22.815 17.0891 22.6454 17.088C22.3105 17.0825 21.9914 16.9452 21.757 16.706C21.5227 16.4668 21.392 16.1449 21.3934 15.81C21.3934 15.078 21.9234 14.575 22.6944 14.575Z" fill="white"/>
</g>
<defs>
<clipPath id="clip0_4646_28190">
<rect width="32" height="32" fill="white"/>
</clipPath>
</defs>
</svg>
