<svg width="32" height="32" viewBox="0 0 32 32" fill="none" xmlns="http://www.w3.org/2000/svg">
<g clip-path="url(#clip0_4646_28148)">
<path d="M16 32C24.8366 32 32 24.8366 32 16C32 7.16344 24.8366 0 16 0C7.16344 0 0 7.16344 0 16C0 24.8366 7.16344 32 16 32Z" fill="#8E9495"/>
<path d="M7.623 20.7109C7.39395 20.217 7.22411 19.6978 7.117 19.1639C7.05529 18.8829 7.01616 18.5973 7 18.3099H7.894C7.91443 18.541 7.94781 18.7707 7.994 18.9979C8.091 19.4669 8.237 19.9329 8.437 20.3579C8.973 21.4939 9.787 22.1419 10.969 22.1419C11.893 22.1419 12.609 21.772 13.113 21.12C13.541 20.569 13.783 19.838 13.783 19.224C13.783 18.437 13.485 17.8569 12.89 17.3659C12.406 16.9659 11.849 16.6859 10.699 16.2079L10.496 16.1239C9.3 15.6289 8.748 15.3569 8.211 14.9329C7.469 14.3469 7.075 13.6199 7.075 12.6889C7.075 11.5739 7.476 10.6289 8.194 9.96095C8.87488 9.33769 9.76596 8.99448 10.689 8.99995C11.969 8.99995 12.946 9.53295 13.596 10.4669V9.19695H16.484V21.9439H17.342V18.367C17.3406 18.3376 17.3406 18.3083 17.342 18.2789L18.236 18.3089V18.3539C18.2536 18.5708 18.2837 18.7865 18.326 18.9999C18.419 19.4649 18.563 19.9319 18.763 20.3569C19.296 21.492 20.111 22.141 21.292 22.141C22.216 22.141 22.932 21.7709 23.436 21.1189C23.864 20.5679 24.106 19.8369 24.106 19.2229C24.106 18.4359 23.808 17.8559 23.213 17.3649C22.729 16.9649 22.172 16.6849 21.022 16.2069L20.819 16.1229C19.623 15.6279 19.071 15.3559 18.534 14.9319C17.792 14.3459 17.398 13.6189 17.398 12.6879C17.398 11.5729 17.799 10.6279 18.517 9.95995C19.198 9.33706 20.0891 8.9942 21.012 8.99995C22.292 8.99995 23.269 9.53295 23.919 10.4669V9.25095H24.814V13.6729H23.919C23.919 12.7489 23.707 11.8129 23.29 11.1219C22.798 10.3049 22.058 9.85895 21.012 9.85895C20.3195 9.85392 19.6507 10.1103 19.139 10.5769C18.599 11.0809 18.292 11.8019 18.292 12.6879C18.292 13.3479 18.558 13.8379 19.102 14.2679C19.552 14.6229 20.056 14.8709 21.173 15.3339L21.376 15.4179C22.609 15.9289 23.22 16.2379 23.796 16.7129C24.583 17.3629 25 18.1769 25 19.2229C25 20.0189 24.698 20.9289 24.154 21.6329C23.485 22.4959 22.508 22.9999 21.292 22.9999C20.449 22.9999 19.726 22.7439 19.132 22.2699C18.7765 21.9825 18.4734 21.6357 18.236 21.245V22.8029H15.59V10.0559H14.49V13.6729H13.596C13.596 12.7489 13.384 11.8129 12.967 11.1219C12.475 10.3049 11.735 9.85895 10.689 9.85895C9.99653 9.85392 9.32766 10.1103 8.816 10.5769C8.276 11.0809 7.969 11.8019 7.969 12.6879C7.969 13.3479 8.235 13.8379 8.779 14.2679C9.229 14.6229 9.733 14.8709 10.85 15.3339L11.053 15.4179C12.286 15.9289 12.897 16.2379 13.473 16.7129C14.26 17.3629 14.677 18.1769 14.677 19.2229C14.677 20.0189 14.375 20.9289 13.831 21.6329C13.162 22.4959 12.185 22.9999 10.969 22.9999C10.126 22.9999 9.403 22.7439 8.809 22.2699C8.44459 21.9753 8.13487 21.6189 7.894 21.2169V22.749H7V18.3089H7.894V21.2169C7.7946 21.0533 7.70414 20.8844 7.623 20.7109Z" fill="white"/>
</g>
<defs>
<clipPath id="clip0_4646_28148">
<rect width="32" height="32" fill="white"/>
</clipPath>
</defs>
</svg>
