<svg width="32" height="32" viewBox="0 0 32 32" fill="none" xmlns="http://www.w3.org/2000/svg">
<g clip-path="url(#clip0_4646_28114)">
<path d="M16 32C24.8366 32 32 24.8366 32 16C32 7.16344 24.8366 0 16 0C7.16344 0 0 7.16344 0 16C0 24.8366 7.16344 32 16 32Z" fill="#1C1C1C"/>
<path d="M15.7148 13.433C16.0208 13.558 16.3268 13.495 16.5718 13.433C16.7558 14.057 17.0618 14.618 17.3668 14.867C17.1838 16.427 16.6328 16.988 16.0208 16.988C15.1648 16.988 14.7358 15.179 14.7358 14.868C14.9198 14.743 15.4708 14.368 15.7158 13.433H15.7148ZM14.7968 18.922C15.1648 18.61 15.4088 18.111 15.7148 17.3C15.9598 17.425 16.3268 17.362 16.5718 17.3C16.7558 18.173 16.9388 18.735 17.3668 18.984C17.2448 19.982 16.6328 20.668 16.0818 20.668C15.2868 20.668 14.9198 19.421 14.7968 18.922ZM9.90179 20.855C10.1468 20.543 10.1468 20.045 10.0248 19.109C10.2078 19.171 10.3918 19.171 10.5148 19.109C10.8808 19.982 11.1868 20.543 11.6768 20.855C11.7378 21.292 11.6768 21.791 11.4928 21.853C10.8198 22.165 10.2078 21.354 9.90279 20.855H9.90179ZM7.33179 19.171C7.45479 19.171 7.51579 19.171 7.63779 19.234C8.06679 20.356 8.80079 20.98 8.80079 20.98C9.04579 21.479 9.16779 21.978 8.98379 21.978C8.43379 22.04 8.00479 21.666 7.57679 20.855C7.63779 20.668 7.57679 20.543 7.33179 19.171ZM5.67979 19.171C6.29179 21.791 7.45479 21.666 7.39379 21.541C7.14879 21.105 6.90379 20.918 6.65879 20.731C6.10879 20.169 5.67979 18.984 5.67979 19.171ZM13.1448 20.855C13.5738 20.543 13.6348 19.857 13.6958 18.985C13.9408 19.046 14.2458 19.046 14.4298 18.985C14.5528 19.545 14.7358 20.356 15.2868 20.731C15.2258 21.417 15.0418 21.791 14.6138 21.853C14.3078 21.978 13.4508 21.978 13.1448 20.855ZM7.88279 18.922C8.12779 18.61 8.18879 18.111 8.24979 17.425C8.43379 17.487 8.67879 17.487 8.79979 17.425C8.98379 18.235 9.28979 18.735 9.65779 18.985C9.77979 20.294 9.65779 20.731 9.41279 20.731C8.86279 20.731 8.12779 19.545 7.88279 18.921V18.922ZM5.98579 18.922C5.98579 18.797 6.04679 17.986 6.10879 17.425H6.35279C6.65879 18.61 7.08779 18.985 7.08779 18.985C7.39379 20.419 7.39379 20.793 7.14779 20.668C6.59779 20.481 6.16979 19.421 5.98579 18.922ZM10.8808 18.922C11.1868 18.672 11.3708 18.236 11.4928 17.425C11.7988 17.549 12.1048 17.487 12.2888 17.425C12.4718 18.235 12.7788 18.735 13.2068 18.985C13.2068 19.67 13.1448 20.793 12.2888 20.605C11.5538 20.419 10.9428 19.171 10.8808 18.922ZM10.3308 18.735C9.59579 18.735 9.16779 17.549 9.16779 17.175C9.53479 16.801 9.71779 16.115 9.90179 14.93C10.0248 14.992 10.2078 14.992 10.3918 14.93C10.4528 16.24 10.8198 16.801 11.1258 17.113C11.0038 18.173 10.6978 18.735 10.3308 18.735ZM6.53679 17.175C6.65879 16.925 6.65879 16.863 7.02679 14.93H7.33179C7.33179 16.24 7.69879 16.863 7.88279 17.113C7.82179 17.799 7.94379 18.735 7.39279 18.735C7.14879 18.735 6.84279 18.423 6.53679 17.175ZM5.31279 14.992C5.49679 15.055 5.37379 16.676 5.61879 17.238C5.61879 17.238 5.61879 18.797 5.49679 18.672C4.57879 17.549 5.19079 14.93 5.31279 14.992ZM12.6558 17.175C13.0838 16.863 13.3288 16.177 13.6958 14.93C13.9408 14.992 14.2458 14.992 14.4298 14.93C14.5528 15.865 14.7968 16.552 15.2868 17.05C15.1648 18.048 14.6748 18.735 14.0628 18.735C13.0838 18.735 12.7168 17.362 12.6558 17.175ZM7.63779 14.743C8.12779 14.556 8.43379 13.495 8.49479 13.37C8.56212 13.4304 8.64936 13.4637 8.73979 13.4637C8.83022 13.4637 8.91746 13.4304 8.98479 13.37C8.98479 14.181 9.22879 14.556 9.41279 14.68C9.22879 15.74 8.98379 16.988 8.43279 16.988C7.94379 16.988 7.69879 15.865 7.63779 14.743ZM6.10779 17.05C5.67979 17.05 5.55779 15.429 5.67979 14.743C5.67979 14.743 6.04679 14.181 6.29179 13.37C6.35279 13.37 6.47579 13.433 6.53679 13.37C6.47579 14.181 6.59779 14.556 6.71979 14.743C6.71979 14.743 6.41479 17.05 6.10879 17.05H6.10779ZM10.7588 14.743C11.0038 14.618 11.4928 13.932 11.7378 13.308C11.9828 13.433 12.2278 13.433 12.5328 13.37C12.6558 14.057 12.8388 14.493 13.2678 14.743C13.0838 15.865 12.7168 16.988 11.9218 16.988C11.1868 16.988 10.8198 15.491 10.7588 14.743ZM11.3088 13.059C10.9428 14.057 10.5748 14.618 10.0858 14.618C9.47379 14.618 9.41279 13.308 9.41279 13.183C9.90279 12.809 10.2688 12.061 10.5748 11.437H11.0038C10.8808 12.372 11.1258 12.809 11.3098 13.059H11.3088ZM8.31079 11.499C8.00479 12.372 8.12779 12.809 8.25079 13.121C7.76079 14.368 7.51579 14.681 7.14879 14.681C6.78179 14.618 6.78179 13.869 6.90379 13.246C7.27079 12.996 8.06679 11.562 8.06679 11.499H8.31079ZM6.53679 11.562C6.71979 11.499 6.04679 12.435 6.10879 12.872C6.16879 13.495 5.43479 14.556 5.37379 14.493C5.12979 14.431 5.61879 12.185 6.53679 11.562ZM15.2258 13.059C15.0418 13.745 14.7968 14.618 13.7568 14.618C13.2068 14.556 12.9008 13.808 12.7778 13.183C13.3898 12.747 13.6958 11.998 13.8798 11.437C14.0628 11.499 14.3698 11.499 14.5528 11.437C14.6748 12.372 14.9808 12.809 15.2258 13.059ZM6.90379 11.374C7.02579 11.312 7.82179 10.252 8.24979 10.252C8.49479 10.314 7.82179 10.938 7.88279 11.25C7.69879 11.562 6.84279 13.12 6.53679 13.12C6.29179 13.12 6.29179 12.31 6.90379 11.374ZM21.9568 19.109C21.8948 20.044 21.8948 20.543 22.0788 20.855C21.8338 21.355 21.1608 22.103 20.4888 21.853C20.2428 21.791 20.2428 21.292 20.3038 20.855C20.8548 20.543 21.2218 19.92 21.4668 19.109C21.5888 19.171 21.7728 19.171 21.9568 19.109ZM24.4038 19.109C24.4648 19.171 24.5878 19.171 24.7098 19.046C24.4648 20.419 24.4038 20.543 24.4648 20.731C24.0368 21.541 23.6088 21.853 23.0578 21.853C22.8128 21.853 22.9358 21.417 23.2418 20.855C23.2418 20.855 23.9758 20.232 24.4038 19.109ZM25.3838 20.731C25.1378 20.98 24.8938 21.105 24.7098 21.541C24.6488 21.666 25.8118 21.791 26.4228 19.171C26.3008 18.984 25.9328 20.169 25.3828 20.731H25.3838ZM18.3458 19.109C18.3458 19.857 18.5298 20.543 18.8968 20.98C18.5908 22.04 17.7348 22.04 17.4288 21.978C16.9998 21.853 16.8778 21.479 16.7558 20.855C17.2448 20.419 17.4898 19.67 17.6118 19.109C17.8568 19.171 18.1018 19.171 18.3458 19.109ZM23.8528 17.362C23.8528 18.111 23.9148 18.61 24.2208 18.859C23.9758 19.483 23.1808 20.669 22.6908 20.669C22.4458 20.669 22.3238 20.232 22.4458 18.922C22.8128 18.672 23.1188 18.048 23.3028 17.362C23.3868 17.4091 23.4815 17.4339 23.5778 17.4339C23.6741 17.4339 23.7688 17.4091 23.8528 17.362ZM26.0558 17.487C26.0558 17.987 26.0558 18.797 26.1788 18.984C25.9338 19.484 25.5058 20.544 25.0158 20.731C24.7098 20.793 24.7708 20.419 25.0768 19.046C25.0768 19.046 25.5058 18.61 25.8118 17.487H26.0558ZM20.6098 17.362C20.7328 18.236 20.8548 18.672 21.2218 18.859C21.1618 19.171 20.4878 20.419 19.8148 20.543C18.9578 20.731 18.8968 19.545 18.8968 18.922C19.3248 18.672 19.6308 18.111 19.8148 17.362C19.9988 17.425 20.3048 17.487 20.6098 17.362ZM22.9358 17.175C22.8738 17.549 22.3848 18.735 21.7728 18.735C21.4058 18.735 21.0998 18.111 20.9778 17.113C21.2838 16.863 21.6508 16.24 21.7118 14.93C21.8692 14.9925 22.0444 14.9925 22.2018 14.93C22.4458 16.053 22.6298 16.801 22.9358 17.175ZM25.0768 14.93C25.3828 16.863 25.4438 16.926 25.5668 17.175C25.2608 18.36 24.9548 18.735 24.7098 18.735C24.1598 18.735 24.2818 17.737 24.2198 17.113C24.4648 16.863 24.7708 16.24 24.7708 14.93C24.8938 14.992 24.9548 14.93 25.0768 14.93ZM26.3618 17.175C26.6678 16.676 26.5458 15.055 26.6678 14.93C26.8518 14.867 27.4018 17.612 26.4848 18.61C26.3618 18.735 26.3618 17.175 26.3618 17.175ZM18.5298 14.93C18.7138 16.177 19.0198 16.863 19.5698 17.175C19.5088 17.362 19.0198 18.735 18.1628 18.735C17.4898 18.797 17.1228 17.986 16.9388 17.05C17.3668 16.552 17.6728 15.865 17.7958 14.93C17.9178 14.992 18.2238 14.992 18.5298 14.93ZM23.6088 13.37C23.6088 13.495 23.9758 14.556 24.4038 14.867C24.4038 15.927 24.0978 17.113 23.6088 17.113C23.0578 17.113 22.8128 15.928 22.6288 14.805C22.8128 14.618 23.0578 14.181 23.0578 13.433C23.1475 13.4687 23.2447 13.4817 23.3407 13.4707C23.4367 13.4597 23.5284 13.4251 23.6078 13.37H23.6088ZM26.3618 14.743C26.4228 15.429 26.3008 17.05 25.9948 16.988C25.6888 16.988 25.3828 14.68 25.3828 14.68C25.5058 14.493 25.6278 14.057 25.5668 13.37C25.6004 13.4003 25.644 13.417 25.6893 13.417C25.7345 13.417 25.7782 13.4003 25.8118 13.37C26.0558 14.181 26.3618 14.743 26.3618 14.743ZM20.3658 13.37C20.6098 13.932 21.0388 14.618 21.4058 14.805C21.3448 15.554 20.9158 17.05 20.2428 17.05C19.3248 17.113 19.0808 15.99 18.8968 14.805C19.2638 14.555 19.5088 14.057 19.5698 13.433C19.8148 13.495 20.1198 13.495 20.3658 13.37ZM21.8958 14.556C21.4668 14.618 21.0998 14.056 20.6718 13.059C20.9158 12.809 21.0998 12.31 20.9778 11.437C21.1608 11.499 21.2838 11.499 21.4058 11.437C21.7728 12.123 22.1398 12.809 22.5678 13.121C22.5678 13.308 22.5078 14.556 21.8948 14.556H21.8958ZM23.8528 13.059C23.9148 12.809 24.0368 12.372 23.6698 11.437H23.9148C23.9148 11.499 24.7708 12.997 25.0768 13.183C25.1998 13.869 25.1998 14.556 24.8318 14.618C24.5268 14.618 24.2818 14.306 23.8528 13.058V13.059ZM25.9328 12.871C25.9948 12.435 25.3828 11.499 25.4438 11.561C26.4238 12.185 26.7908 14.431 26.6068 14.493C26.5458 14.556 25.8728 13.433 25.9338 12.871H25.9328ZM18.1628 14.556C17.2448 14.618 16.9998 13.745 16.8168 13.059C17.1228 12.871 17.4288 12.31 17.4898 11.437C17.6728 11.499 17.9798 11.499 18.1628 11.437C18.3458 11.998 18.6528 12.747 19.1418 13.121C19.0808 13.869 18.7748 14.493 18.1618 14.556H18.1628ZM23.8528 10.252C24.1588 10.252 25.0768 11.312 25.1378 11.374C25.8118 12.372 25.8118 13.121 25.5668 13.121C25.1998 13.121 24.4038 11.561 24.2208 11.25C24.2808 10.938 23.6088 10.252 23.8528 10.252ZM10.2688 10.439C10.1468 10.813 10.0858 11.187 10.2688 11.374C9.90179 12.123 9.28979 13.184 8.73879 13.121C8.12779 12.996 8.61679 11.561 8.67879 11.437C9.04579 11.25 9.90179 10.065 10.2088 10.065C10.3918 10.127 10.2688 10.439 10.2688 10.439ZM13.1448 10.377C13.1448 10.751 13.2068 11.187 13.5118 11.374C13.2678 12.123 12.7778 13.121 11.9818 13.059C11.4318 12.996 11.3098 12.061 11.4318 11.374C11.9818 11.187 12.4718 10.002 12.8388 10.002C13.1448 10.002 13.1448 10.314 13.1448 10.377ZM21.8348 11.374C21.9568 11.187 21.9568 10.814 21.8348 10.439C21.8348 10.377 21.7118 10.065 21.8948 10.065C22.2008 10.065 23.0578 11.25 23.4248 11.437C23.4858 11.562 23.9748 12.997 23.3638 13.121C22.7518 13.183 22.2008 12.061 21.8338 11.374H21.8348ZM18.5908 11.374C18.8358 11.187 18.8968 10.751 18.9578 10.377C18.9578 10.314 18.9578 10.002 19.2638 10.002C19.5698 9.93999 20.1818 11.187 20.6718 11.374C20.8548 12.185 20.7318 12.996 20.1208 13.059C19.2638 13.183 18.8358 12.061 18.5908 11.374ZM16.0208 10.002C16.6328 10.002 16.6328 11.187 17.1228 11.437C17.1228 11.749 16.9388 13.121 15.9598 13.121C15.1028 13.121 14.9198 11.998 14.8588 11.437C15.5928 11.125 15.3488 10.002 16.0208 10.002Z" fill="white"/>
</g>
<defs>
<clipPath id="clip0_4646_28114">
<rect width="32" height="32" fill="white"/>
</clipPath>
</defs>
</svg>
