<svg width="32" height="32" viewBox="0 0 32 32" fill="none" xmlns="http://www.w3.org/2000/svg">
<g clip-path="url(#clip0_4646_28106)">
<path d="M16 32C24.8366 32 32 24.8366 32 16C32 7.16344 24.8366 0 16 0C7.16344 0 0 7.16344 0 16C0 24.8366 7.16344 32 16 32Z" fill="#01AEF0"/>
<path fill-rule="evenodd" clip-rule="evenodd" d="M21.0692 18.89C21.0562 20.964 19.8582 22.73 17.9472 23.455C17.4992 23.625 17.0332 23.75 16.5692 23.866C16.2922 23.936 16.1412 24.073 16.1192 24.376C16.0912 24.758 16.0522 25.139 15.9992 25.516C15.9352 25.962 15.7822 26.064 15.3722 25.966C14.6662 25.798 14.5902 25.684 14.6842 24.943C14.6922 24.88 14.7012 24.817 14.7082 24.753C14.7782 24.146 14.6922 24.059 14.1112 24.088C13.8502 24.101 13.7412 24.23 13.7162 24.486C13.6822 24.854 13.6462 25.223 13.5862 25.586C13.5262 25.958 13.3702 26.05 13.0122 25.972C12.2482 25.807 12.1922 25.722 12.2922 24.914C12.4182 23.911 12.4152 23.922 11.4892 23.643C11.0792 23.519 10.6812 23.347 10.2802 23.188C10.0362 23.092 9.95617 22.91 10.0222 22.639C10.1062 22.294 10.1642 21.941 10.2362 21.592C10.3602 20.997 10.6482 20.817 11.1982 21.033C12.1722 21.416 13.1722 21.652 14.2132 21.677C15.1522 21.7 16.0812 21.638 16.9382 21.177C17.5042 20.872 17.9202 20.425 18.1292 19.784C18.4392 18.832 18.1612 18.062 17.2692 17.679C16.5342 17.364 15.7452 17.189 15.0042 16.887C14.3462 16.619 13.6622 16.351 13.0942 15.93C11.8172 14.986 11.5942 13.59 11.8742 12.099C12.1922 10.418 13.2212 9.32796 14.7482 8.74896C15.1552 8.59596 15.3392 8.38196 15.3462 7.92496C15.3522 7.42996 15.4312 6.93496 15.4912 6.44196C15.5372 6.06296 15.6852 5.95696 16.0392 6.01496C16.7912 6.13796 16.8812 6.25696 16.8072 7.03796C16.7782 7.34296 16.7532 7.64796 16.7172 7.95096C16.6872 8.20596 16.7682 8.32296 17.0352 8.33096C17.6442 8.34896 17.6702 8.33796 17.7422 7.70796C17.7882 7.30296 17.8222 6.89696 17.8772 6.49296C17.9372 6.04496 18.0822 5.94296 18.4952 6.02696C19.1902 6.16996 19.2672 6.27596 19.1992 6.99996C19.1692 7.31696 19.1542 7.63696 19.0992 7.94996C19.0362 8.30996 19.1462 8.47696 19.5042 8.55996C20.1852 8.71796 20.8592 8.91796 21.5282 9.12596C22.0312 9.28196 22.0512 9.33896 21.9542 9.86196C21.8972 10.175 21.8402 10.489 21.7662 10.798C21.6282 11.38 21.3382 11.553 20.7842 11.367C19.8362 11.047 18.8842 10.758 17.8792 10.715C16.9992 10.678 16.1312 10.691 15.3672 11.244C14.2912 12.022 14.2852 13.604 15.4292 14.27C16.1572 14.694 16.9982 14.91 17.7872 15.222C18.2682 15.412 18.7622 15.576 19.2242 15.806C20.4622 16.424 21.0832 17.457 21.0692 18.891" fill="white"/>
</g>
<defs>
<clipPath id="clip0_4646_28106">
<rect width="32" height="32" fill="white"/>
</clipPath>
</defs>
</svg>
