<svg width="32" height="32" viewBox="0 0 32 32" fill="none" xmlns="http://www.w3.org/2000/svg">
<g clip-path="url(#clip0_4646_28098)">
<path d="M16 32C24.8366 32 32 24.8366 32 16C32 7.16344 24.8366 0 16 0C7.16344 0 0 7.16344 0 16C0 24.8366 7.16344 32 16 32Z" fill="#2683FF"/>
<path d="M24.9777 18.971C25.3973 19.2227 25.7023 19.6281 25.8279 20.101C25.9536 20.5739 25.89 21.0772 25.6507 21.504C25.1367 22.406 23.9687 22.726 23.0497 22.222C22.9597 22.173 22.8817 22.115 22.8017 22.057L17.8757 24.841C17.8877 24.931 17.8947 25.022 17.8957 25.113C17.8957 25.22 17.8957 25.317 17.8757 25.423C17.7077 26.443 16.7287 27.141 15.6897 26.976C14.6517 26.811 13.9397 25.85 14.1077 24.832L9.15068 22.028C9.07393 22.083 8.99486 22.1347 8.91368 22.183C8.83368 22.222 8.75468 22.27 8.66568 22.299C8.19838 22.4863 7.6762 22.4824 7.21173 22.2882C6.74725 22.094 6.37768 21.7251 6.18268 21.261C5.78768 20.301 6.26268 19.214 7.24168 18.826V13.218C7.15179 13.189 7.06555 13.1498 6.98468 13.101C6.91051 13.055 6.83781 13.0066 6.76668 12.956C6.49719 12.7602 6.28523 12.4956 6.15294 12.1899C6.02066 11.8841 5.97291 11.5485 6.01468 11.218C6.05895 10.8867 6.19068 10.5732 6.39632 10.3098C6.60195 10.0463 6.87408 9.84239 7.18468 9.719C7.49746 9.5929 7.83766 9.55038 8.17185 9.59561C8.50603 9.64085 8.82269 9.77229 9.09068 9.977L14.0967 7.134C14.0867 7.047 14.0767 6.97 14.0767 6.882C14.0767 5.854 14.9567 5 16.0057 5C17.0537 5 17.9137 5.834 17.9147 6.872C17.9147 6.96 17.9047 7.037 17.8947 7.125L22.9397 9.987C23.1589 9.82634 23.4096 9.71365 23.6752 9.65626C23.9409 9.59887 24.2157 9.59807 24.4817 9.65392C24.7478 9.70976 24.999 9.821 25.2192 9.98038C25.4394 10.1398 25.6236 10.3437 25.7597 10.579C26.2727 11.481 25.9367 12.626 25.0167 13.131C24.9277 13.169 24.8387 13.218 24.7497 13.247V18.865C24.8287 18.895 24.9047 18.93 24.9767 18.971H24.9777ZM25.3247 21.319C25.4224 21.1577 25.4869 20.9786 25.5144 20.792C25.5419 20.6055 25.5318 20.4153 25.4847 20.2327C25.4377 20.0501 25.3546 19.8788 25.2404 19.7287C25.1262 19.5787 24.9832 19.453 24.8197 19.359C24.5503 19.2037 24.2387 19.138 23.9295 19.1712C23.6204 19.2045 23.3299 19.335 23.0997 19.544L20.8337 18.254C21.1049 17.7061 21.1661 17.078 21.0058 16.488C20.8455 15.8981 20.4748 15.3873 19.9637 15.052C19.9 14.8379 19.817 14.63 19.7157 14.431L23.1387 12.529C23.4947 12.859 23.9957 12.994 24.4737 12.889C24.6599 12.8488 24.8362 12.772 24.9925 12.6631C25.1488 12.5542 25.2818 12.4153 25.384 12.2546C25.4861 12.0938 25.5553 11.9144 25.5876 11.7266C25.6198 11.5389 25.6144 11.3466 25.5717 11.161C25.3937 10.385 24.6017 9.91 23.8117 10.084C23.6255 10.1241 23.4492 10.2007 23.2928 10.3095C23.1365 10.4183 23.0034 10.5571 22.9012 10.7178C22.7989 10.8784 22.7296 11.0578 22.6973 11.2455C22.6649 11.4331 22.6701 11.6254 22.7127 11.811L19.2507 13.742C18.5787 12.956 16.4417 12.432 16.4417 12.432V8.153C16.6555 8.09154 16.8506 7.97782 17.0095 7.82209C17.1684 7.66636 17.286 7.47354 17.3517 7.261C17.4032 7.09162 17.4205 6.91367 17.4025 6.73754C17.3845 6.56141 17.3316 6.39062 17.2469 6.23516C17.1622 6.07969 17.0474 5.94266 16.9091 5.83206C16.7709 5.72146 16.612 5.63952 16.4417 5.591C15.7197 5.378 14.9577 5.766 14.7397 6.475C14.6883 6.64432 14.6711 6.82217 14.6892 6.99819C14.7073 7.17421 14.7602 7.34487 14.8449 7.50022C14.9296 7.65557 15.0444 7.7925 15.1826 7.90303C15.3207 8.01356 15.4795 8.09548 15.6497 8.144V12.51C15.6497 12.51 14.4837 12.888 14.0287 13.256C13.5454 13.2671 13.0712 13.3904 12.6437 13.616L9.38868 11.782C9.44353 11.5529 9.43966 11.3136 9.37743 11.0863C9.3152 10.8591 9.19662 10.6512 9.03268 10.482C8.76761 10.2025 8.40312 10.0387 8.01814 10.0259C7.63315 10.0132 7.25864 10.1526 6.97568 10.414C6.83556 10.5411 6.72235 10.695 6.64275 10.8667C6.56315 11.0383 6.51877 11.2241 6.51225 11.4132C6.50572 11.6023 6.53718 11.7908 6.60476 11.9675C6.67233 12.1442 6.77466 12.3055 6.90568 12.442C7.17093 12.7215 7.53558 12.8854 7.92074 12.8981C8.30589 12.9109 8.68056 12.7714 8.96368 12.51L11.9017 14.159C11.3864 14.6602 11.0688 15.3302 11.0071 16.0464C10.9454 16.7626 11.1437 17.4771 11.5657 18.059L8.98368 19.524C8.80472 19.3609 8.58871 19.2439 8.35436 19.1831C8.12 19.1223 7.87436 19.1195 7.63868 19.175C7.45258 19.2165 7.27657 19.2945 7.12086 19.4046C6.96516 19.5146 6.83286 19.6545 6.73164 19.8161C6.63043 19.9777 6.56231 20.1578 6.53125 20.3459C6.50018 20.534 6.50679 20.7264 6.55068 20.912C6.73968 21.686 7.53168 22.163 8.32068 21.978C8.50668 21.9365 8.6826 21.8585 8.83822 21.7485C8.99385 21.6385 9.1261 21.4987 9.22731 21.3373C9.32851 21.1758 9.39665 20.9958 9.42779 20.8078C9.45892 20.6198 9.45243 20.4275 9.40868 20.242L12.1687 18.68C12.8787 19.243 13.8057 19.467 14.7007 19.291C14.9767 19.417 15.2607 19.524 15.5507 19.611V23.687C15.3546 23.7478 15.1724 23.8467 15.0147 23.9782C14.857 24.1097 14.7268 24.271 14.6317 24.453C14.5418 24.6299 14.4881 24.823 14.4739 25.021C14.4596 25.2189 14.485 25.4177 14.5487 25.6057C14.6123 25.7937 14.7128 25.967 14.8444 26.1156C14.9759 26.2642 15.1358 26.385 15.3147 26.471C15.3747 26.501 15.4337 26.529 15.5027 26.549C15.5127 26.549 15.5227 26.559 15.5327 26.559C16.3427 26.801 17.2047 26.364 17.4517 25.569C17.5108 25.3791 17.5315 25.1793 17.5126 24.9813C17.4936 24.7833 17.4355 24.591 17.3415 24.4158C17.2474 24.2405 17.1195 24.0857 16.965 23.9604C16.8105 23.8351 16.6326 23.7418 16.4417 23.686V19.69C16.4417 19.69 17.1837 19.622 17.5297 19.515C18.4947 19.895 19.5987 19.67 20.3297 18.943L22.6437 20.273C22.5726 20.5722 22.6008 20.8864 22.724 21.1682C22.8472 21.45 23.0588 21.684 23.3267 21.835C23.6614 22.0256 24.0571 22.0784 24.43 21.9823C24.803 21.8862 25.1239 21.6486 25.3247 21.32V21.319ZM7.98468 19.961C8.20468 19.962 8.40668 20.076 8.51868 20.261C8.56916 20.3538 8.59627 20.4574 8.59768 20.563C8.59584 20.7239 8.53028 20.8775 8.41538 20.9902C8.30047 21.1028 8.14559 21.1653 7.98468 21.164C7.8236 21.1656 7.66847 21.1032 7.55335 20.9905C7.43823 20.8778 7.37253 20.7241 7.37068 20.563C7.37068 20.23 7.64568 19.961 7.98468 19.961ZM16.6497 6.873C16.6471 7.03383 16.5811 7.18713 16.4662 7.29965C16.3512 7.41216 16.1965 7.47481 16.0357 7.474C15.8748 7.47533 15.7199 7.41282 15.605 7.30017C15.4901 7.18752 15.4245 7.03391 15.4227 6.873C15.4227 6.54 15.6977 6.271 16.0357 6.271C16.3757 6.271 16.6497 6.541 16.6497 6.873ZM24.1277 12.093C23.9671 12.0928 23.8129 12.0296 23.6984 11.9171C23.5838 11.8045 23.5178 11.6516 23.5147 11.491C23.5147 11.159 23.7897 10.889 24.1277 10.889C24.4677 10.889 24.7417 11.159 24.7417 11.491C24.7398 11.6521 24.6741 11.8058 24.559 11.9185C24.4439 12.0312 24.2888 12.0936 24.1277 12.092V12.093ZM8.27068 10.937C8.3402 10.9745 8.40145 11.0256 8.45077 11.0873C8.50009 11.149 8.53648 11.22 8.55776 11.2961C8.57904 11.3721 8.58478 11.4517 8.57463 11.5301C8.56448 11.6084 8.53865 11.6839 8.49868 11.752C8.41776 11.8914 8.28492 11.9932 8.1292 12.035C7.97348 12.0768 7.80755 12.0552 7.66768 11.975C7.59796 11.9377 7.53651 11.8867 7.48703 11.825C7.43755 11.7633 7.40106 11.6923 7.37976 11.6162C7.35845 11.54 7.35278 11.4603 7.36308 11.382C7.37338 11.3036 7.39944 11.2281 7.43968 11.16C7.52061 11.0206 7.65345 10.9188 7.80917 10.877C7.96489 10.8352 8.13082 10.8568 8.27068 10.937ZM24.3747 20.077C24.4441 20.1145 24.5052 20.1656 24.5544 20.2272C24.6037 20.2888 24.64 20.3597 24.6613 20.4357C24.6825 20.5116 24.6883 20.5911 24.6782 20.6693C24.6682 20.7475 24.6425 20.8229 24.6027 20.891C24.5459 20.982 24.4672 21.0573 24.3737 21.11C24.2802 21.1626 24.175 21.1908 24.0677 21.192C23.9598 21.1938 23.8533 21.1672 23.7588 21.1149C23.6644 21.0626 23.5854 20.9865 23.5297 20.894C23.4749 20.8022 23.446 20.6974 23.446 20.5905C23.446 20.4836 23.4749 20.3788 23.5297 20.287C23.5854 20.1945 23.6644 20.1184 23.7588 20.0661C23.8533 20.0138 23.9598 19.9872 24.0677 19.989C24.1756 19.9925 24.281 20.0223 24.3747 20.076V20.077ZM15.4227 25.092C15.4237 25.0844 15.4272 25.0773 15.4327 25.072C15.4597 24.9148 15.5473 24.7745 15.6768 24.6814C15.8062 24.5882 15.9671 24.5497 16.1247 24.574C16.2823 24.5951 16.4251 24.678 16.5217 24.8044C16.6183 24.9308 16.6607 25.0903 16.6397 25.248C16.61 25.3937 16.5307 25.5247 16.4153 25.6184C16.2998 25.7121 16.1554 25.7629 16.0067 25.762C15.9236 25.7584 15.8422 25.738 15.7672 25.702C15.6923 25.6659 15.6255 25.615 15.5709 25.5523C15.5162 25.4897 15.4749 25.4165 15.4495 25.3374C15.424 25.2583 15.4149 25.1748 15.4227 25.092ZM18.9447 15.807C19.2388 15.8974 19.4959 16.0804 19.6777 16.3287C19.8595 16.577 19.9563 16.8773 19.9537 17.185C19.9537 17.234 19.9437 17.283 19.9437 17.331C19.9337 17.37 19.9337 17.409 19.9237 17.447V17.477C19.9037 17.564 19.8837 17.651 19.8437 17.738C19.734 18.0054 19.5443 18.2324 19.3007 18.388C19.2407 18.418 19.1907 18.447 19.1327 18.476L19.1027 18.486C18.9867 18.5398 18.8634 18.5759 18.7367 18.593L18.6867 18.602C18.6177 18.602 18.5587 18.612 18.4897 18.612C18.1667 18.612 17.8537 18.506 17.5997 18.311L17.3317 18.427C17.2497 18.467 17.1637 18.496 17.0747 18.515H17.0647C16.4526 18.6788 15.8016 18.613 15.2347 18.33H15.2247C15.1657 18.301 15.1067 18.272 15.0567 18.243L15.0367 18.233C14.9777 18.195 14.9287 18.156 14.8687 18.117C14.6289 18.2221 14.3695 18.2749 14.1077 18.272C14.0277 18.272 13.9587 18.272 13.8897 18.262L13.8497 18.252L13.6717 18.224L13.6517 18.214C13.5883 18.2022 13.5258 18.1858 13.4647 18.165C13.3052 18.1121 13.1525 18.0406 13.0097 17.952C12.7118 17.7677 12.477 17.497 12.3367 17.176C12.3367 17.156 12.3267 17.146 12.3167 17.127C12.3051 17.094 12.2917 17.0616 12.2767 17.03C12.2649 17.0082 12.2549 16.9854 12.2467 16.962C12.2367 16.933 12.2177 16.904 12.2177 16.875C12.2157 16.8451 12.209 16.8157 12.1977 16.788C12.1877 16.758 12.1877 16.748 12.1777 16.71C12.1677 16.671 12.1677 16.633 12.1587 16.594C12.1587 16.564 12.1487 16.545 12.1487 16.526C12.1404 16.4647 12.137 16.4028 12.1387 16.341C12.1375 16.2665 12.1409 16.1921 12.1487 16.118C12.1487 16.089 12.1587 16.07 12.1587 16.05C12.1687 15.992 12.1787 15.944 12.1887 15.895C12.1987 15.875 12.1987 15.847 12.2087 15.827C12.2205 15.774 12.2369 15.7222 12.2577 15.672C12.2677 15.652 12.2677 15.643 12.2777 15.624C12.2995 15.5637 12.3259 15.5052 12.3567 15.449L12.3667 15.429C12.5291 15.1313 12.7653 14.8804 13.0527 14.7003C13.3401 14.5203 13.669 14.4172 14.0077 14.401C14.0377 14.391 14.0677 14.391 14.1077 14.391C14.2267 14.391 14.3457 14.401 14.4637 14.421C14.5137 14.361 14.5627 14.313 14.6217 14.255L14.6717 14.207C14.7307 14.158 14.7797 14.11 14.8397 14.071L14.8697 14.051C14.9087 14.022 14.9777 13.974 15.0077 13.954C15.0377 13.935 15.0867 13.896 15.1167 13.886C15.1515 13.874 15.1847 13.8579 15.2157 13.838C15.2747 13.808 15.3737 13.76 15.4327 13.741L15.4827 13.702C15.8788 13.5481 16.3078 13.4982 16.7287 13.557H16.7387C16.8187 13.565 16.8977 13.577 16.9757 13.595H16.9857C17.0657 13.605 17.1347 13.635 17.2137 13.654L17.2237 13.664C17.3027 13.692 17.3717 13.721 17.4407 13.751L17.4607 13.761C17.5287 13.789 17.5947 13.821 17.6587 13.857L17.6687 13.867C17.7277 13.897 17.7967 13.945 17.8567 13.983L17.8667 13.993C17.9357 14.032 17.9947 14.08 18.0537 14.129L18.0637 14.139C18.3945 14.417 18.6497 14.774 18.8057 15.177V15.187C18.8257 15.245 18.8457 15.313 18.8657 15.371C18.8657 15.391 18.8757 15.41 18.8757 15.429C18.8917 15.479 18.9057 15.532 18.9147 15.584L18.9447 15.807Z" fill="white"/>
</g>
<defs>
<clipPath id="clip0_4646_28098">
<rect width="32" height="32" fill="white"/>
</clipPath>
</defs>
</svg>
