<svg width="32" height="32" viewBox="0 0 32 32" fill="none" xmlns="http://www.w3.org/2000/svg">
<g clip-path="url(#clip0_4646_28503)">
<path d="M16 32C24.8366 32 32 24.8366 32 16C32 7.16344 24.8366 0 16 0C7.16344 0 0 7.16344 0 16C0 24.8366 7.16344 32 16 32Z" fill="#ED1650"/>
<path fill-rule="evenodd" clip-rule="evenodd" d="M23.479 10H19.435C19.353 10.0001 19.2718 10.0167 19.1962 10.0486C19.1207 10.0806 19.0523 10.1273 18.995 10.186L11.62 17.715C11.5627 17.7737 11.4943 17.8204 11.4188 17.8524C11.3432 17.8843 11.262 17.9009 11.18 17.901H9.828C9.74597 17.9009 9.66479 17.8843 9.58924 17.8524C9.51368 17.8204 9.44526 17.7737 9.388 17.715L8.432 16.741C8.31487 16.6217 8.24917 16.4612 8.249 16.294V14.917C8.24901 14.7495 8.31472 14.5886 8.432 14.469L9.388 13.495C9.4453 13.4363 9.51372 13.3896 9.58927 13.3577C9.66482 13.3258 9.74598 13.3092 9.828 13.309H11.18C11.345 13.309 11.503 13.376 11.62 13.495L12.207 14.093C12.2642 14.1518 12.3326 14.1985 12.4082 14.2304C12.4838 14.2623 12.565 14.2788 12.647 14.2788C12.729 14.2788 12.8102 14.2623 12.8858 14.2304C12.9614 14.1985 13.0298 14.1518 13.087 14.093L14.506 12.649C14.6228 12.5291 14.6882 12.3684 14.6882 12.201C14.6882 12.0336 14.6228 11.8729 14.506 11.753L12.966 10.186C12.9087 10.1273 12.8403 10.0806 12.7647 10.0487C12.6892 10.0168 12.608 10.0002 12.526 10H8.482C8.39998 10.0002 8.31882 10.0168 8.24327 10.0487C8.16772 10.0806 8.0993 10.1273 8.042 10.186L5.182 13.098C5.06508 13.2178 4.99975 13.3786 5 13.546V17.664C5 17.832 5.066 17.994 5.182 18.112L8.042 21.025C8.09938 21.0835 8.16784 21.13 8.24339 21.1618C8.31893 21.1935 8.40005 21.2099 8.482 21.21H12.527C12.609 21.2098 12.6902 21.1932 12.7657 21.1613C12.8413 21.1294 12.9097 21.0827 12.967 21.024L20.342 13.496C20.3992 13.4371 20.4676 13.3903 20.5432 13.3582C20.6187 13.326 20.6999 13.3093 20.782 13.309H22.134C22.299 13.309 22.457 13.376 22.574 13.495L23.53 14.469C23.6473 14.5886 23.713 14.7495 23.713 14.917V16.294C23.7127 16.4612 23.647 16.6216 23.53 16.741L22.574 17.715C22.5167 17.7737 22.4483 17.8204 22.3728 17.8524C22.2972 17.8843 22.216 17.9009 22.134 17.901H20.782C20.7 17.9009 20.6188 17.8843 20.5432 17.8524C20.4677 17.8204 20.3993 17.7737 20.342 17.715L19.75 17.112C19.6932 17.0537 19.6254 17.0072 19.5504 16.9753C19.4755 16.9434 19.395 16.9268 19.3135 16.9263C19.2321 16.9258 19.1514 16.9416 19.0761 16.9726C19.0008 17.0036 18.9325 17.0493 18.875 17.107L17.125 18.849C17.0656 18.9085 17.0185 18.9792 16.9864 19.0569C16.9543 19.1346 16.9379 19.2179 16.938 19.302V23.342C16.938 23.692 17.217 23.976 17.56 23.976H19.6C19.6825 23.9753 19.764 23.9585 19.8399 23.9263C19.9159 23.8941 19.9848 23.8473 20.0426 23.7885C20.1005 23.7298 20.1462 23.6602 20.1771 23.5837C20.2081 23.5073 20.2237 23.4255 20.223 23.343V21.843C20.223 21.493 20.502 21.21 20.845 21.21H23.48C23.562 21.2099 23.6431 21.1935 23.7186 21.1618C23.7942 21.13 23.8626 21.0835 23.92 21.025L26.78 18.112C26.8973 17.9924 26.963 17.8315 26.963 17.664V13.546C26.9633 13.3786 26.8979 13.2178 26.781 13.098L23.921 10.186C23.8637 10.1273 23.7953 10.0806 23.7197 10.0487C23.6442 10.0168 23.563 10.0002 23.481 10" fill="white"/>
</g>
<defs>
<clipPath id="clip0_4646_28503">
<rect width="32" height="32" fill="white"/>
</clipPath>
</defs>
</svg>
