<svg width="32" height="32" viewBox="0 0 32 32" fill="none" xmlns="http://www.w3.org/2000/svg">
<g clip-path="url(#clip0_4646_28495)">
<path d="M16 32C24.8366 32 32 24.8366 32 16C32 7.16344 24.8366 0 16 0C7.16344 0 0 7.16344 0 16C0 24.8366 7.16344 32 16 32Z" fill="#67B2E8"/>
<path fill-rule="evenodd" clip-rule="evenodd" d="M6.145 11.954C6.05142 11.1848 6.003 10.4108 6 9.63595C7.31251 8.88833 8.70536 8.29154 10.152 7.85695C12.1817 7.24618 14.2949 6.95833 16.414 7.00395C16.982 7.01495 17.804 7.07795 18.428 7.14495C17.6362 7.56958 16.9498 8.16646 16.4193 8.89163C15.8889 9.61679 15.5279 10.4517 15.363 11.335C15.303 11.649 15.27 11.975 15.259 12.323C15.243 12.859 15.191 13.281 15.079 13.676C14.8272 14.5662 14.3088 15.358 13.5936 15.9449C12.8784 16.5318 12.0006 16.8857 11.0783 16.9588C10.156 17.032 9.23345 16.821 8.43463 16.3543C7.63581 15.8875 6.99906 15.1874 6.61 14.348C6.56601 14.2518 6.53249 14.1512 6.51 14.048C6.35162 13.3569 6.22978 12.6579 6.145 11.954ZM22.758 20.514C22.52 20.884 22.268 21.244 22.006 21.599C22.0141 20.589 21.7628 19.5939 21.276 18.709C20.7753 17.7767 20.0343 16.9954 19.13 16.446L19.04 16.391C18.99 16.3616 18.9403 16.3316 18.891 16.301C17.754 15.578 17.061 14.566 16.817 13.26C16.6052 12.1223 16.8381 10.9467 17.4675 9.97568C18.097 9.00463 19.075 8.31212 20.2 8.04095C21.02 7.84295 21.83 7.87095 22.637 8.12395C23.256 8.31895 23.882 8.57395 24.645 8.93095C25.085 9.13795 25.529 9.36795 26.001 9.63495C25.9945 11.0296 25.8431 12.4197 25.549 13.783C25.0358 16.1775 24.0904 18.4585 22.759 20.514H22.758ZM19.721 24.187C18.5919 25.2629 17.3439 26.2067 16.001 27C15.654 26.8 15.3147 26.5868 14.984 26.361C11.7765 24.2038 9.24881 21.1787 7.696 17.639C8.43574 18.074 9.26173 18.342 10.116 18.424C11.3719 18.5511 12.636 18.2807 13.73 17.651C14.2559 17.3513 14.8355 17.158 15.436 17.082C16.5007 16.9474 17.5785 17.1961 18.4766 17.7835C19.3747 18.3709 20.0345 19.2586 20.338 20.288C20.673 21.409 20.575 22.51 20.055 23.595C20.011 23.687 19.973 23.761 19.883 23.938L19.839 24.025C19.8093 24.0854 19.7694 24.1402 19.721 24.187Z" fill="white"/>
</g>
<defs>
<clipPath id="clip0_4646_28495">
<rect width="32" height="32" fill="white"/>
</clipPath>
</defs>
</svg>
