<svg width="24" height="24" viewBox="0 0 24 24" fill="none" xmlns="http://www.w3.org/2000/svg">
<g clip-path="url(#clip0_7783_47005)">
<g filter="url(#filter0_d_7783_47005)">
<path d="M19.2721 5.33017C17.9421 4.71017 16.5021 4.26017 15.0021 4.00017C14.9889 3.99975 14.9758 4.00222 14.9637 4.0074C14.9516 4.01258 14.9408 4.02035 14.9321 4.03017C14.7521 4.36017 14.5421 4.79017 14.4021 5.12017C12.8111 4.88017 11.1931 4.88017 9.60207 5.12017C9.46207 4.78017 9.25207 4.36017 9.06207 4.03017C9.05207 4.01017 9.02207 4.00017 8.99207 4.00017C7.49207 4.26017 6.06207 4.71017 4.72207 5.33017C4.71207 5.33017 4.70207 5.34017 4.69207 5.35017C1.97207 9.42017 1.22207 13.3802 1.59207 17.3002C1.59207 17.3202 1.60207 17.3402 1.62207 17.3502C3.42207 18.6702 5.15207 19.4702 6.86207 20.0002C6.89207 20.0102 6.92207 20.0002 6.93207 19.9802C7.33207 19.4302 7.69207 18.8502 8.00207 18.2402C8.02207 18.2002 8.00207 18.1602 7.96207 18.1502C7.39207 17.9302 6.85207 17.6702 6.32207 17.3702C6.28207 17.3502 6.28207 17.2902 6.31207 17.2602C6.42207 17.1802 6.53207 17.0902 6.64207 17.0102C6.66207 16.9902 6.69207 16.9902 6.71207 17.0002C10.1521 18.5702 13.8621 18.5702 17.2621 17.0002C17.2821 16.9902 17.3121 16.9902 17.3321 17.0102C17.4421 17.1002 17.5521 17.1802 17.6621 17.2702C17.7021 17.3002 17.7021 17.3602 17.6521 17.3802C17.1321 17.6902 16.5821 17.9402 16.0121 18.1602C15.9721 18.1702 15.9621 18.2202 15.9721 18.2502C16.2921 18.8602 16.6521 19.4402 17.0421 19.9902C17.0721 20.0002 17.1021 20.0102 17.1321 20.0002C18.8521 19.4702 20.5821 18.6702 22.3821 17.3502C22.4021 17.3402 22.4121 17.3202 22.4121 17.3002C22.8521 12.7702 21.6821 8.84017 19.3121 5.35017C19.3021 5.34017 19.2921 5.33017 19.2721 5.33017V5.33017ZM8.52207 14.9102C7.49207 14.9102 6.63207 13.9602 6.63207 12.7902C6.63207 11.6202 7.47207 10.6702 8.52207 10.6702C9.58207 10.6702 10.4221 11.6302 10.4121 12.7902C10.4121 13.9602 9.57207 14.9102 8.52207 14.9102ZM15.4921 14.9102C14.4621 14.9102 13.6021 13.9602 13.6021 12.7902C13.6021 11.6202 14.4421 10.6702 15.4921 10.6702C16.5521 10.6702 17.3921 11.6302 17.3821 12.7902C17.3821 13.9602 16.5521 14.9102 15.4921 14.9102Z" fill="currentColor"/>
</g>
</g>
<defs>
<filter id="filter0_d_7783_47005" x="1.50391" y="4.00012" width="21" height="36.0042" filterUnits="userSpaceOnUse" color-interpolation-filters="sRGB">
<feFlood flood-opacity="0" result="BackgroundImageFix"/>
<feColorMatrix in="SourceAlpha" type="matrix" values="0 0 0 0 0 0 0 0 0 0 0 0 0 0 0 0 0 0 127 0" result="hardAlpha"/>
<feMorphology radius="40" operator="erode" in="SourceAlpha" result="effect1_dropShadow_7783_47005"/>
<feOffset dy="20"/>
<feGaussianBlur stdDeviation="20"/>
<feColorMatrix type="matrix" values="0 0 0 0 0 0 0 0 0 0 0 0 0 0 0 0 0 0 0.1 0"/>
<feBlend mode="normal" in2="BackgroundImageFix" result="effect1_dropShadow_7783_47005"/>
<feBlend mode="normal" in="SourceGraphic" in2="effect1_dropShadow_7783_47005" result="shape"/>
</filter>
<clipPath id="clip0_7783_47005">
<rect width="24" height="24" fill="white"/>
</clipPath>
</defs>
</svg>
