<svg width="24" height="24" viewBox="0 0 24 24" fill="none" xmlns="http://www.w3.org/2000/svg">
<g clip-path="url(#clip0_7783_47007)">
<g filter="url(#filter0_d_7783_47007)">
<path d="M12 1.99988C14.717 1.99988 15.056 2.00988 16.122 2.05988C17.187 2.10988 17.912 2.27688 18.55 2.52488C19.21 2.77888 19.766 3.12288 20.322 3.67788C20.8305 4.17777 21.224 4.78247 21.475 5.44988C21.722 6.08688 21.89 6.81288 21.94 7.87788C21.987 8.94388 22 9.28288 22 11.9999C22 14.7169 21.99 15.0559 21.94 16.1219C21.89 17.1869 21.722 17.9119 21.475 18.5499C21.2247 19.2177 20.8311 19.8225 20.322 20.3219C19.822 20.8302 19.2173 21.2236 18.55 21.4749C17.913 21.7219 17.187 21.8899 16.122 21.9399C15.056 21.9869 14.717 21.9999 12 21.9999C9.283 21.9999 8.944 21.9899 7.878 21.9399C6.813 21.8899 6.088 21.7219 5.45 21.4749C4.78233 21.2244 4.17753 20.8308 3.678 20.3219C3.16941 19.8221 2.77593 19.2173 2.525 18.5499C2.277 17.9129 2.11 17.1869 2.06 16.1219C2.013 15.0559 2 14.7169 2 11.9999C2 9.28288 2.01 8.94388 2.06 7.87788C2.11 6.81188 2.277 6.08788 2.525 5.44988C2.77524 4.78206 3.1688 4.1772 3.678 3.67788C4.17767 3.16911 4.78243 2.77561 5.45 2.52488C6.088 2.27688 6.812 2.10988 7.878 2.05988C8.944 2.01288 9.283 1.99988 12 1.99988ZM12 6.99988C10.6739 6.99988 9.40215 7.52666 8.46447 8.46434C7.52678 9.40203 7 10.6738 7 11.9999C7 13.326 7.52678 14.5977 8.46447 15.5354C9.40215 16.4731 10.6739 16.9999 12 16.9999C13.3261 16.9999 14.5979 16.4731 15.5355 15.5354C16.4732 14.5977 17 13.326 17 11.9999C17 10.6738 16.4732 9.40203 15.5355 8.46434C14.5979 7.52666 13.3261 6.99988 12 6.99988V6.99988ZM18.5 6.74988C18.5 6.41836 18.3683 6.10041 18.1339 5.86599C17.8995 5.63157 17.5815 5.49988 17.25 5.49988C16.9185 5.49988 16.6005 5.63157 16.3661 5.86599C16.1317 6.10041 16 6.41836 16 6.74988C16 7.0814 16.1317 7.39934 16.3661 7.63376C16.6005 7.86818 16.9185 7.99988 17.25 7.99988C17.5815 7.99988 17.8995 7.86818 18.1339 7.63376C18.3683 7.39934 18.5 7.0814 18.5 6.74988ZM12 8.99988C12.7956 8.99988 13.5587 9.31595 14.1213 9.87856C14.6839 10.4412 15 11.2042 15 11.9999C15 12.7955 14.6839 13.5586 14.1213 14.1212C13.5587 14.6838 12.7956 14.9999 12 14.9999C11.2044 14.9999 10.4413 14.6838 9.87868 14.1212C9.31607 13.5586 9 12.7955 9 11.9999C9 11.2042 9.31607 10.4412 9.87868 9.87856C10.4413 9.31595 11.2044 8.99988 12 8.99988V8.99988Z" fill="currentColor"/>
</g>
</g>
<defs>
<filter id="filter0_d_7783_47007" x="2" y="1.99988" width="20" height="40" filterUnits="userSpaceOnUse" color-interpolation-filters="sRGB">
<feFlood flood-opacity="0" result="BackgroundImageFix"/>
<feColorMatrix in="SourceAlpha" type="matrix" values="0 0 0 0 0 0 0 0 0 0 0 0 0 0 0 0 0 0 127 0" result="hardAlpha"/>
<feMorphology radius="40" operator="erode" in="SourceAlpha" result="effect1_dropShadow_7783_47007"/>
<feOffset dy="20"/>
<feGaussianBlur stdDeviation="20"/>
<feColorMatrix type="matrix" values="0 0 0 0 0 0 0 0 0 0 0 0 0 0 0 0 0 0 0.1 0"/>
<feBlend mode="normal" in2="BackgroundImageFix" result="effect1_dropShadow_7783_47007"/>
<feBlend mode="normal" in="SourceGraphic" in2="effect1_dropShadow_7783_47007" result="shape"/>
</filter>
<clipPath id="clip0_7783_47007">
<rect width="24" height="24" fill="white"/>
</clipPath>
</defs>
</svg>
