<svg width="20" height="20" viewBox="0 0 20 20" fill="none" xmlns="http://www.w3.org/2000/svg">
<g clip-path="url(#clip0_5354_30899)">
<path d="M10 20C15.5228 20 20 15.5228 20 10C20 4.47715 15.5228 0 10 0C4.47715 0 0 4.47715 0 10C0 15.5228 4.47715 20 10 20Z" fill="#627EEA"/>
<path d="M10 2.5V8.04375L14.6856 10.1375L10 2.5Z" fill="white" fill-opacity="0.602"/>
<path d="M10.3112 2.5L5.625 10.1375L10.3112 8.04375V2.5Z" fill="white"/>
<path d="M10 13.97V17.7369L14.6888 11.25L10 13.97Z" fill="white" fill-opacity="0.602"/>
<path d="M10.3112 17.7369V13.9694L5.625 11.25L10.3112 17.7369Z" fill="white"/>
<path d="M10 12.9381L14.6856 10.2175L10 8.125V12.9381Z" fill="white" fill-opacity="0.2"/>
<path d="M5.625 10.2175L10.3112 12.9381V8.125L5.625 10.2175Z" fill="white" fill-opacity="0.602"/>
</g>
<defs>
<clipPath id="clip0_5354_30899">
<rect width="20" height="20" fill="white"/>
</clipPath>
</defs>
</svg>
