<svg width="24" height="20" viewBox="0 0 24 20" fill="none" xmlns="http://www.w3.org/2000/svg">
<path d="M19.3008 19.1289V15.4775" stroke="currentColor" stroke-width="1.5" stroke-linecap="round" stroke-linejoin="round"/>
<path d="M4.69922 19.1289V15.4775" stroke="currentColor" stroke-width="1.5" stroke-linecap="round" stroke-linejoin="round"/>
<path d="M3.32715 4.52238C3.32715 6.53903 4.96195 8.17383 6.9786 8.17383C8.99525 8.17383 10.6301 6.53903 10.6301 4.52238C10.6301 2.50572 8.99525 0.870923 6.9786 0.870923C4.96195 0.870923 3.32715 2.50572 3.32715 4.52238Z" stroke="currentColor" stroke-width="1.5" stroke-linecap="round" stroke-linejoin="round"/>
<path d="M20.6701 4.52238C20.6701 6.53903 19.0353 8.17383 17.0186 8.17383C15.002 8.17383 13.3672 6.53903 13.3672 4.52238C13.3672 2.50572 15.002 0.870923 17.0186 0.870923C19.0353 0.870923 20.6701 2.50572 20.6701 4.52238Z" stroke="currentColor" stroke-width="1.5" stroke-linecap="round" stroke-linejoin="round"/>
<path d="M21.8583 9.54521C22.4884 9.54521 22.9993 10.0561 22.9993 10.6863V12.7402H21.8583C20.976 12.7402 20.2607 12.025 20.2607 11.1427C20.2607 10.2604 20.976 9.54521 21.8583 9.54521Z" stroke="currentColor" stroke-width="1.5" stroke-linecap="round" stroke-linejoin="round"/>
<path d="M2.14108 9.54521C1.51088 9.54521 1 10.0561 1 10.6863V12.7402H2.14108C3.02336 12.7402 3.73859 12.025 3.73859 11.1427C3.73859 10.2604 3.02336 9.54521 2.14108 9.54521Z" stroke="currentColor" stroke-width="1.5" stroke-linecap="round" stroke-linejoin="round"/>
<path d="M2.98701 9.76736C3.94077 8.78617 5.27259 8.17455 6.74896 8.17455C9.6479 8.17455 11.9979 10.5245 11.9979 13.4235V19.1289H1.5V12.7389" stroke="currentColor" stroke-width="1.5" stroke-linecap="round" stroke-linejoin="round"/>
<path d="M6.75195 8.17477H17.2499C18.7263 8.17477 20.0581 8.78639 21.0118 9.76758" stroke="currentColor" stroke-width="1.5" stroke-linecap="round" stroke-linejoin="round"/>
<path d="M22.4979 12.7389V19.1289H12" stroke="currentColor" stroke-width="1.5" stroke-linecap="round" stroke-linejoin="round"/>
</svg>
