<svg width="18" height="20" viewBox="0 0 18 20" fill="none" xmlns="http://www.w3.org/2000/svg">
<path fill-rule="evenodd" clip-rule="evenodd" d="M9.42186 9.75558e-06H15.6718C16.591 9.75558e-06 17.3385 0.747469 17.3385 1.66669V18.3333C17.3385 19.2525 16.591 20 15.6718 20H2.33856C1.41934 20 0.671885 19.2525 0.671885 18.3333V8.75003C0.671885 8.63933 0.71583 8.53354 0.793955 8.45542L3.8327 5.41668L3.17188 4.75586L3.04981 4.87793C2.9684 4.95929 2.8618 5 2.7552 5C2.6486 5 2.542 4.95929 2.46063 4.87793L0.793955 3.21125C0.631182 3.04852 0.631182 2.78485 0.793955 2.62207L3.29395 0.12208C3.45668 -0.0406933 3.72035 -0.0406933 3.88313 0.12208L5.5498 1.78876C5.71258 1.95149 5.71258 2.21516 5.5498 2.37793L5.42773 2.5L6.08851 3.16082L9.12726 0.12208C9.20538 0.043955 9.3112 9.75558e-06 9.42186 9.75558e-06ZM7.75519 5H14.0052C14.9244 5 15.6719 4.25258 15.6719 3.33336C15.6719 2.41414 14.9244 1.66669 14.0052 1.66669H10.2552C10.1445 1.66669 10.0387 1.71063 9.96061 1.78876L7.46062 4.28875C7.34136 4.40797 7.30558 4.58699 7.37027 4.74285C7.43456 4.89867 7.58671 5 7.75519 5ZM11.7266 13.7689C11.7266 11.725 8.9993 9.09375 8.9993 9.09375C8.9993 9.09375 6.27203 11.725 6.27203 13.7689C6.27203 15.2012 7.49548 16.3665 8.9993 16.3665C10.5031 16.3665 11.7266 15.2012 11.7266 13.7689Z" fill="currentColor"/>
</svg>
