<svg width="19" height="14" viewBox="0 0 19 14" fill="none" xmlns="http://www.w3.org/2000/svg">
<path d="M9.39062 13.167C9.83887 13.167 10.0674 12.9736 10.2432 12.4814L11.2715 9.64258H16.1318L17.1514 12.4814C17.3271 12.9736 17.5557 13.167 18.0039 13.167C18.4961 13.167 18.8213 12.877 18.8213 12.4199C18.8213 12.2617 18.7861 12.1211 18.7246 11.9277L14.8838 1.67969C14.6729 1.1084 14.2949 0.835938 13.6973 0.835938C13.126 0.835938 12.7393 1.1084 12.5371 1.6709L8.69629 11.9453C8.62598 12.1387 8.59961 12.2793 8.59961 12.4287C8.59961 12.8857 8.89844 13.167 9.39062 13.167ZM11.6934 8.28906L13.6709 2.75195H13.7236L15.6924 8.28906H11.6934ZM0.882812 13.167C1.25195 13.167 1.49805 12.9824 1.64746 12.5078L2.28027 10.6797H5.33008L5.96289 12.5078C6.12109 12.9912 6.36719 13.167 6.73633 13.167C7.18457 13.167 7.50098 12.877 7.50098 12.4551C7.50098 12.2969 7.46582 12.1387 7.38672 11.9189L4.92578 5.37109C4.73242 4.84375 4.37207 4.51855 3.79199 4.51855C3.23828 4.51855 2.88672 4.84375 2.69336 5.37109L0.223633 11.9189C0.144531 12.1387 0.118164 12.3057 0.118164 12.4551C0.118164 12.877 0.425781 13.167 0.882812 13.167ZM2.66699 9.47559L3.74805 6.22363H3.85352L4.94336 9.47559H2.66699Z" fill="currentColor"/>
</svg>
