<svg width="195" height="48" viewBox="0 0 195 48" fill="none" xmlns="http://www.w3.org/2000/svg">
<path d="M21.9579 45.2571L24.7008 48L48.7012 23.9996L27.4437 2.7422L9.61489 20.571L15.7864 26.7425L27.4437 15.0852L39.7868 27.4283L21.9579 45.2571Z" fill="#FF4800"/>
<path d="M27.446 2.74291L24.7031 7.62939e-06L0.702782 24.0004L21.9602 45.2578L39.7891 27.429L33.6175 21.2575L21.9602 32.9148L9.6172 20.5717L27.446 2.74291Z" fill="currentColor"/>
<path d="M162.47 23.7306C161.836 23.7306 161.261 23.5639 160.745 23.2306C160.228 22.8806 159.811 22.4306 159.495 21.8806C159.178 21.3306 159.02 20.7473 159.02 20.1306V9.2555C159.02 8.60549 159.178 8.02215 159.495 7.50548C159.811 6.97214 160.228 6.54714 160.745 6.23047C161.261 5.89714 161.836 5.73047 162.47 5.73047H173.395C174.028 5.73047 174.603 5.89714 175.12 6.23047C175.636 6.54714 176.053 6.97214 176.37 7.50548C176.686 8.02215 176.845 8.60549 176.845 9.2555V20.1306C176.845 20.7473 176.686 21.3306 176.37 21.8806C176.053 22.4306 175.636 22.8806 175.12 23.2306C174.603 23.5639 174.028 23.7306 173.395 23.7306H162.47ZM163.795 20.2806H173.27C173.353 20.2806 173.42 20.2556 173.47 20.2056C173.536 20.1389 173.57 20.0639 173.57 19.9806V12.1305L163.795 20.2806ZM162.295 17.2306L172.07 9.0805H162.595C162.511 9.0805 162.436 9.11383 162.37 9.1805C162.32 9.2305 162.295 9.29716 162.295 9.3805V17.2306Z" fill="#FF4800"/>
<path d="M179.594 23.7306V22.8556L184.919 16.3556L179.594 10.1055V9.2305H183.144L187.044 13.8305L190.944 9.2305H194.494V10.1055L189.169 16.3556L194.494 22.8556V23.7306H190.969L187.044 18.9306L183.144 23.7306H179.594Z" fill="#FF4800"/>
<path d="M56.2012 23.7306V5.73047H70.7013C71.3346 5.73047 71.918 5.8888 72.4513 6.20547C72.9846 6.52214 73.4096 6.94714 73.7263 7.48048C74.043 7.99715 74.2013 8.57216 74.2013 9.2055V20.2556C74.2013 20.8889 74.043 21.4723 73.7263 22.0056C73.4096 22.5223 72.9846 22.9389 72.4513 23.2556C71.918 23.5723 71.3346 23.7306 70.7013 23.7306H56.2012ZM59.7762 20.4056H70.5513C70.6346 20.4056 70.7096 20.3806 70.7763 20.3306C70.843 20.2639 70.8763 20.1889 70.8763 20.1056V9.3555C70.8763 9.27216 70.843 9.2055 70.7763 9.1555C70.7096 9.08883 70.6346 9.0555 70.5513 9.0555H59.7762C59.6929 9.0555 59.6179 9.08883 59.5512 9.1555C59.5012 9.2055 59.4762 9.27216 59.4762 9.3555V20.1056C59.4762 20.1889 59.5012 20.2639 59.5512 20.3306C59.6179 20.3806 59.6929 20.4056 59.7762 20.4056Z" fill="currentColor"/>
<path d="M80.426 23.7306C79.7926 23.7306 79.2093 23.5723 78.676 23.2556C78.1593 22.9389 77.7426 22.5223 77.4259 22.0056C77.1093 21.4723 76.9509 20.8889 76.9509 20.2556V5.73047H80.251V20.1056C80.251 20.1889 80.276 20.2639 80.326 20.3306C80.3926 20.3806 80.4676 20.4056 80.551 20.4056H91.3011C91.3844 20.4056 91.4594 20.3806 91.5261 20.3306C91.5927 20.2639 91.6261 20.1889 91.6261 20.1056V5.73047H94.9511V20.2556C94.9511 20.8889 94.7928 21.4723 94.4761 22.0056C94.1594 22.5223 93.7344 22.9389 93.2011 23.2556C92.6844 23.5723 92.1094 23.7306 91.4761 23.7306H80.426Z" fill="currentColor"/>
<path d="M104.154 23.7306V9.0555H96.8042V5.73047H114.804V9.0555H107.479V23.7306H104.154Z" fill="currentColor"/>
<path d="M120.149 23.7306C119.516 23.7306 118.932 23.5723 118.399 23.2556C117.882 22.9389 117.466 22.5223 117.149 22.0056C116.832 21.4723 116.674 20.8889 116.674 20.2556V9.2055C116.674 8.57216 116.832 7.99715 117.149 7.48048C117.466 6.94714 117.882 6.52214 118.399 6.20547C118.932 5.8888 119.516 5.73047 120.149 5.73047H134.624V9.0555H120.849C120.582 9.0555 120.366 9.1305 120.199 9.2805C120.049 9.4305 119.974 9.64717 119.974 9.9305V19.5306C119.974 19.7972 120.049 20.0139 120.199 20.1806C120.366 20.3306 120.582 20.4056 120.849 20.4056H134.624V23.7306H120.149Z" fill="currentColor"/>
<path d="M137.256 23.7306V5.73047H140.556V13.0555H152.356V5.73047H155.656V23.7306H152.356V16.4056H140.556V23.7306H137.256Z" fill="currentColor"/>
<path d="M56.2012 42.2693V30.2695H65.0188C65.451 30.2695 65.8455 30.3806 66.202 30.6029C66.5695 30.8251 66.8612 31.1251 67.0773 31.5028C67.3043 31.8695 67.4177 32.2806 67.4177 32.7362V34.9861C67.4177 35.1306 67.4069 35.2694 67.3853 35.4028C67.3745 35.525 67.3475 35.6417 67.3042 35.7528C67.4663 35.9639 67.6014 36.2083 67.7095 36.4861C67.8175 36.7639 67.8716 37.0416 67.8716 37.3194V39.8027C67.8716 40.2471 67.7581 40.6582 67.5312 41.036C67.3151 41.4138 67.0233 41.7138 66.6559 41.936C66.2993 42.1582 65.8995 42.2693 65.4564 42.2693H56.2012ZM58.7136 39.6694H65.3268V37.4694H58.7136V39.6694ZM58.7136 34.8694H64.8729V32.8695H58.7136V34.8694Z" fill="currentColor"/>
<path d="M69.6713 42.2693V30.2695H80.4502V32.8695H72.2161V34.9694H78.8455V37.5694H72.2161V39.6694H80.4502V42.2693H69.6713Z" fill="currentColor"/>
<path d="M86.0361 42.2693V32.8695H81.4652V30.2695H93.1356V32.8695H88.5647V42.2693H86.0361Z" fill="currentColor"/>
<path d="M94.3803 42.2693V32.7362C94.3803 32.2806 94.4884 31.8695 94.7045 31.5028C94.9206 31.1251 95.2124 30.8251 95.5798 30.6029C95.9472 30.3806 96.347 30.2695 96.7792 30.2695H103.636C104.079 30.2695 104.478 30.3806 104.835 30.6029C105.202 30.8251 105.494 31.1251 105.71 31.5028C105.937 31.8695 106.051 32.2806 106.051 32.7362V42.2693H103.506V38.4027H96.8927V42.2693H94.3803ZM96.8927 35.8028H103.506V32.8695H96.8927V35.8028Z" fill="currentColor"/>
</svg>
