<svg width="112" height="112" viewBox="0 0 112 112" fill="none" xmlns="http://www.w3.org/2000/svg">
<path d="M38.25 87.0625V93.0206C38.2503 95.3524 37.7911 97.6613 36.8988 99.8156C36.0064 101.97 34.6983 103.927 33.0493 105.576L29.375 109.25H82.625L78.9507 105.576C77.3017 103.927 75.9936 101.97 75.1012 99.8156C74.2089 97.6613 73.7497 95.3524 73.75 93.0206V87.0625M109.25 16.0625V73.75C109.25 77.2807 107.847 80.6668 105.351 83.1634C102.854 85.6599 99.4682 87.0625 95.9375 87.0625H16.0625C12.5318 87.0625 9.14572 85.6599 6.64914 83.1634C4.15256 80.6668 2.75 77.2807 2.75 73.75V16.0625M109.25 16.0625C109.25 12.5318 107.847 9.14572 105.351 6.64914C102.854 4.15256 99.4682 2.75 95.9375 2.75H16.0625C12.5318 2.75 9.14572 4.15256 6.64914 6.64914C4.15256 9.14572 2.75 12.5318 2.75 16.0625M109.25 16.0625V56C109.25 59.5307 109.25 69.3125 109.25 69.3125C109.25 69.3125 99.4682 69.3125 95.9375 69.3125H16.0625C12.5318 69.3125 2.75 69.3125 2.75 69.3125C2.75 69.3125 2.75 59.5307 2.75 56V16.0625" stroke="currentColor" stroke-width="4" stroke-linecap="round" stroke-linejoin="round"/>
</svg>
