<svg width="16" height="19" viewBox="0 0 16 19" fill="none" xmlns="http://www.w3.org/2000/svg">
<path d="M7.57812 9.11035C7.79785 9.11035 7.96484 9.04004 8.09668 8.9082L11.5156 5.46289C11.6738 5.30469 11.7441 5.12891 11.7441 4.92676C11.7441 4.7334 11.665 4.54004 11.5156 4.39062L8.09668 0.918945C7.96484 0.77832 7.79785 0.699219 7.57812 0.699219C7.18262 0.699219 6.875 1.02441 6.875 1.4375C6.875 1.62207 6.94531 1.79785 7.06836 1.94727L9.21289 4.03906C8.76465 3.95996 8.30762 3.9248 7.85938 3.9248C3.76367 3.9248 0.485352 7.19434 0.485352 11.29C0.485352 15.3857 3.77246 18.6816 7.86816 18.6816C11.9551 18.6816 15.2422 15.3857 15.2422 11.29C15.2422 10.8594 14.9346 10.543 14.4951 10.543C14.0732 10.543 13.792 10.8594 13.792 11.29C13.792 14.5859 11.1553 17.2314 7.86816 17.2314C4.57227 17.2314 1.93555 14.5859 1.93555 11.29C1.93555 7.98535 4.56348 5.35742 7.85938 5.35742C8.46582 5.35742 9.01074 5.40137 9.49414 5.49805L7.07715 7.89746C6.94531 8.03809 6.875 8.20508 6.875 8.38965C6.875 8.80273 7.18262 9.11035 7.57812 9.11035Z" fill="currentColor"/>
</svg>
