<svg width="112" height="40" viewBox="0 0 112 40" fill="none" xmlns="http://www.w3.org/2000/svg">
<rect width="112" height="40" rx="4" fill="white"/>
<path d="M32.5772 21.9377L28.4303 26.0999C28.0789 26.4526 28.0793 27.0258 28.431 27.378L31.6 30.5515C32.1401 31.0846 33.023 31.0846 33.5631 30.5515L43.2762 20.9647C43.8163 20.4316 43.8163 19.5601 43.2762 19.027L33.5631 9.44863C33.023 8.91556 32.1401 8.91556 31.6 9.44863L28.431 12.6222C28.0793 12.9744 28.0789 13.5476 28.4303 13.9002L32.5772 18.0625C33.6574 19.1286 33.6574 20.8716 32.5772 21.9377Z" fill="#0A6E5C"/>
<path d="M20.104 21.9377L24.251 26.0999C24.6023 26.4526 24.602 27.0258 24.2503 27.378L21.0813 30.5515C20.5412 31.0846 19.6582 31.0846 19.1181 30.5515L9.40507 20.9647C8.86498 20.4316 8.86498 19.5601 9.40507 19.027L19.1181 9.44863C19.6582 8.91556 20.5412 8.91556 21.0813 9.44863L24.2503 12.6222C24.602 12.9744 24.6023 13.5476 24.251 13.9002L20.104 18.0625C19.0238 19.1286 19.0238 20.8716 20.104 21.9377Z" fill="#21BF73"/>
<path d="M21.1904 20.7929C20.7529 20.3556 20.7529 19.6465 21.1904 19.2091L25.546 14.8534C25.9834 14.416 26.6925 14.416 27.1299 14.8534L31.4855 19.2091C31.9229 19.6465 31.9229 20.3556 31.4855 20.7929L27.1299 25.1486C26.6925 25.586 25.9834 25.586 25.546 25.1486L21.1904 20.7929Z" fill="#21BF73"/>
<path d="M62.2535 26.5717H59.1583L57.4513 22.1062C57.3137 21.7545 57.1011 21.5095 56.8134 21.3714C56.5384 21.2332 56.1882 21.1641 55.763 21.1641H53.8684V26.5717H50.9795V13.1562H56.926C58.4767 13.1562 59.6523 13.4954 60.4527 14.1737C61.253 14.852 61.6532 15.8255 61.6532 17.0943C61.6532 17.9861 61.4156 18.7523 60.9404 19.393C60.4777 20.0336 59.8086 20.4921 58.9332 20.7684C59.7211 20.9317 60.2901 21.4782 60.6403 22.4077L62.2535 26.5717ZM56.4945 18.9219C57.3325 18.9219 57.9452 18.7838 58.3329 18.5074C58.7206 18.2185 58.9144 17.7725 58.9144 17.1696C58.9144 16.5667 58.7206 16.127 58.3329 15.8507C57.9452 15.5617 57.3325 15.4173 56.4945 15.4173H53.8308V18.9219H56.4945Z" fill="#22272F"/>
<path d="M73.5999 17.0184V26.5713H70.8049V25.1581C70.5173 25.648 70.1109 26.0312 69.5856 26.3075C69.0604 26.5838 68.4663 26.722 67.8035 26.722C66.9781 26.722 66.2465 26.521 65.6087 26.1191C64.9834 25.7171 64.4894 25.1455 64.1268 24.4045C63.7766 23.6508 63.6016 22.784 63.6016 21.8042C63.6016 20.8244 63.7766 19.9514 64.1268 19.1852C64.4894 18.4189 64.9897 17.8286 65.6275 17.4141C66.2653 16.987 66.9906 16.7734 67.8035 16.7734C68.4663 16.7734 69.0604 16.9179 69.5856 17.2068C70.1109 17.4957 70.5173 17.8851 70.8049 18.375V17.0184H73.5999ZM68.6289 24.5552C69.3292 24.5552 69.867 24.3165 70.2421 23.8392C70.6173 23.3619 70.8049 22.671 70.8049 21.7666C70.8049 20.8622 70.6173 20.1713 70.2421 19.6939C69.867 19.2041 69.3292 18.9591 68.6289 18.9591C67.9285 18.9591 67.3845 19.2103 66.9969 19.7128C66.6092 20.2152 66.4154 20.9124 66.4154 21.8042C66.4154 22.6961 66.603 23.3807 66.9781 23.858C67.3658 24.3228 67.9161 24.5552 68.6289 24.5552Z" fill="#22272F"/>
<path d="M87.5206 16.7734C88.6089 16.7734 89.4152 17.1063 89.9409 17.7721C90.4782 18.4252 90.7472 19.4301 90.7472 20.7868V26.5713H87.9149V20.881C87.9149 20.2152 87.8081 19.7379 87.5959 19.449C87.3831 19.1475 87.0333 18.9968 86.5453 18.9968C85.9704 18.9968 85.5261 19.1978 85.2133 19.5998C84.9006 20.0017 84.7445 20.567 84.7445 21.2955V26.5713H81.9115V20.881C81.9115 20.2278 81.7993 19.7505 81.5741 19.449C81.3619 19.1475 81.0176 18.9968 80.5426 18.9968C79.967 18.9968 79.5173 19.1978 79.1915 19.5998C78.8794 20.0017 78.7227 20.567 78.7227 21.2955V26.5713H75.8903V19.7505C75.8903 18.733 75.8403 17.8223 75.7402 17.0184H78.4037L78.5728 18.4503C78.8603 17.9102 79.2607 17.4957 79.7733 17.2068C80.2983 16.9179 80.8992 16.7734 81.5741 16.7734C82.9875 16.7734 83.9252 17.3638 84.3879 18.5446C84.7007 18.0044 85.1319 17.5773 85.6822 17.2633C86.2448 16.9367 86.8581 16.7734 87.5206 16.7734Z" fill="#22272F"/>
<path d="M98.799 16.7734C99.6121 16.7734 100.338 16.987 100.976 17.4141C101.613 17.8286 102.107 18.4189 102.457 19.1852C102.82 19.9514 103.001 20.8244 103.001 21.8042C103.001 22.784 102.826 23.6508 102.476 24.4045C102.126 25.1455 101.632 25.7171 100.994 26.1191C100.356 26.521 99.6245 26.722 98.799 26.722C98.1365 26.722 97.5423 26.5838 97.0174 26.3075C96.4917 26.0312 96.092 25.648 95.8168 25.1581V30.9516H92.9839V19.7505C92.9839 18.733 92.9339 17.8223 92.834 17.0184H95.4979L95.6854 18.6011C95.9352 18.0358 96.3357 17.5899 96.886 17.2633C97.4486 16.9367 98.0865 16.7734 98.799 16.7734ZM97.9927 24.5552C98.6929 24.5552 99.2309 24.3228 99.606 23.858C99.9811 23.3807 100.169 22.6961 100.169 21.8042C100.169 20.9124 99.9749 20.2152 99.5868 19.7128C99.2117 19.2103 98.6806 18.9591 97.9927 18.9591C97.2925 18.9591 96.7484 19.2041 96.3603 19.6939C95.9852 20.1713 95.7977 20.8622 95.7977 21.7666C95.7977 22.671 95.9852 23.3619 96.3603 23.8392C96.7484 24.3165 97.2925 24.5552 97.9927 24.5552Z" fill="#22272F"/>
</svg>
