<svg width="16" height="15" viewBox="0 0 16 15" fill="none" xmlns="http://www.w3.org/2000/svg">
<path d="M6.5 5.59026C6.5 5.28678 6.33474 5.01017 6.07489 4.87871C5.81504 4.74724 5.50661 4.78421 5.28148 4.97379L0.281479 9.18431C0.103567 9.33413 0 9.56095 0 9.80078C0 10.0406 0.103567 10.2674 0.281479 10.4173L5.28148 14.6278C5.50661 14.8174 5.81504 14.8543 6.07489 14.7229C6.33474 14.5914 6.5 14.3148 6.5 14.0113V5.59026Z" fill="black"/>
<path d="M9.5 1.59026C9.5 1.28678 9.66526 1.01017 9.92511 0.878707C10.185 0.747244 10.4934 0.784206 10.7185 0.973787L15.7185 5.18431C15.8964 5.33413 16 5.56095 16 5.80078C16 6.04061 15.8964 6.26744 15.7185 6.41726L10.7185 10.6278C10.4934 10.8174 10.185 10.8543 9.92511 10.7229C9.66526 10.5914 9.5 10.3148 9.5 10.0113V1.59026Z" fill="black"/>
</svg>
