<svg width="112" height="40" viewBox="0 0 112 40" fill="none" xmlns="http://www.w3.org/2000/svg">
<rect width="112" height="40" rx="4" fill="white"/>
<path d="M61.6487 31.4875C64.5805 31.8943 66.4002 31.352 67.7819 29.9623C68.658 29.081 69.332 28.0642 69.9049 26.9796C72.2638 22.6072 77.9926 12.0661 77.9926 12.0661H73.8814L69.6016 20.7091L68.2536 12.0661H63.8728V12.2694C63.8728 12.2694 65.3555 20.1668 66.0969 24.2342C66.198 24.8443 66.3328 26.4034 65.2544 27.3863C64.6479 27.9625 63.7717 28.4032 62.2552 28.1659L61.6487 31.4875ZM58.3799 12.0661L54.4034 21.1498L54.3023 21.1159L53.7631 12.3033H49.416L45.2036 21.1498L45.1025 21.082L44.934 12.0661H40.7891L41.5978 26.539H46.0798L50.4269 17.1163H50.528L51.202 26.539H55.7177L62.2552 12.0661H58.3799ZM82.3061 26.539H77.9589C78.9362 21.6582 79.8461 16.9469 80.8233 12.0661H84.1932V14.7437C84.6313 13.6591 85.2716 12.6084 86.3162 12.1678C87.3272 11.7271 88.911 11.761 90.5286 12.2356C89.8883 13.4896 89.4165 14.5743 88.7089 15.93C88.1023 15.7945 87.5294 15.6589 86.9565 15.5911C85.676 15.4555 84.7661 15.9639 84.328 17.1841C84.0247 18.0315 83.8225 18.9466 83.654 19.8279C83.1822 22.0649 82.7779 24.3019 82.3061 26.539ZM96.2237 15.5233C96.8303 14.7776 97.976 14.337 98.7848 14.6082C99.7958 14.9132 100.133 16.0656 99.4251 16.8452C99.1892 17.1163 98.8522 17.3197 98.5152 17.4553C97.4706 17.862 96.3922 17.8281 95.2464 17.6248C95.4149 16.8113 95.7182 16.1334 96.2237 15.5233ZM101.784 22.9462H101.649C99.998 23.5902 98.1445 23.7596 96.864 23.3868C95.4486 22.9801 94.6399 21.7599 94.9094 20.3702C99.0881 20.7091 100.874 19.9296 101.851 19.3534C104.446 17.7942 105.087 13.6252 101.717 12.405C98.7511 11.3204 94.6062 11.8288 92.6516 14.2014C90.8656 16.3707 90.3601 18.7433 90.6297 21.4209C90.8319 23.4207 92.1798 26.2678 96.6281 26.7423C99.324 27.0135 101.043 26.3017 101.177 26.2678L101.784 22.9462Z" fill="#061027"/>
<path d="M24.3449 20.1348H34.2187L28.8943 33.2519C28.1529 35.0822 26.4006 36.2685 24.446 36.2685H14.5723L19.8967 23.1514C20.6381 21.2872 22.3904 20.1348 24.3449 20.1348Z" fill="#94C5FF"/>
<path d="M34.2181 20.1348L28.2197 27.7949C27.3099 29.0151 25.9282 29.7947 24.3107 29.7947H17.1328L19.8624 23.1175C20.6038 21.3211 22.3561 20.1348 24.3107 20.1348H34.2181Z" fill="#1A32AF"/>
<path d="M21.0422 12.0664H30.916L25.5916 25.1835C24.8502 27.0138 23.0978 28.2001 21.1433 28.2001H11.2695L16.594 15.083C17.3353 13.2527 19.1214 12.0664 21.0422 12.0664Z" fill="#0092FF"/>
<path d="M30.9486 12.0664L24.9502 19.7265C24.0403 20.9467 22.6587 21.7263 21.0411 21.7263H13.8633L16.5929 15.0491C17.3343 13.2527 19.0866 12.0664 21.0411 12.0664H30.9486Z" fill="#1A32AF"/>
<path d="M17.7727 4H27.6464L22.322 17.1171C21.5806 18.9474 19.8283 20.1337 17.8738 20.1337H8L13.3244 7.0166C14.0658 5.1863 15.8181 4 17.7727 4Z" fill="#0055FF"/>
</svg>
